%TF.GenerationSoftware,KiCad,Pcbnew,7.0.11-2.fc39*%
%TF.CreationDate,2024-06-13T18:25:28+01:00*%
%TF.ProjectId,msf-owl-clock,6d73662d-6f77-46c2-9d63-6c6f636b2e6b,0.1*%
%TF.SameCoordinates,Original*%
%TF.FileFunction,Drillmap*%
%TF.FilePolarity,Positive*%
%FSLAX45Y45*%
G04 Gerber Fmt 4.5, Leading zero omitted, Abs format (unit mm)*
G04 Created by KiCad (PCBNEW 7.0.11-2.fc39) date 2024-06-13 18:25:28*
%MOMM*%
%LPD*%
G01*
G04 APERTURE LIST*
%ADD10C,0.200000*%
%ADD11C,0.100000*%
%ADD12C,0.115200*%
%ADD13C,0.125000*%
%ADD14C,0.140000*%
G04 APERTURE END LIST*
D10*
X12244999Y-16415622D02*
X12232367Y-16400685D01*
X12222293Y-16386135D02*
X12214922Y-16371848D01*
X12341428Y-16500481D02*
X12296787Y-16464003D01*
X3846014Y-9722335D02*
X3907458Y-9538609D01*
X15536250Y-3317779D02*
X15522891Y-3267453D01*
X13621128Y-15487345D02*
X13723740Y-15402152D01*
X3626791Y-16703213D02*
X3645886Y-16700892D01*
X4353054Y-8464511D02*
X4525150Y-8117683D01*
X4059567Y-4046839D02*
X4114649Y-3963163D01*
X3574443Y-12560281D02*
X3527327Y-12260036D01*
X3840174Y-4434006D02*
X3904844Y-4318129D01*
X12223736Y-16299977D02*
X12235652Y-16284642D01*
X14351788Y-15385947D02*
X14361875Y-15428657D01*
X3788872Y-9907358D02*
X3846014Y-9722335D01*
X4488479Y-3215369D02*
X4497846Y-3161636D01*
X16038986Y-13707279D02*
X16164467Y-13431258D01*
X6616264Y-2664790D02*
X6975155Y-2811703D01*
X3513011Y-19679457D02*
X3513011Y-16803361D01*
X14338478Y-15074886D02*
X14340702Y-15143547D01*
X13737550Y-2505117D02*
X13383681Y-2664909D01*
X16425503Y-12560399D02*
X16472620Y-12260154D01*
X14345981Y-15334115D02*
X14351788Y-15385947D01*
X4509918Y-3048351D02*
X4512378Y-2988543D01*
X16153932Y-9722453D02*
X16092488Y-9538727D01*
X16038271Y-16686923D02*
X15942873Y-16685816D01*
X16373156Y-16703330D02*
X16354061Y-16701010D01*
X15646891Y-8464630D02*
X15474794Y-8117802D01*
X16499075Y-11957082D02*
X16504420Y-11804890D01*
X16095102Y-4318248D02*
X16046263Y-4223413D01*
X3688451Y-10281221D02*
X3736272Y-10093659D01*
X13896294Y-16695335D02*
X13281071Y-16698748D01*
X3814969Y-7046408D02*
X3720929Y-6805320D01*
X5208877Y-15217237D02*
X5087779Y-15123079D01*
X5661468Y-15074768D02*
X5659243Y-15143430D01*
X14880769Y-16688866D02*
X13896294Y-16695335D01*
X3500872Y-11956964D02*
X3495526Y-11804771D01*
X15732893Y-14230172D02*
X15894986Y-13974014D01*
X15495967Y-2795033D02*
X15509196Y-2711766D01*
X3926118Y-7280441D02*
X3814969Y-7046408D01*
X15645196Y-14353881D02*
X15732893Y-14230172D01*
X5503417Y-15455145D02*
X5476055Y-15436460D01*
X3641793Y-12856408D02*
X3574443Y-12560281D01*
X3736272Y-10093659D02*
X3788872Y-9907358D01*
X6103652Y-16695217D02*
X6718874Y-16698631D01*
X11920230Y-3166638D02*
X11543496Y-3253386D01*
X14472098Y-15468963D02*
X14496529Y-15455262D01*
X4196413Y-7721674D02*
X4053543Y-7506002D01*
X13024790Y-2811821D02*
X12661101Y-2944990D01*
X15808482Y-8817158D02*
X15646891Y-8464630D01*
X4446809Y-14474343D02*
X4354750Y-14353763D01*
X4421608Y-16685034D02*
X4737609Y-16686377D01*
X16423882Y-10851405D02*
X16391838Y-10660172D01*
X15838255Y-1503175D02*
X15832197Y-1465957D01*
X14429323Y-2150356D02*
X14086172Y-2333311D01*
X16388242Y-5039299D02*
X16354851Y-4915416D01*
X7338843Y-2944872D02*
X7707105Y-3063432D01*
X14325211Y-14941650D02*
X14333766Y-15006931D01*
X15803533Y-7721793D02*
X15946402Y-7506121D01*
X12296787Y-16464003D02*
X12260044Y-16431070D01*
X4970669Y-15024662D02*
X4857601Y-14922147D01*
X15775762Y-3799895D02*
X15723273Y-3718129D01*
X3546778Y-5416543D02*
X3562650Y-5289981D01*
X15490415Y-2862072D02*
X15495967Y-2795033D01*
X6590059Y-15650351D02*
X6483361Y-15570216D01*
X15713677Y-16684974D02*
X15578339Y-16685152D01*
X3720929Y-6805320D02*
X3644833Y-6558594D01*
X15494912Y-3106125D02*
X15490027Y-3048471D01*
X12235652Y-16284642D02*
X12251293Y-16268695D01*
X13723740Y-15402152D02*
X13924072Y-15227746D01*
X3805429Y-16690601D02*
X3878050Y-16688425D01*
X16467415Y-5798873D02*
X16468123Y-5671226D01*
X3580429Y-16711317D02*
X3594159Y-16708419D01*
X14387992Y-15471318D02*
X14400304Y-15478848D01*
X16437296Y-5290100D02*
X16415688Y-5164253D01*
X4353893Y-7926040D02*
X4196413Y-7721674D01*
X15531541Y-2620201D02*
X15561114Y-2521869D01*
X12292840Y-3063551D02*
X11920230Y-3166638D01*
X7707105Y-3063432D02*
X8079714Y-3166519D01*
X16121897Y-16688542D02*
X16038271Y-16686923D01*
X15808953Y-1399841D02*
X15791295Y-1371326D01*
X16479972Y-16742371D02*
X16476318Y-16737700D01*
X14333766Y-15006931D02*
X14338478Y-15074886D01*
X12251293Y-16268695D02*
X12270806Y-16252012D01*
X16486936Y-19679574D02*
X16486936Y-16803479D01*
X16461387Y-5926528D02*
X16467415Y-5798873D01*
X5630999Y-15445859D02*
X5622349Y-15460162D01*
X3781968Y-4551838D02*
X3840174Y-4434006D01*
X5622349Y-15460162D02*
X5611953Y-15471201D01*
X6810823Y-15799468D02*
X6699138Y-15726985D01*
X15474794Y-8117802D02*
X15646052Y-7926159D01*
X12583754Y-16077059D02*
X12711837Y-16035052D01*
X7789452Y-16329194D02*
X7784547Y-16314707D01*
X16211074Y-9907477D02*
X16153932Y-9722453D01*
X12836191Y-15985652D02*
X12957040Y-15929509D01*
X16484897Y-16752456D02*
X16482800Y-16747288D01*
X16391838Y-10660172D02*
X16354297Y-10470144D01*
X4857601Y-14922147D02*
X4748627Y-14815697D01*
X4525150Y-8117683D02*
X4353893Y-7926040D01*
X3557663Y-16717726D02*
X3568296Y-16714417D01*
X3576065Y-10851286D02*
X3608108Y-10660053D01*
X7424297Y-16701709D02*
X7488867Y-16641060D01*
X16472008Y-11195514D02*
X16450188Y-11043825D01*
X3611704Y-5039180D02*
X3645095Y-4915297D01*
X3531822Y-5671107D02*
X3536537Y-5543644D01*
X15832197Y-1465957D02*
X15822508Y-1431448D01*
X7776210Y-16299859D02*
X7764293Y-16284524D01*
X16482800Y-16747288D02*
X16479972Y-16742371D01*
X7791068Y-16343443D02*
X7789452Y-16329194D01*
X4497846Y-3161636D02*
X4505033Y-3106006D01*
X15834931Y-16685181D02*
X15713677Y-16684974D01*
X7729140Y-16251895D02*
X7705611Y-16234350D01*
X16486361Y-16757881D02*
X16484897Y-16752456D01*
X3495526Y-11804771D02*
X3495507Y-11652357D01*
X16270998Y-13147243D02*
X16358153Y-12856526D01*
X5638070Y-15428539D02*
X5630999Y-15445859D01*
X3513011Y-16803361D02*
X3512038Y-16775628D01*
X15994361Y-4133325D02*
X15940378Y-4046958D01*
X16431651Y-16714535D02*
X16419518Y-16711434D01*
X16046263Y-4223413D02*
X15994361Y-4133325D01*
X3527939Y-11195395D02*
X3549759Y-11043706D01*
X14496529Y-15455262D02*
X14523891Y-15436578D01*
X8456448Y-3253268D02*
X8837081Y-3322814D01*
X5568592Y-15482281D02*
X5549516Y-15477809D01*
X7042906Y-15929392D02*
X6925337Y-15867153D01*
X14450429Y-15477927D02*
X14472098Y-15468963D01*
X14791068Y-15217355D02*
X14912166Y-15123197D01*
X16419518Y-16711434D02*
X16405789Y-16708537D01*
X11543496Y-3253386D02*
X11162864Y-3322932D01*
X15356144Y-14705590D02*
X15456768Y-14591751D01*
X12214922Y-16371848D02*
X12210402Y-16357698D01*
X15596021Y-2418301D02*
X15751184Y-1982289D01*
X5233166Y-1956997D02*
X5570621Y-2150237D01*
X4326332Y-3634824D02*
X4372182Y-3549192D01*
X5648158Y-15385829D02*
X5638070Y-15428539D01*
X15561114Y-2521869D02*
X15596021Y-2418301D01*
X3644833Y-6558594D02*
X3587513Y-6307646D01*
X7748652Y-16268577D02*
X7729140Y-16251895D01*
X15940378Y-4046958D02*
X15885296Y-3963282D01*
X4167748Y-1465838D02*
X4177437Y-1431329D01*
X15751184Y-1982289D02*
X15784402Y-1875505D01*
X12661101Y-2944990D02*
X12292840Y-3063551D01*
X15791295Y-1371326D02*
X15769297Y-1346094D01*
X3500867Y-11499882D02*
X3511659Y-11347507D01*
X13300807Y-15727102D02*
X13409886Y-15650469D01*
X4901631Y-1754338D02*
X5233166Y-1956997D01*
X16354851Y-4915416D02*
X16315413Y-4792779D01*
X16471742Y-16733269D02*
X16466146Y-16729074D01*
X15098314Y-1754457D02*
X14766779Y-1957116D01*
X6925337Y-15867153D02*
X6810823Y-15799468D01*
X3730122Y-4671448D02*
X3781968Y-4551838D01*
X15946402Y-7506121D02*
X16073828Y-7280560D01*
X5656846Y-15275010D02*
X5653965Y-15333998D01*
X7609466Y-16175302D02*
X7522612Y-16129343D01*
X3961676Y-16686805D02*
X4057074Y-16685699D01*
X3878050Y-16688425D02*
X3961676Y-16686805D01*
X16488287Y-11347626D02*
X16472008Y-11195514D01*
X3533801Y-16728956D02*
X3540512Y-16724990D01*
X4188336Y-1772552D02*
X4169030Y-1675198D01*
X16476318Y-16737700D02*
X16471742Y-16733269D01*
X15723273Y-3718129D02*
X15673613Y-3634943D01*
X4393372Y-3505137D02*
X4413241Y-3460084D01*
X15490027Y-3048471D02*
X15487567Y-2988662D01*
X12270806Y-16252012D02*
X12294335Y-16234468D01*
X16073828Y-7280560D02*
X16184977Y-7046527D01*
X16332985Y-16698871D02*
X16309831Y-16696909D01*
X3743040Y-16693376D02*
X3805429Y-16690601D01*
X5688486Y-14880889D02*
X5674735Y-14941532D01*
X16092488Y-9538727D02*
X16026982Y-9356316D01*
X14523891Y-15436578D02*
X14554353Y-15412664D01*
X6718874Y-16698631D02*
X7424297Y-16701709D01*
X16355113Y-6558713D02*
X16412434Y-6307765D01*
X15627763Y-3549311D02*
X15606573Y-3505256D01*
X4413241Y-3460084D02*
X4431666Y-3413906D01*
X4503977Y-2794914D02*
X4490749Y-2711647D01*
X3523629Y-16737583D02*
X3528206Y-16733152D01*
X4543178Y-14591633D02*
X4446809Y-14474343D01*
X16450188Y-11043825D02*
X16423882Y-10851405D01*
X15840427Y-1584975D02*
X15840920Y-1542912D01*
X13924072Y-15227746D02*
X14311460Y-14881007D01*
X15673613Y-3634943D02*
X15627763Y-3549311D01*
X10390799Y-3406955D02*
X9999816Y-3419702D01*
X16415688Y-5164253D02*
X16388242Y-5039299D01*
X11162864Y-3322932D02*
X10778556Y-3374410D01*
X4159518Y-1584856D02*
X4159025Y-1542792D01*
X12957040Y-15929509D02*
X13074609Y-15867271D01*
X4748627Y-14815697D02*
X4643801Y-14705472D01*
X15769297Y-1346094D02*
X15742724Y-1324338D01*
X13189123Y-15799586D02*
X13300807Y-15727102D01*
X15742724Y-1324338D02*
X15423704Y-1543242D01*
X14912166Y-15123197D02*
X15029276Y-15024780D01*
X12215398Y-16314825D02*
X12223736Y-16299977D01*
X14588086Y-15383276D02*
X14666037Y-15307092D01*
X6262395Y-2504998D02*
X6616264Y-2664790D01*
X15487656Y-2926572D02*
X15490415Y-2862072D01*
X12390480Y-16175420D02*
X12477334Y-16129460D01*
X4576241Y-1543123D02*
X4901631Y-1754338D01*
X16412434Y-6307765D02*
X16450145Y-6054013D01*
X16451514Y-16721366D02*
X16442284Y-16717844D01*
X15957653Y-9175239D02*
X15808482Y-8817158D01*
X14766779Y-1957116D02*
X14429323Y-2150356D01*
X16390367Y-16705837D02*
X16373156Y-16703330D01*
X6378818Y-15487228D02*
X6276205Y-15402035D01*
X16256907Y-16693493D02*
X16194519Y-16690718D01*
X5585244Y-15482506D02*
X5568592Y-15482281D01*
X4190992Y-1399722D02*
X4208650Y-1371207D01*
X12294335Y-16234468D02*
X12322026Y-16215938D01*
X3960959Y-13707160D02*
X3835479Y-13431139D01*
X12449741Y-16588070D02*
X12341428Y-16500481D01*
X4372182Y-3549192D02*
X4393372Y-3505137D01*
X7739902Y-16430953D02*
X7754946Y-16415504D01*
X14368947Y-15445977D02*
X14377596Y-15460279D01*
X3645650Y-10470025D02*
X3688451Y-10281221D01*
X16459436Y-16725108D02*
X16451514Y-16721366D01*
X5119178Y-16688749D02*
X6103652Y-16695217D01*
X14414702Y-15482623D02*
X14431354Y-15482398D01*
X7658517Y-16500364D02*
X7703159Y-16463885D01*
X3645095Y-4915297D02*
X3684533Y-4792660D01*
X15840920Y-1542912D02*
X15838255Y-1503175D01*
X15822508Y-1431448D02*
X15808953Y-1399841D01*
X3527327Y-12260036D02*
X3500872Y-11956964D01*
X3835479Y-13431139D02*
X3728948Y-13147124D01*
X4509530Y-2861953D02*
X4503977Y-2794914D01*
X5666180Y-15006814D02*
X5661468Y-15074768D01*
X3972964Y-9356198D02*
X4042293Y-9175120D01*
X3549759Y-11043706D02*
X3576065Y-10851286D01*
X16311496Y-10281340D02*
X16263675Y-10093778D01*
X16184977Y-7046527D02*
X16279017Y-6805439D01*
X4114649Y-3963163D02*
X4224183Y-3799776D01*
X13516585Y-15570334D02*
X13621128Y-15487345D01*
X4208650Y-1371207D02*
X4230648Y-1345975D01*
X7784547Y-16314707D02*
X7776210Y-16299859D01*
X7705611Y-16234350D02*
X7677920Y-16215820D01*
X5674735Y-14941532D02*
X5666180Y-15006814D01*
X12711837Y-16035052D02*
X12836191Y-15985652D01*
X9989397Y-19679473D02*
X3513011Y-19679457D01*
X15606573Y-3505256D02*
X15586705Y-3460203D01*
X4177437Y-1431329D02*
X4190992Y-1399722D01*
X16405789Y-16708537D02*
X16390367Y-16705837D01*
X3519975Y-16742254D02*
X3523629Y-16737583D01*
X15502099Y-3161755D02*
X15494912Y-3106125D01*
X16269823Y-4671567D02*
X16217977Y-4551957D01*
X3513586Y-16757763D02*
X3515050Y-16752339D01*
X16487770Y-16769520D02*
X16487286Y-16763567D01*
X4438831Y-2521750D02*
X4403924Y-2418182D01*
X4230648Y-1345975D02*
X4257221Y-1324219D01*
X16194519Y-16690718D02*
X16121897Y-16688542D01*
X3584257Y-5164134D02*
X3611704Y-5039180D01*
X3608108Y-10660053D02*
X3645650Y-10470025D01*
X16450145Y-6054013D02*
X16461387Y-5926528D01*
X5333909Y-15306974D02*
X5208877Y-15217237D01*
X4737609Y-16686377D02*
X5119178Y-16688749D01*
X5527848Y-15468846D02*
X5503417Y-15455145D01*
X15885296Y-3963282D02*
X15775762Y-3799895D01*
X16358153Y-12856526D02*
X16425503Y-12560399D01*
X3690116Y-16696792D02*
X3743040Y-16693376D01*
X8837081Y-3322814D02*
X9221388Y-3374291D01*
X16504420Y-11804890D02*
X16504440Y-11652476D01*
X4286271Y-16684856D02*
X4421608Y-16685034D01*
X7416191Y-16076942D02*
X7288109Y-16034934D01*
X7789544Y-16357581D02*
X7791068Y-16343443D01*
X16315413Y-4792779D02*
X16269823Y-4671567D01*
X3568296Y-16714417D02*
X3580429Y-16711317D01*
X3953683Y-4223294D02*
X4005584Y-4133206D01*
X14431354Y-15482398D02*
X14450429Y-15477927D01*
X4448525Y-3366474D02*
X4463696Y-3317660D01*
X4512378Y-2988543D02*
X4512289Y-2926453D01*
X7677920Y-16215820D02*
X7609466Y-16175302D01*
X4248762Y-1982170D02*
X4215543Y-1875386D01*
X15511467Y-3215488D02*
X15502099Y-3161755D01*
X6699138Y-15726985D02*
X6590059Y-15650351D01*
X16499080Y-11500001D02*
X16488287Y-11347626D01*
X15578339Y-16685152D02*
X15262338Y-16686494D01*
X16442284Y-16717844D02*
X16431651Y-16714535D01*
X16354297Y-10470144D02*
X16311496Y-10281340D01*
X16279017Y-6805439D02*
X16355113Y-6558713D01*
X4191463Y-8817039D02*
X4353054Y-8464511D01*
X6975155Y-2811703D02*
X7338843Y-2944872D01*
X4159025Y-1542792D02*
X4161690Y-1503056D01*
X12511079Y-16641178D02*
X12449741Y-16588070D01*
X4490749Y-2711647D02*
X4468403Y-2620082D01*
X16472620Y-12260154D02*
X16499075Y-11957082D01*
X8079714Y-3166519D02*
X8456448Y-3253268D01*
X15456768Y-14591751D02*
X15553136Y-14474461D01*
X5913772Y-2333192D02*
X6262395Y-2504998D01*
X12575648Y-16701826D02*
X12511079Y-16641178D01*
X16487286Y-16763567D02*
X16486361Y-16757881D01*
X4403924Y-2418182D02*
X4248762Y-1982170D01*
X4431666Y-3413906D02*
X4448525Y-3366474D01*
X7764293Y-16284524D02*
X7748652Y-16268577D01*
X15029276Y-15024780D02*
X15142345Y-14922265D01*
X12210402Y-16357698D02*
X12208877Y-16343561D01*
X3540512Y-16724990D02*
X3548434Y-16721249D01*
X4468403Y-2620082D02*
X4438831Y-2521750D01*
X3609580Y-16705720D02*
X3626791Y-16703213D01*
X5549516Y-15477809D02*
X5527848Y-15468846D01*
X16263675Y-10093778D02*
X16211074Y-9907477D01*
X4257221Y-1324219D02*
X4576241Y-1543123D01*
X3645886Y-16700892D02*
X3666962Y-16698754D01*
X3495507Y-11652357D02*
X3500867Y-11499882D01*
X15784402Y-1875505D02*
X15811609Y-1772671D01*
X3512177Y-16769402D02*
X3512661Y-16763449D01*
X9221388Y-3374291D02*
X9609145Y-3406836D01*
X3549801Y-6053894D02*
X3538559Y-5926409D01*
X5570621Y-2150237D02*
X5913772Y-2333192D01*
X16504440Y-11652476D02*
X16499080Y-11500001D01*
X13074609Y-15867271D02*
X13189123Y-15799586D01*
X4053543Y-7506002D02*
X3926118Y-7280441D01*
X16487909Y-16775745D02*
X16487770Y-16769520D01*
X12210494Y-16329311D02*
X12215398Y-16314825D01*
X4477054Y-3267334D02*
X4488479Y-3215369D01*
X3904844Y-4318129D02*
X3953683Y-4223294D01*
X14343100Y-15275128D02*
X14345981Y-15334115D01*
X7754946Y-16415504D02*
X7767579Y-16400567D01*
X15487567Y-2988662D02*
X15487656Y-2926572D01*
X12477334Y-16129460D02*
X12583754Y-16077059D01*
X15568279Y-3414025D02*
X15551420Y-3366593D01*
X14377596Y-15460279D02*
X14387992Y-15471318D01*
X15586705Y-3460203D02*
X15568279Y-3414025D01*
X7163755Y-15985535D02*
X7042906Y-15929392D01*
X3907458Y-9538609D02*
X3972964Y-9356198D01*
X15423704Y-1543242D02*
X15098314Y-1754457D01*
X14554353Y-15412664D02*
X14588086Y-15383276D01*
X4042293Y-9175120D02*
X4191463Y-8817039D01*
X16309831Y-16696909D02*
X16256907Y-16693493D01*
X14400304Y-15478848D02*
X14414702Y-15482623D01*
X4354750Y-14353763D02*
X4267053Y-14230054D01*
X4267053Y-14230054D02*
X4104960Y-13973896D01*
X14361875Y-15428657D02*
X14368947Y-15445977D01*
X12260044Y-16431070D02*
X12244999Y-16415622D01*
X16463409Y-5543763D02*
X16453168Y-5416662D01*
X3512038Y-16775628D02*
X3512177Y-16769402D01*
X3666962Y-16698754D02*
X3690116Y-16696792D01*
X5087779Y-15123079D02*
X4970669Y-15024662D01*
X3528206Y-16733152D02*
X3533801Y-16728956D01*
X12322026Y-16215938D02*
X12390480Y-16175420D01*
X3594159Y-16708419D02*
X3609580Y-16705720D01*
X6075873Y-15227629D02*
X5688486Y-14880889D01*
X3562650Y-5289981D02*
X3584257Y-5164134D01*
X7550204Y-16587953D02*
X7658517Y-16500364D01*
X5659243Y-15143430D02*
X5656846Y-15275010D01*
X3532531Y-5798754D02*
X3531822Y-5671107D01*
X14666037Y-15307092D02*
X14791068Y-15217355D01*
X16026982Y-9356316D02*
X15957653Y-9175239D01*
X15646052Y-7926159D02*
X15803533Y-7721793D01*
X16466146Y-16729074D02*
X16459436Y-16725108D01*
X3536537Y-5543644D02*
X3546778Y-5416543D01*
X4057074Y-16685699D02*
X4165016Y-16685063D01*
X4104960Y-13973896D02*
X3960959Y-13707160D01*
X4169030Y-1675198D02*
X4159518Y-1584856D01*
X4463696Y-3317660D02*
X4477054Y-3267334D01*
X15942873Y-16685816D02*
X15834931Y-16685181D01*
X10778556Y-3374410D02*
X10390799Y-3406955D01*
X6276205Y-15402035D02*
X6075873Y-15227629D01*
X3511659Y-11347507D02*
X3527939Y-11195395D01*
X3728948Y-13147124D02*
X3641793Y-12856408D01*
X6483361Y-15570216D02*
X6378818Y-15487228D01*
X9609145Y-3406836D02*
X10000128Y-3419584D01*
X5411860Y-15383158D02*
X5333909Y-15306974D01*
X5476055Y-15436460D02*
X5445592Y-15412547D01*
X4505033Y-3106006D02*
X4509918Y-3048351D01*
X16164467Y-13431258D02*
X16270998Y-13147243D01*
X13409886Y-15650469D02*
X13516585Y-15570334D01*
X5611953Y-15471201D02*
X5599641Y-15478731D01*
X3587513Y-6307646D02*
X3549801Y-6053894D01*
X4512289Y-2926453D02*
X4509530Y-2861953D01*
X7522612Y-16129343D02*
X7416191Y-16076942D01*
X7777653Y-16386018D02*
X7785023Y-16371731D01*
X12232367Y-16400685D02*
X12222293Y-16386135D01*
X3517147Y-16747171D02*
X3519975Y-16742254D01*
X16217977Y-4551957D02*
X16159772Y-4434125D01*
X15522891Y-3267453D02*
X15511467Y-3215488D01*
X3512661Y-16763449D02*
X3513586Y-16757763D01*
X15262338Y-16686494D02*
X14880769Y-16688866D01*
X16453168Y-5416662D02*
X16437296Y-5290100D01*
X3684533Y-4792660D02*
X3730122Y-4671448D01*
X7488867Y-16641060D02*
X7550204Y-16587953D01*
X16486936Y-16803479D02*
X16487909Y-16775745D01*
X5445592Y-15412547D02*
X5411860Y-15383158D01*
X7767579Y-16400567D02*
X7777653Y-16386018D01*
X15551420Y-3366593D02*
X15536250Y-3317779D01*
X5599641Y-15478731D02*
X5585244Y-15482506D01*
X4161690Y-1503056D02*
X4167748Y-1465838D01*
X13281071Y-16698748D02*
X12575648Y-16701826D01*
X4276672Y-3718010D02*
X4326332Y-3634824D01*
X7288109Y-16034934D02*
X7163755Y-15985535D01*
X16159772Y-4434125D02*
X16095102Y-4318248D01*
X4005584Y-4133206D02*
X4059567Y-4046839D01*
X14340702Y-15143547D02*
X14343100Y-15275128D01*
X16468123Y-5671226D02*
X16463409Y-5543763D01*
X7703159Y-16463885D02*
X7739902Y-16430953D01*
X12208877Y-16343561D02*
X12210494Y-16329311D01*
X5653965Y-15333998D02*
X5648158Y-15385829D01*
X15509196Y-2711766D02*
X15531541Y-2620201D01*
X15830915Y-1675317D02*
X15840427Y-1584975D01*
X4215543Y-1875386D02*
X4188336Y-1772552D01*
X7785023Y-16371731D02*
X7789544Y-16357581D01*
X4165016Y-16685063D02*
X4286271Y-16684856D01*
X15894986Y-13974014D02*
X16038986Y-13707279D01*
X16354061Y-16701010D02*
X16332985Y-16698871D01*
X13383681Y-2664909D02*
X13024790Y-2811821D01*
X3538559Y-5926409D02*
X3532531Y-5798754D01*
X15142345Y-14922265D02*
X15251319Y-14815815D01*
X15251319Y-14815815D02*
X15356144Y-14705590D01*
X9989397Y-19679473D02*
X16486936Y-19679574D01*
X14086172Y-2333311D02*
X13737550Y-2505117D01*
X15553136Y-14474461D02*
X15645196Y-14353881D01*
X3515050Y-16752339D02*
X3517147Y-16747171D01*
X4224183Y-3799776D02*
X4276672Y-3718010D01*
X14311460Y-14881007D02*
X14325211Y-14941650D01*
X15811609Y-1772671D02*
X15830915Y-1675317D01*
X3548434Y-16721249D02*
X3557663Y-16717726D01*
X4643801Y-14705472D02*
X4543178Y-14591633D01*
D11*
X13059000Y-12174000D02*
X13111000Y-12226000D01*
X13111000Y-12174000D02*
X13059000Y-12226000D01*
X13809000Y-12174000D02*
X13861000Y-12226000D01*
X13861000Y-12174000D02*
X13809000Y-12226000D01*
X13825000Y-12226000D02*
X13845000Y-12226000D01*
X13845000Y-12226000D02*
G75*
G03*
X13845000Y-12174000I0J26000D01*
G01*
X13845000Y-12174000D02*
X13825000Y-12174000D01*
X13825000Y-12174000D02*
G75*
G03*
X13825000Y-12226000I0J-26000D01*
G01*
D12*
X4057600Y-19200000D02*
G75*
G03*
X3942400Y-19200000I-57600J0D01*
G01*
X3942400Y-19200000D02*
G75*
G03*
X4057600Y-19200000I57600J0D01*
G01*
X7057600Y-5000000D02*
G75*
G03*
X6942400Y-5000000I-57600J0D01*
G01*
X6942400Y-5000000D02*
G75*
G03*
X7057600Y-5000000I57600J0D01*
G01*
X13057600Y-5000000D02*
G75*
G03*
X12942400Y-5000000I-57600J0D01*
G01*
X12942400Y-5000000D02*
G75*
G03*
X13057600Y-5000000I57600J0D01*
G01*
X16057600Y-19200000D02*
G75*
G03*
X15942400Y-19200000I-57600J0D01*
G01*
X15942400Y-19200000D02*
G75*
G03*
X16057600Y-19200000I57600J0D01*
G01*
D13*
X6850000Y-17475000D02*
X6850000Y-17600000D01*
X6787500Y-17537500D02*
X6912500Y-17537500D01*
D11*
X6725000Y-17600000D02*
X6975000Y-17600000D01*
X6975000Y-17600000D02*
G75*
G03*
X6975000Y-17475000I0J62500D01*
G01*
X6975000Y-17475000D02*
X6725000Y-17475000D01*
X6725000Y-17475000D02*
G75*
G03*
X6725000Y-17600000I0J-62500D01*
G01*
D13*
X6850000Y-18700000D02*
X6850000Y-18825000D01*
X6787500Y-18762500D02*
X6912500Y-18762500D01*
D11*
X6725000Y-18825000D02*
X6975000Y-18825000D01*
X6975000Y-18825000D02*
G75*
G03*
X6975000Y-18700000I0J62500D01*
G01*
X6975000Y-18700000D02*
X6725000Y-18700000D01*
X6725000Y-18700000D02*
G75*
G03*
X6725000Y-18825000I0J-62500D01*
G01*
D13*
X7600000Y-17475000D02*
X7600000Y-17600000D01*
X7537500Y-17537500D02*
X7662500Y-17537500D01*
D11*
X7475000Y-17600000D02*
X7725000Y-17600000D01*
X7725000Y-17600000D02*
G75*
G03*
X7725000Y-17475000I0J62500D01*
G01*
X7725000Y-17475000D02*
X7475000Y-17475000D01*
X7475000Y-17475000D02*
G75*
G03*
X7475000Y-17600000I0J-62500D01*
G01*
D13*
X7600000Y-18700000D02*
X7600000Y-18825000D01*
X7537500Y-18762500D02*
X7662500Y-18762500D01*
D11*
X7475000Y-18825000D02*
X7725000Y-18825000D01*
X7725000Y-18825000D02*
G75*
G03*
X7725000Y-18700000I0J62500D01*
G01*
X7725000Y-18700000D02*
X7475000Y-18700000D01*
X7475000Y-18700000D02*
G75*
G03*
X7475000Y-18825000I0J-62500D01*
G01*
D13*
X8350000Y-17475000D02*
X8350000Y-17600000D01*
X8287500Y-17537500D02*
X8412500Y-17537500D01*
D11*
X8225000Y-17600000D02*
X8475000Y-17600000D01*
X8475000Y-17600000D02*
G75*
G03*
X8475000Y-17475000I0J62500D01*
G01*
X8475000Y-17475000D02*
X8225000Y-17475000D01*
X8225000Y-17475000D02*
G75*
G03*
X8225000Y-17600000I0J-62500D01*
G01*
D13*
X8350000Y-18700000D02*
X8350000Y-18825000D01*
X8287500Y-18762500D02*
X8412500Y-18762500D01*
D11*
X8225000Y-18825000D02*
X8475000Y-18825000D01*
X8475000Y-18825000D02*
G75*
G03*
X8475000Y-18700000I0J62500D01*
G01*
X8475000Y-18700000D02*
X8225000Y-18700000D01*
X8225000Y-18700000D02*
G75*
G03*
X8225000Y-18825000I0J-62500D01*
G01*
D13*
X11650000Y-17475000D02*
X11650000Y-17600000D01*
X11587500Y-17537500D02*
X11712500Y-17537500D01*
D11*
X11525000Y-17600000D02*
X11775000Y-17600000D01*
X11775000Y-17600000D02*
G75*
G03*
X11775000Y-17475000I0J62500D01*
G01*
X11775000Y-17475000D02*
X11525000Y-17475000D01*
X11525000Y-17475000D02*
G75*
G03*
X11525000Y-17600000I0J-62500D01*
G01*
D13*
X11650000Y-18700000D02*
X11650000Y-18825000D01*
X11587500Y-18762500D02*
X11712500Y-18762500D01*
D11*
X11525000Y-18825000D02*
X11775000Y-18825000D01*
X11775000Y-18825000D02*
G75*
G03*
X11775000Y-18700000I0J62500D01*
G01*
X11775000Y-18700000D02*
X11525000Y-18700000D01*
X11525000Y-18700000D02*
G75*
G03*
X11525000Y-18825000I0J-62500D01*
G01*
D13*
X12400000Y-17475000D02*
X12400000Y-17600000D01*
X12337500Y-17537500D02*
X12462500Y-17537500D01*
D11*
X12275000Y-17600000D02*
X12525000Y-17600000D01*
X12525000Y-17600000D02*
G75*
G03*
X12525000Y-17475000I0J62500D01*
G01*
X12525000Y-17475000D02*
X12275000Y-17475000D01*
X12275000Y-17475000D02*
G75*
G03*
X12275000Y-17600000I0J-62500D01*
G01*
D13*
X12400000Y-18700000D02*
X12400000Y-18825000D01*
X12337500Y-18762500D02*
X12462500Y-18762500D01*
D11*
X12275000Y-18825000D02*
X12525000Y-18825000D01*
X12525000Y-18825000D02*
G75*
G03*
X12525000Y-18700000I0J62500D01*
G01*
X12525000Y-18700000D02*
X12275000Y-18700000D01*
X12275000Y-18700000D02*
G75*
G03*
X12275000Y-18825000I0J-62500D01*
G01*
D13*
X13150000Y-17475000D02*
X13150000Y-17600000D01*
X13087500Y-17537500D02*
X13212500Y-17537500D01*
D11*
X13025000Y-17600000D02*
X13275000Y-17600000D01*
X13275000Y-17600000D02*
G75*
G03*
X13275000Y-17475000I0J62500D01*
G01*
X13275000Y-17475000D02*
X13025000Y-17475000D01*
X13025000Y-17475000D02*
G75*
G03*
X13025000Y-17600000I0J-62500D01*
G01*
D13*
X13150000Y-18700000D02*
X13150000Y-18825000D01*
X13087500Y-18762500D02*
X13212500Y-18762500D01*
D11*
X13025000Y-18825000D02*
X13275000Y-18825000D01*
X13275000Y-18825000D02*
G75*
G03*
X13275000Y-18700000I0J62500D01*
G01*
X13275000Y-18700000D02*
X13025000Y-18700000D01*
X13025000Y-18700000D02*
G75*
G03*
X13025000Y-18825000I0J-62500D01*
G01*
D14*
X13970498Y-9539498D02*
X13970498Y-9440502D01*
X13871502Y-9440502D01*
X13871502Y-9539498D01*
X13970498Y-9539498D01*
X13970498Y-10539498D02*
X13970498Y-10440502D01*
X13871502Y-10440502D01*
X13871502Y-10539498D01*
X13970498Y-10539498D01*
D10*
X3746283Y-20001058D02*
X3746283Y-19801058D01*
X3746283Y-19801058D02*
X3793902Y-19801058D01*
X3793902Y-19801058D02*
X3822474Y-19810582D01*
X3822474Y-19810582D02*
X3841522Y-19829629D01*
X3841522Y-19829629D02*
X3851045Y-19848677D01*
X3851045Y-19848677D02*
X3860569Y-19886772D01*
X3860569Y-19886772D02*
X3860569Y-19915344D01*
X3860569Y-19915344D02*
X3851045Y-19953439D01*
X3851045Y-19953439D02*
X3841522Y-19972487D01*
X3841522Y-19972487D02*
X3822474Y-19991534D01*
X3822474Y-19991534D02*
X3793902Y-20001058D01*
X3793902Y-20001058D02*
X3746283Y-20001058D01*
X3946283Y-20001058D02*
X3946283Y-19867725D01*
X3946283Y-19905820D02*
X3955807Y-19886772D01*
X3955807Y-19886772D02*
X3965331Y-19877248D01*
X3965331Y-19877248D02*
X3984379Y-19867725D01*
X3984379Y-19867725D02*
X4003426Y-19867725D01*
X4070093Y-20001058D02*
X4070093Y-19867725D01*
X4070093Y-19801058D02*
X4060569Y-19810582D01*
X4060569Y-19810582D02*
X4070093Y-19820106D01*
X4070093Y-19820106D02*
X4079617Y-19810582D01*
X4079617Y-19810582D02*
X4070093Y-19801058D01*
X4070093Y-19801058D02*
X4070093Y-19820106D01*
X4193902Y-20001058D02*
X4174855Y-19991534D01*
X4174855Y-19991534D02*
X4165331Y-19972487D01*
X4165331Y-19972487D02*
X4165331Y-19801058D01*
X4298664Y-20001058D02*
X4279617Y-19991534D01*
X4279617Y-19991534D02*
X4270093Y-19972487D01*
X4270093Y-19972487D02*
X4270093Y-19801058D01*
X4527236Y-20001058D02*
X4527236Y-19801058D01*
X4527236Y-19801058D02*
X4593903Y-19943915D01*
X4593903Y-19943915D02*
X4660569Y-19801058D01*
X4660569Y-19801058D02*
X4660569Y-20001058D01*
X4841522Y-20001058D02*
X4841522Y-19896296D01*
X4841522Y-19896296D02*
X4831998Y-19877248D01*
X4831998Y-19877248D02*
X4812950Y-19867725D01*
X4812950Y-19867725D02*
X4774855Y-19867725D01*
X4774855Y-19867725D02*
X4755807Y-19877248D01*
X4841522Y-19991534D02*
X4822474Y-20001058D01*
X4822474Y-20001058D02*
X4774855Y-20001058D01*
X4774855Y-20001058D02*
X4755807Y-19991534D01*
X4755807Y-19991534D02*
X4746284Y-19972487D01*
X4746284Y-19972487D02*
X4746284Y-19953439D01*
X4746284Y-19953439D02*
X4755807Y-19934391D01*
X4755807Y-19934391D02*
X4774855Y-19924868D01*
X4774855Y-19924868D02*
X4822474Y-19924868D01*
X4822474Y-19924868D02*
X4841522Y-19915344D01*
X4936760Y-19867725D02*
X4936760Y-20067725D01*
X4936760Y-19877248D02*
X4955807Y-19867725D01*
X4955807Y-19867725D02*
X4993903Y-19867725D01*
X4993903Y-19867725D02*
X5012950Y-19877248D01*
X5012950Y-19877248D02*
X5022474Y-19886772D01*
X5022474Y-19886772D02*
X5031998Y-19905820D01*
X5031998Y-19905820D02*
X5031998Y-19962963D01*
X5031998Y-19962963D02*
X5022474Y-19982010D01*
X5022474Y-19982010D02*
X5012950Y-19991534D01*
X5012950Y-19991534D02*
X4993903Y-20001058D01*
X4993903Y-20001058D02*
X4955807Y-20001058D01*
X4955807Y-20001058D02*
X4936760Y-19991534D01*
X5117712Y-19982010D02*
X5127236Y-19991534D01*
X5127236Y-19991534D02*
X5117712Y-20001058D01*
X5117712Y-20001058D02*
X5108188Y-19991534D01*
X5108188Y-19991534D02*
X5117712Y-19982010D01*
X5117712Y-19982010D02*
X5117712Y-20001058D01*
X5117712Y-19877248D02*
X5127236Y-19886772D01*
X5127236Y-19886772D02*
X5117712Y-19896296D01*
X5117712Y-19896296D02*
X5108188Y-19886772D01*
X5108188Y-19886772D02*
X5117712Y-19877248D01*
X5117712Y-19877248D02*
X5117712Y-19896296D01*
D11*
X3433507Y-20303574D02*
X3485507Y-20355574D01*
X3485507Y-20303574D02*
X3433507Y-20355574D01*
D10*
X3784379Y-20221058D02*
X3803426Y-20221058D01*
X3803426Y-20221058D02*
X3822474Y-20230582D01*
X3822474Y-20230582D02*
X3831998Y-20240106D01*
X3831998Y-20240106D02*
X3841522Y-20259153D01*
X3841522Y-20259153D02*
X3851045Y-20297248D01*
X3851045Y-20297248D02*
X3851045Y-20344868D01*
X3851045Y-20344868D02*
X3841522Y-20382963D01*
X3841522Y-20382963D02*
X3831998Y-20402010D01*
X3831998Y-20402010D02*
X3822474Y-20411534D01*
X3822474Y-20411534D02*
X3803426Y-20421058D01*
X3803426Y-20421058D02*
X3784379Y-20421058D01*
X3784379Y-20421058D02*
X3765331Y-20411534D01*
X3765331Y-20411534D02*
X3755807Y-20402010D01*
X3755807Y-20402010D02*
X3746283Y-20382963D01*
X3746283Y-20382963D02*
X3736760Y-20344868D01*
X3736760Y-20344868D02*
X3736760Y-20297248D01*
X3736760Y-20297248D02*
X3746283Y-20259153D01*
X3746283Y-20259153D02*
X3755807Y-20240106D01*
X3755807Y-20240106D02*
X3765331Y-20230582D01*
X3765331Y-20230582D02*
X3784379Y-20221058D01*
X3936760Y-20402010D02*
X3946283Y-20411534D01*
X3946283Y-20411534D02*
X3936760Y-20421058D01*
X3936760Y-20421058D02*
X3927236Y-20411534D01*
X3927236Y-20411534D02*
X3936760Y-20402010D01*
X3936760Y-20402010D02*
X3936760Y-20421058D01*
X4127236Y-20221058D02*
X4031998Y-20221058D01*
X4031998Y-20221058D02*
X4022474Y-20316296D01*
X4022474Y-20316296D02*
X4031998Y-20306772D01*
X4031998Y-20306772D02*
X4051045Y-20297248D01*
X4051045Y-20297248D02*
X4098664Y-20297248D01*
X4098664Y-20297248D02*
X4117712Y-20306772D01*
X4117712Y-20306772D02*
X4127236Y-20316296D01*
X4127236Y-20316296D02*
X4136760Y-20335344D01*
X4136760Y-20335344D02*
X4136760Y-20382963D01*
X4136760Y-20382963D02*
X4127236Y-20402010D01*
X4127236Y-20402010D02*
X4117712Y-20411534D01*
X4117712Y-20411534D02*
X4098664Y-20421058D01*
X4098664Y-20421058D02*
X4051045Y-20421058D01*
X4051045Y-20421058D02*
X4031998Y-20411534D01*
X4031998Y-20411534D02*
X4022474Y-20402010D01*
X4212950Y-20240106D02*
X4222474Y-20230582D01*
X4222474Y-20230582D02*
X4241522Y-20221058D01*
X4241522Y-20221058D02*
X4289141Y-20221058D01*
X4289141Y-20221058D02*
X4308188Y-20230582D01*
X4308188Y-20230582D02*
X4317712Y-20240106D01*
X4317712Y-20240106D02*
X4327236Y-20259153D01*
X4327236Y-20259153D02*
X4327236Y-20278201D01*
X4327236Y-20278201D02*
X4317712Y-20306772D01*
X4317712Y-20306772D02*
X4203426Y-20421058D01*
X4203426Y-20421058D02*
X4327236Y-20421058D01*
X4451045Y-20221058D02*
X4470093Y-20221058D01*
X4470093Y-20221058D02*
X4489141Y-20230582D01*
X4489141Y-20230582D02*
X4498665Y-20240106D01*
X4498665Y-20240106D02*
X4508188Y-20259153D01*
X4508188Y-20259153D02*
X4517712Y-20297248D01*
X4517712Y-20297248D02*
X4517712Y-20344868D01*
X4517712Y-20344868D02*
X4508188Y-20382963D01*
X4508188Y-20382963D02*
X4498665Y-20402010D01*
X4498665Y-20402010D02*
X4489141Y-20411534D01*
X4489141Y-20411534D02*
X4470093Y-20421058D01*
X4470093Y-20421058D02*
X4451045Y-20421058D01*
X4451045Y-20421058D02*
X4431998Y-20411534D01*
X4431998Y-20411534D02*
X4422474Y-20402010D01*
X4422474Y-20402010D02*
X4412950Y-20382963D01*
X4412950Y-20382963D02*
X4403426Y-20344868D01*
X4403426Y-20344868D02*
X4403426Y-20297248D01*
X4403426Y-20297248D02*
X4412950Y-20259153D01*
X4412950Y-20259153D02*
X4422474Y-20240106D01*
X4422474Y-20240106D02*
X4431998Y-20230582D01*
X4431998Y-20230582D02*
X4451045Y-20221058D01*
X4603426Y-20421058D02*
X4603426Y-20287725D01*
X4603426Y-20306772D02*
X4612950Y-20297248D01*
X4612950Y-20297248D02*
X4631998Y-20287725D01*
X4631998Y-20287725D02*
X4660569Y-20287725D01*
X4660569Y-20287725D02*
X4679617Y-20297248D01*
X4679617Y-20297248D02*
X4689141Y-20316296D01*
X4689141Y-20316296D02*
X4689141Y-20421058D01*
X4689141Y-20316296D02*
X4698665Y-20297248D01*
X4698665Y-20297248D02*
X4717712Y-20287725D01*
X4717712Y-20287725D02*
X4746284Y-20287725D01*
X4746284Y-20287725D02*
X4765331Y-20297248D01*
X4765331Y-20297248D02*
X4774855Y-20316296D01*
X4774855Y-20316296D02*
X4774855Y-20421058D01*
X4870093Y-20421058D02*
X4870093Y-20287725D01*
X4870093Y-20306772D02*
X4879617Y-20297248D01*
X4879617Y-20297248D02*
X4898665Y-20287725D01*
X4898665Y-20287725D02*
X4927236Y-20287725D01*
X4927236Y-20287725D02*
X4946284Y-20297248D01*
X4946284Y-20297248D02*
X4955807Y-20316296D01*
X4955807Y-20316296D02*
X4955807Y-20421058D01*
X4955807Y-20316296D02*
X4965331Y-20297248D01*
X4965331Y-20297248D02*
X4984379Y-20287725D01*
X4984379Y-20287725D02*
X5012950Y-20287725D01*
X5012950Y-20287725D02*
X5031998Y-20297248D01*
X5031998Y-20297248D02*
X5041522Y-20316296D01*
X5041522Y-20316296D02*
X5041522Y-20421058D01*
X5431998Y-20211534D02*
X5260569Y-20468677D01*
X5689141Y-20221058D02*
X5708188Y-20221058D01*
X5708188Y-20221058D02*
X5727236Y-20230582D01*
X5727236Y-20230582D02*
X5736760Y-20240106D01*
X5736760Y-20240106D02*
X5746284Y-20259153D01*
X5746284Y-20259153D02*
X5755807Y-20297248D01*
X5755807Y-20297248D02*
X5755807Y-20344868D01*
X5755807Y-20344868D02*
X5746284Y-20382963D01*
X5746284Y-20382963D02*
X5736760Y-20402010D01*
X5736760Y-20402010D02*
X5727236Y-20411534D01*
X5727236Y-20411534D02*
X5708188Y-20421058D01*
X5708188Y-20421058D02*
X5689141Y-20421058D01*
X5689141Y-20421058D02*
X5670093Y-20411534D01*
X5670093Y-20411534D02*
X5660569Y-20402010D01*
X5660569Y-20402010D02*
X5651046Y-20382963D01*
X5651046Y-20382963D02*
X5641522Y-20344868D01*
X5641522Y-20344868D02*
X5641522Y-20297248D01*
X5641522Y-20297248D02*
X5651046Y-20259153D01*
X5651046Y-20259153D02*
X5660569Y-20240106D01*
X5660569Y-20240106D02*
X5670093Y-20230582D01*
X5670093Y-20230582D02*
X5689141Y-20221058D01*
X5841522Y-20402010D02*
X5851046Y-20411534D01*
X5851046Y-20411534D02*
X5841522Y-20421058D01*
X5841522Y-20421058D02*
X5831998Y-20411534D01*
X5831998Y-20411534D02*
X5841522Y-20402010D01*
X5841522Y-20402010D02*
X5841522Y-20421058D01*
X5974855Y-20221058D02*
X5993903Y-20221058D01*
X5993903Y-20221058D02*
X6012950Y-20230582D01*
X6012950Y-20230582D02*
X6022474Y-20240106D01*
X6022474Y-20240106D02*
X6031998Y-20259153D01*
X6031998Y-20259153D02*
X6041522Y-20297248D01*
X6041522Y-20297248D02*
X6041522Y-20344868D01*
X6041522Y-20344868D02*
X6031998Y-20382963D01*
X6031998Y-20382963D02*
X6022474Y-20402010D01*
X6022474Y-20402010D02*
X6012950Y-20411534D01*
X6012950Y-20411534D02*
X5993903Y-20421058D01*
X5993903Y-20421058D02*
X5974855Y-20421058D01*
X5974855Y-20421058D02*
X5955807Y-20411534D01*
X5955807Y-20411534D02*
X5946284Y-20402010D01*
X5946284Y-20402010D02*
X5936760Y-20382963D01*
X5936760Y-20382963D02*
X5927236Y-20344868D01*
X5927236Y-20344868D02*
X5927236Y-20297248D01*
X5927236Y-20297248D02*
X5936760Y-20259153D01*
X5936760Y-20259153D02*
X5946284Y-20240106D01*
X5946284Y-20240106D02*
X5955807Y-20230582D01*
X5955807Y-20230582D02*
X5974855Y-20221058D01*
X6117712Y-20240106D02*
X6127236Y-20230582D01*
X6127236Y-20230582D02*
X6146284Y-20221058D01*
X6146284Y-20221058D02*
X6193903Y-20221058D01*
X6193903Y-20221058D02*
X6212950Y-20230582D01*
X6212950Y-20230582D02*
X6222474Y-20240106D01*
X6222474Y-20240106D02*
X6231998Y-20259153D01*
X6231998Y-20259153D02*
X6231998Y-20278201D01*
X6231998Y-20278201D02*
X6222474Y-20306772D01*
X6222474Y-20306772D02*
X6108188Y-20421058D01*
X6108188Y-20421058D02*
X6231998Y-20421058D01*
X6355807Y-20221058D02*
X6374855Y-20221058D01*
X6374855Y-20221058D02*
X6393903Y-20230582D01*
X6393903Y-20230582D02*
X6403427Y-20240106D01*
X6403427Y-20240106D02*
X6412950Y-20259153D01*
X6412950Y-20259153D02*
X6422474Y-20297248D01*
X6422474Y-20297248D02*
X6422474Y-20344868D01*
X6422474Y-20344868D02*
X6412950Y-20382963D01*
X6412950Y-20382963D02*
X6403427Y-20402010D01*
X6403427Y-20402010D02*
X6393903Y-20411534D01*
X6393903Y-20411534D02*
X6374855Y-20421058D01*
X6374855Y-20421058D02*
X6355807Y-20421058D01*
X6355807Y-20421058D02*
X6336760Y-20411534D01*
X6336760Y-20411534D02*
X6327236Y-20402010D01*
X6327236Y-20402010D02*
X6317712Y-20382963D01*
X6317712Y-20382963D02*
X6308188Y-20344868D01*
X6308188Y-20344868D02*
X6308188Y-20297248D01*
X6308188Y-20297248D02*
X6317712Y-20259153D01*
X6317712Y-20259153D02*
X6327236Y-20240106D01*
X6327236Y-20240106D02*
X6336760Y-20230582D01*
X6336760Y-20230582D02*
X6355807Y-20221058D01*
X6603427Y-20221058D02*
X6508188Y-20221058D01*
X6508188Y-20221058D02*
X6498665Y-20316296D01*
X6498665Y-20316296D02*
X6508188Y-20306772D01*
X6508188Y-20306772D02*
X6527236Y-20297248D01*
X6527236Y-20297248D02*
X6574855Y-20297248D01*
X6574855Y-20297248D02*
X6593903Y-20306772D01*
X6593903Y-20306772D02*
X6603427Y-20316296D01*
X6603427Y-20316296D02*
X6612950Y-20335344D01*
X6612950Y-20335344D02*
X6612950Y-20382963D01*
X6612950Y-20382963D02*
X6603427Y-20402010D01*
X6603427Y-20402010D02*
X6593903Y-20411534D01*
X6593903Y-20411534D02*
X6574855Y-20421058D01*
X6574855Y-20421058D02*
X6527236Y-20421058D01*
X6527236Y-20421058D02*
X6508188Y-20411534D01*
X6508188Y-20411534D02*
X6498665Y-20402010D01*
X6689141Y-20221058D02*
X6689141Y-20259153D01*
X6765331Y-20221058D02*
X6765331Y-20259153D01*
X7060570Y-20497248D02*
X7051046Y-20487725D01*
X7051046Y-20487725D02*
X7031998Y-20459153D01*
X7031998Y-20459153D02*
X7022474Y-20440106D01*
X7022474Y-20440106D02*
X7012950Y-20411534D01*
X7012950Y-20411534D02*
X7003427Y-20363915D01*
X7003427Y-20363915D02*
X7003427Y-20325820D01*
X7003427Y-20325820D02*
X7012950Y-20278201D01*
X7012950Y-20278201D02*
X7022474Y-20249629D01*
X7022474Y-20249629D02*
X7031998Y-20230582D01*
X7031998Y-20230582D02*
X7051046Y-20202010D01*
X7051046Y-20202010D02*
X7060570Y-20192487D01*
X7241522Y-20421058D02*
X7127236Y-20421058D01*
X7184379Y-20421058D02*
X7184379Y-20221058D01*
X7184379Y-20221058D02*
X7165331Y-20249629D01*
X7165331Y-20249629D02*
X7146284Y-20268677D01*
X7146284Y-20268677D02*
X7127236Y-20278201D01*
X7479617Y-20421058D02*
X7479617Y-20221058D01*
X7565331Y-20421058D02*
X7565331Y-20316296D01*
X7565331Y-20316296D02*
X7555808Y-20297248D01*
X7555808Y-20297248D02*
X7536760Y-20287725D01*
X7536760Y-20287725D02*
X7508189Y-20287725D01*
X7508189Y-20287725D02*
X7489141Y-20297248D01*
X7489141Y-20297248D02*
X7479617Y-20306772D01*
X7689141Y-20421058D02*
X7670093Y-20411534D01*
X7670093Y-20411534D02*
X7660570Y-20402010D01*
X7660570Y-20402010D02*
X7651046Y-20382963D01*
X7651046Y-20382963D02*
X7651046Y-20325820D01*
X7651046Y-20325820D02*
X7660570Y-20306772D01*
X7660570Y-20306772D02*
X7670093Y-20297248D01*
X7670093Y-20297248D02*
X7689141Y-20287725D01*
X7689141Y-20287725D02*
X7717712Y-20287725D01*
X7717712Y-20287725D02*
X7736760Y-20297248D01*
X7736760Y-20297248D02*
X7746284Y-20306772D01*
X7746284Y-20306772D02*
X7755808Y-20325820D01*
X7755808Y-20325820D02*
X7755808Y-20382963D01*
X7755808Y-20382963D02*
X7746284Y-20402010D01*
X7746284Y-20402010D02*
X7736760Y-20411534D01*
X7736760Y-20411534D02*
X7717712Y-20421058D01*
X7717712Y-20421058D02*
X7689141Y-20421058D01*
X7870093Y-20421058D02*
X7851046Y-20411534D01*
X7851046Y-20411534D02*
X7841522Y-20392487D01*
X7841522Y-20392487D02*
X7841522Y-20221058D01*
X8022474Y-20411534D02*
X8003427Y-20421058D01*
X8003427Y-20421058D02*
X7965331Y-20421058D01*
X7965331Y-20421058D02*
X7946284Y-20411534D01*
X7946284Y-20411534D02*
X7936760Y-20392487D01*
X7936760Y-20392487D02*
X7936760Y-20316296D01*
X7936760Y-20316296D02*
X7946284Y-20297248D01*
X7946284Y-20297248D02*
X7965331Y-20287725D01*
X7965331Y-20287725D02*
X8003427Y-20287725D01*
X8003427Y-20287725D02*
X8022474Y-20297248D01*
X8022474Y-20297248D02*
X8031998Y-20316296D01*
X8031998Y-20316296D02*
X8031998Y-20335344D01*
X8031998Y-20335344D02*
X7936760Y-20354391D01*
X8108189Y-20411534D02*
X8127236Y-20421058D01*
X8127236Y-20421058D02*
X8165331Y-20421058D01*
X8165331Y-20421058D02*
X8184379Y-20411534D01*
X8184379Y-20411534D02*
X8193903Y-20392487D01*
X8193903Y-20392487D02*
X8193903Y-20382963D01*
X8193903Y-20382963D02*
X8184379Y-20363915D01*
X8184379Y-20363915D02*
X8165331Y-20354391D01*
X8165331Y-20354391D02*
X8136760Y-20354391D01*
X8136760Y-20354391D02*
X8117712Y-20344868D01*
X8117712Y-20344868D02*
X8108189Y-20325820D01*
X8108189Y-20325820D02*
X8108189Y-20316296D01*
X8108189Y-20316296D02*
X8117712Y-20297248D01*
X8117712Y-20297248D02*
X8136760Y-20287725D01*
X8136760Y-20287725D02*
X8165331Y-20287725D01*
X8165331Y-20287725D02*
X8184379Y-20297248D01*
X8431998Y-20344868D02*
X8584379Y-20344868D01*
X8508189Y-20421058D02*
X8508189Y-20268677D01*
X8936760Y-20421058D02*
X8822475Y-20421058D01*
X8879617Y-20421058D02*
X8879617Y-20221058D01*
X8879617Y-20221058D02*
X8860570Y-20249629D01*
X8860570Y-20249629D02*
X8841522Y-20268677D01*
X8841522Y-20268677D02*
X8822475Y-20278201D01*
X9165332Y-20411534D02*
X9184379Y-20421058D01*
X9184379Y-20421058D02*
X9222475Y-20421058D01*
X9222475Y-20421058D02*
X9241522Y-20411534D01*
X9241522Y-20411534D02*
X9251046Y-20392487D01*
X9251046Y-20392487D02*
X9251046Y-20382963D01*
X9251046Y-20382963D02*
X9241522Y-20363915D01*
X9241522Y-20363915D02*
X9222475Y-20354391D01*
X9222475Y-20354391D02*
X9193903Y-20354391D01*
X9193903Y-20354391D02*
X9174856Y-20344868D01*
X9174856Y-20344868D02*
X9165332Y-20325820D01*
X9165332Y-20325820D02*
X9165332Y-20316296D01*
X9165332Y-20316296D02*
X9174856Y-20297248D01*
X9174856Y-20297248D02*
X9193903Y-20287725D01*
X9193903Y-20287725D02*
X9222475Y-20287725D01*
X9222475Y-20287725D02*
X9241522Y-20297248D01*
X9365332Y-20421058D02*
X9346284Y-20411534D01*
X9346284Y-20411534D02*
X9336760Y-20392487D01*
X9336760Y-20392487D02*
X9336760Y-20221058D01*
X9470094Y-20421058D02*
X9451046Y-20411534D01*
X9451046Y-20411534D02*
X9441522Y-20402010D01*
X9441522Y-20402010D02*
X9431998Y-20382963D01*
X9431998Y-20382963D02*
X9431998Y-20325820D01*
X9431998Y-20325820D02*
X9441522Y-20306772D01*
X9441522Y-20306772D02*
X9451046Y-20297248D01*
X9451046Y-20297248D02*
X9470094Y-20287725D01*
X9470094Y-20287725D02*
X9498665Y-20287725D01*
X9498665Y-20287725D02*
X9517713Y-20297248D01*
X9517713Y-20297248D02*
X9527237Y-20306772D01*
X9527237Y-20306772D02*
X9536760Y-20325820D01*
X9536760Y-20325820D02*
X9536760Y-20382963D01*
X9536760Y-20382963D02*
X9527237Y-20402010D01*
X9527237Y-20402010D02*
X9517713Y-20411534D01*
X9517713Y-20411534D02*
X9498665Y-20421058D01*
X9498665Y-20421058D02*
X9470094Y-20421058D01*
X9593903Y-20287725D02*
X9670094Y-20287725D01*
X9622475Y-20221058D02*
X9622475Y-20392487D01*
X9622475Y-20392487D02*
X9631998Y-20411534D01*
X9631998Y-20411534D02*
X9651046Y-20421058D01*
X9651046Y-20421058D02*
X9670094Y-20421058D01*
X9717713Y-20497248D02*
X9727237Y-20487725D01*
X9727237Y-20487725D02*
X9746284Y-20459153D01*
X9746284Y-20459153D02*
X9755808Y-20440106D01*
X9755808Y-20440106D02*
X9765332Y-20411534D01*
X9765332Y-20411534D02*
X9774856Y-20363915D01*
X9774856Y-20363915D02*
X9774856Y-20325820D01*
X9774856Y-20325820D02*
X9765332Y-20278201D01*
X9765332Y-20278201D02*
X9755808Y-20249629D01*
X9755808Y-20249629D02*
X9746284Y-20230582D01*
X9746284Y-20230582D02*
X9727237Y-20202010D01*
X9727237Y-20202010D02*
X9717713Y-20192487D01*
X10079618Y-20497248D02*
X10070094Y-20487725D01*
X10070094Y-20487725D02*
X10051046Y-20459153D01*
X10051046Y-20459153D02*
X10041522Y-20440106D01*
X10041522Y-20440106D02*
X10031998Y-20411534D01*
X10031998Y-20411534D02*
X10022475Y-20363915D01*
X10022475Y-20363915D02*
X10022475Y-20325820D01*
X10022475Y-20325820D02*
X10031998Y-20278201D01*
X10031998Y-20278201D02*
X10041522Y-20249629D01*
X10041522Y-20249629D02*
X10051046Y-20230582D01*
X10051046Y-20230582D02*
X10070094Y-20202010D01*
X10070094Y-20202010D02*
X10079618Y-20192487D01*
X10155808Y-20287725D02*
X10155808Y-20421058D01*
X10155808Y-20306772D02*
X10165332Y-20297248D01*
X10165332Y-20297248D02*
X10184379Y-20287725D01*
X10184379Y-20287725D02*
X10212951Y-20287725D01*
X10212951Y-20287725D02*
X10231998Y-20297248D01*
X10231998Y-20297248D02*
X10241522Y-20316296D01*
X10241522Y-20316296D02*
X10241522Y-20421058D01*
X10365332Y-20421058D02*
X10346284Y-20411534D01*
X10346284Y-20411534D02*
X10336760Y-20402010D01*
X10336760Y-20402010D02*
X10327237Y-20382963D01*
X10327237Y-20382963D02*
X10327237Y-20325820D01*
X10327237Y-20325820D02*
X10336760Y-20306772D01*
X10336760Y-20306772D02*
X10346284Y-20297248D01*
X10346284Y-20297248D02*
X10365332Y-20287725D01*
X10365332Y-20287725D02*
X10393903Y-20287725D01*
X10393903Y-20287725D02*
X10412951Y-20297248D01*
X10412951Y-20297248D02*
X10422475Y-20306772D01*
X10422475Y-20306772D02*
X10431998Y-20325820D01*
X10431998Y-20325820D02*
X10431998Y-20382963D01*
X10431998Y-20382963D02*
X10422475Y-20402010D01*
X10422475Y-20402010D02*
X10412951Y-20411534D01*
X10412951Y-20411534D02*
X10393903Y-20421058D01*
X10393903Y-20421058D02*
X10365332Y-20421058D01*
X10489141Y-20287725D02*
X10565332Y-20287725D01*
X10517713Y-20221058D02*
X10517713Y-20392487D01*
X10517713Y-20392487D02*
X10527237Y-20411534D01*
X10527237Y-20411534D02*
X10546284Y-20421058D01*
X10546284Y-20421058D02*
X10565332Y-20421058D01*
X10784379Y-20287725D02*
X10784379Y-20487725D01*
X10784379Y-20297248D02*
X10803427Y-20287725D01*
X10803427Y-20287725D02*
X10841522Y-20287725D01*
X10841522Y-20287725D02*
X10860570Y-20297248D01*
X10860570Y-20297248D02*
X10870094Y-20306772D01*
X10870094Y-20306772D02*
X10879618Y-20325820D01*
X10879618Y-20325820D02*
X10879618Y-20382963D01*
X10879618Y-20382963D02*
X10870094Y-20402010D01*
X10870094Y-20402010D02*
X10860570Y-20411534D01*
X10860570Y-20411534D02*
X10841522Y-20421058D01*
X10841522Y-20421058D02*
X10803427Y-20421058D01*
X10803427Y-20421058D02*
X10784379Y-20411534D01*
X10993903Y-20421058D02*
X10974856Y-20411534D01*
X10974856Y-20411534D02*
X10965332Y-20392487D01*
X10965332Y-20392487D02*
X10965332Y-20221058D01*
X11155808Y-20421058D02*
X11155808Y-20316296D01*
X11155808Y-20316296D02*
X11146284Y-20297248D01*
X11146284Y-20297248D02*
X11127237Y-20287725D01*
X11127237Y-20287725D02*
X11089141Y-20287725D01*
X11089141Y-20287725D02*
X11070094Y-20297248D01*
X11155808Y-20411534D02*
X11136760Y-20421058D01*
X11136760Y-20421058D02*
X11089141Y-20421058D01*
X11089141Y-20421058D02*
X11070094Y-20411534D01*
X11070094Y-20411534D02*
X11060570Y-20392487D01*
X11060570Y-20392487D02*
X11060570Y-20373439D01*
X11060570Y-20373439D02*
X11070094Y-20354391D01*
X11070094Y-20354391D02*
X11089141Y-20344868D01*
X11089141Y-20344868D02*
X11136760Y-20344868D01*
X11136760Y-20344868D02*
X11155808Y-20335344D01*
X11222475Y-20287725D02*
X11298665Y-20287725D01*
X11251046Y-20221058D02*
X11251046Y-20392487D01*
X11251046Y-20392487D02*
X11260570Y-20411534D01*
X11260570Y-20411534D02*
X11279617Y-20421058D01*
X11279617Y-20421058D02*
X11298665Y-20421058D01*
X11441522Y-20411534D02*
X11422475Y-20421058D01*
X11422475Y-20421058D02*
X11384379Y-20421058D01*
X11384379Y-20421058D02*
X11365332Y-20411534D01*
X11365332Y-20411534D02*
X11355808Y-20392487D01*
X11355808Y-20392487D02*
X11355808Y-20316296D01*
X11355808Y-20316296D02*
X11365332Y-20297248D01*
X11365332Y-20297248D02*
X11384379Y-20287725D01*
X11384379Y-20287725D02*
X11422475Y-20287725D01*
X11422475Y-20287725D02*
X11441522Y-20297248D01*
X11441522Y-20297248D02*
X11451046Y-20316296D01*
X11451046Y-20316296D02*
X11451046Y-20335344D01*
X11451046Y-20335344D02*
X11355808Y-20354391D01*
X11622475Y-20421058D02*
X11622475Y-20221058D01*
X11622475Y-20411534D02*
X11603427Y-20421058D01*
X11603427Y-20421058D02*
X11565332Y-20421058D01*
X11565332Y-20421058D02*
X11546284Y-20411534D01*
X11546284Y-20411534D02*
X11536760Y-20402010D01*
X11536760Y-20402010D02*
X11527237Y-20382963D01*
X11527237Y-20382963D02*
X11527237Y-20325820D01*
X11527237Y-20325820D02*
X11536760Y-20306772D01*
X11536760Y-20306772D02*
X11546284Y-20297248D01*
X11546284Y-20297248D02*
X11565332Y-20287725D01*
X11565332Y-20287725D02*
X11603427Y-20287725D01*
X11603427Y-20287725D02*
X11622475Y-20297248D01*
X11698665Y-20497248D02*
X11708189Y-20487725D01*
X11708189Y-20487725D02*
X11727237Y-20459153D01*
X11727237Y-20459153D02*
X11736760Y-20440106D01*
X11736760Y-20440106D02*
X11746284Y-20411534D01*
X11746284Y-20411534D02*
X11755808Y-20363915D01*
X11755808Y-20363915D02*
X11755808Y-20325820D01*
X11755808Y-20325820D02*
X11746284Y-20278201D01*
X11746284Y-20278201D02*
X11736760Y-20249629D01*
X11736760Y-20249629D02*
X11727237Y-20230582D01*
X11727237Y-20230582D02*
X11708189Y-20202010D01*
X11708189Y-20202010D02*
X11698665Y-20192487D01*
D12*
X3485507Y-20593574D02*
G75*
G03*
X3370307Y-20593574I-57600J0D01*
G01*
X3370307Y-20593574D02*
G75*
G03*
X3485507Y-20593574I57600J0D01*
G01*
D10*
X3851045Y-20685058D02*
X3736760Y-20685058D01*
X3793902Y-20685058D02*
X3793902Y-20485058D01*
X3793902Y-20485058D02*
X3774855Y-20513629D01*
X3774855Y-20513629D02*
X3755807Y-20532677D01*
X3755807Y-20532677D02*
X3736760Y-20542201D01*
X3936760Y-20666010D02*
X3946283Y-20675534D01*
X3946283Y-20675534D02*
X3936760Y-20685058D01*
X3936760Y-20685058D02*
X3927236Y-20675534D01*
X3927236Y-20675534D02*
X3936760Y-20666010D01*
X3936760Y-20666010D02*
X3936760Y-20685058D01*
X4136760Y-20685058D02*
X4022474Y-20685058D01*
X4079617Y-20685058D02*
X4079617Y-20485058D01*
X4079617Y-20485058D02*
X4060569Y-20513629D01*
X4060569Y-20513629D02*
X4041522Y-20532677D01*
X4041522Y-20532677D02*
X4022474Y-20542201D01*
X4317712Y-20485058D02*
X4222474Y-20485058D01*
X4222474Y-20485058D02*
X4212950Y-20580296D01*
X4212950Y-20580296D02*
X4222474Y-20570772D01*
X4222474Y-20570772D02*
X4241522Y-20561248D01*
X4241522Y-20561248D02*
X4289141Y-20561248D01*
X4289141Y-20561248D02*
X4308188Y-20570772D01*
X4308188Y-20570772D02*
X4317712Y-20580296D01*
X4317712Y-20580296D02*
X4327236Y-20599344D01*
X4327236Y-20599344D02*
X4327236Y-20646963D01*
X4327236Y-20646963D02*
X4317712Y-20666010D01*
X4317712Y-20666010D02*
X4308188Y-20675534D01*
X4308188Y-20675534D02*
X4289141Y-20685058D01*
X4289141Y-20685058D02*
X4241522Y-20685058D01*
X4241522Y-20685058D02*
X4222474Y-20675534D01*
X4222474Y-20675534D02*
X4212950Y-20666010D01*
X4403426Y-20504106D02*
X4412950Y-20494582D01*
X4412950Y-20494582D02*
X4431998Y-20485058D01*
X4431998Y-20485058D02*
X4479617Y-20485058D01*
X4479617Y-20485058D02*
X4498665Y-20494582D01*
X4498665Y-20494582D02*
X4508188Y-20504106D01*
X4508188Y-20504106D02*
X4517712Y-20523153D01*
X4517712Y-20523153D02*
X4517712Y-20542201D01*
X4517712Y-20542201D02*
X4508188Y-20570772D01*
X4508188Y-20570772D02*
X4393903Y-20685058D01*
X4393903Y-20685058D02*
X4517712Y-20685058D01*
X4603426Y-20685058D02*
X4603426Y-20551725D01*
X4603426Y-20570772D02*
X4612950Y-20561248D01*
X4612950Y-20561248D02*
X4631998Y-20551725D01*
X4631998Y-20551725D02*
X4660569Y-20551725D01*
X4660569Y-20551725D02*
X4679617Y-20561248D01*
X4679617Y-20561248D02*
X4689141Y-20580296D01*
X4689141Y-20580296D02*
X4689141Y-20685058D01*
X4689141Y-20580296D02*
X4698665Y-20561248D01*
X4698665Y-20561248D02*
X4717712Y-20551725D01*
X4717712Y-20551725D02*
X4746284Y-20551725D01*
X4746284Y-20551725D02*
X4765331Y-20561248D01*
X4765331Y-20561248D02*
X4774855Y-20580296D01*
X4774855Y-20580296D02*
X4774855Y-20685058D01*
X4870093Y-20685058D02*
X4870093Y-20551725D01*
X4870093Y-20570772D02*
X4879617Y-20561248D01*
X4879617Y-20561248D02*
X4898665Y-20551725D01*
X4898665Y-20551725D02*
X4927236Y-20551725D01*
X4927236Y-20551725D02*
X4946284Y-20561248D01*
X4946284Y-20561248D02*
X4955807Y-20580296D01*
X4955807Y-20580296D02*
X4955807Y-20685058D01*
X4955807Y-20580296D02*
X4965331Y-20561248D01*
X4965331Y-20561248D02*
X4984379Y-20551725D01*
X4984379Y-20551725D02*
X5012950Y-20551725D01*
X5012950Y-20551725D02*
X5031998Y-20561248D01*
X5031998Y-20561248D02*
X5041522Y-20580296D01*
X5041522Y-20580296D02*
X5041522Y-20685058D01*
X5431998Y-20475534D02*
X5260569Y-20732677D01*
X5689141Y-20485058D02*
X5708188Y-20485058D01*
X5708188Y-20485058D02*
X5727236Y-20494582D01*
X5727236Y-20494582D02*
X5736760Y-20504106D01*
X5736760Y-20504106D02*
X5746284Y-20523153D01*
X5746284Y-20523153D02*
X5755807Y-20561248D01*
X5755807Y-20561248D02*
X5755807Y-20608868D01*
X5755807Y-20608868D02*
X5746284Y-20646963D01*
X5746284Y-20646963D02*
X5736760Y-20666010D01*
X5736760Y-20666010D02*
X5727236Y-20675534D01*
X5727236Y-20675534D02*
X5708188Y-20685058D01*
X5708188Y-20685058D02*
X5689141Y-20685058D01*
X5689141Y-20685058D02*
X5670093Y-20675534D01*
X5670093Y-20675534D02*
X5660569Y-20666010D01*
X5660569Y-20666010D02*
X5651046Y-20646963D01*
X5651046Y-20646963D02*
X5641522Y-20608868D01*
X5641522Y-20608868D02*
X5641522Y-20561248D01*
X5641522Y-20561248D02*
X5651046Y-20523153D01*
X5651046Y-20523153D02*
X5660569Y-20504106D01*
X5660569Y-20504106D02*
X5670093Y-20494582D01*
X5670093Y-20494582D02*
X5689141Y-20485058D01*
X5841522Y-20666010D02*
X5851046Y-20675534D01*
X5851046Y-20675534D02*
X5841522Y-20685058D01*
X5841522Y-20685058D02*
X5831998Y-20675534D01*
X5831998Y-20675534D02*
X5841522Y-20666010D01*
X5841522Y-20666010D02*
X5841522Y-20685058D01*
X5974855Y-20485058D02*
X5993903Y-20485058D01*
X5993903Y-20485058D02*
X6012950Y-20494582D01*
X6012950Y-20494582D02*
X6022474Y-20504106D01*
X6022474Y-20504106D02*
X6031998Y-20523153D01*
X6031998Y-20523153D02*
X6041522Y-20561248D01*
X6041522Y-20561248D02*
X6041522Y-20608868D01*
X6041522Y-20608868D02*
X6031998Y-20646963D01*
X6031998Y-20646963D02*
X6022474Y-20666010D01*
X6022474Y-20666010D02*
X6012950Y-20675534D01*
X6012950Y-20675534D02*
X5993903Y-20685058D01*
X5993903Y-20685058D02*
X5974855Y-20685058D01*
X5974855Y-20685058D02*
X5955807Y-20675534D01*
X5955807Y-20675534D02*
X5946284Y-20666010D01*
X5946284Y-20666010D02*
X5936760Y-20646963D01*
X5936760Y-20646963D02*
X5927236Y-20608868D01*
X5927236Y-20608868D02*
X5927236Y-20561248D01*
X5927236Y-20561248D02*
X5936760Y-20523153D01*
X5936760Y-20523153D02*
X5946284Y-20504106D01*
X5946284Y-20504106D02*
X5955807Y-20494582D01*
X5955807Y-20494582D02*
X5974855Y-20485058D01*
X6212950Y-20551725D02*
X6212950Y-20685058D01*
X6165331Y-20475534D02*
X6117712Y-20618391D01*
X6117712Y-20618391D02*
X6241522Y-20618391D01*
X6412950Y-20485058D02*
X6317712Y-20485058D01*
X6317712Y-20485058D02*
X6308188Y-20580296D01*
X6308188Y-20580296D02*
X6317712Y-20570772D01*
X6317712Y-20570772D02*
X6336760Y-20561248D01*
X6336760Y-20561248D02*
X6384379Y-20561248D01*
X6384379Y-20561248D02*
X6403427Y-20570772D01*
X6403427Y-20570772D02*
X6412950Y-20580296D01*
X6412950Y-20580296D02*
X6422474Y-20599344D01*
X6422474Y-20599344D02*
X6422474Y-20646963D01*
X6422474Y-20646963D02*
X6412950Y-20666010D01*
X6412950Y-20666010D02*
X6403427Y-20675534D01*
X6403427Y-20675534D02*
X6384379Y-20685058D01*
X6384379Y-20685058D02*
X6336760Y-20685058D01*
X6336760Y-20685058D02*
X6317712Y-20675534D01*
X6317712Y-20675534D02*
X6308188Y-20666010D01*
X6593903Y-20551725D02*
X6593903Y-20685058D01*
X6546284Y-20475534D02*
X6498665Y-20618391D01*
X6498665Y-20618391D02*
X6622474Y-20618391D01*
X6689141Y-20485058D02*
X6689141Y-20523153D01*
X6765331Y-20485058D02*
X6765331Y-20523153D01*
X7060570Y-20761248D02*
X7051046Y-20751725D01*
X7051046Y-20751725D02*
X7031998Y-20723153D01*
X7031998Y-20723153D02*
X7022474Y-20704106D01*
X7022474Y-20704106D02*
X7012950Y-20675534D01*
X7012950Y-20675534D02*
X7003427Y-20627915D01*
X7003427Y-20627915D02*
X7003427Y-20589820D01*
X7003427Y-20589820D02*
X7012950Y-20542201D01*
X7012950Y-20542201D02*
X7022474Y-20513629D01*
X7022474Y-20513629D02*
X7031998Y-20494582D01*
X7031998Y-20494582D02*
X7051046Y-20466010D01*
X7051046Y-20466010D02*
X7060570Y-20456487D01*
X7222474Y-20551725D02*
X7222474Y-20685058D01*
X7174855Y-20475534D02*
X7127236Y-20618391D01*
X7127236Y-20618391D02*
X7251046Y-20618391D01*
X7479617Y-20685058D02*
X7479617Y-20485058D01*
X7565331Y-20685058D02*
X7565331Y-20580296D01*
X7565331Y-20580296D02*
X7555808Y-20561248D01*
X7555808Y-20561248D02*
X7536760Y-20551725D01*
X7536760Y-20551725D02*
X7508189Y-20551725D01*
X7508189Y-20551725D02*
X7489141Y-20561248D01*
X7489141Y-20561248D02*
X7479617Y-20570772D01*
X7689141Y-20685058D02*
X7670093Y-20675534D01*
X7670093Y-20675534D02*
X7660570Y-20666010D01*
X7660570Y-20666010D02*
X7651046Y-20646963D01*
X7651046Y-20646963D02*
X7651046Y-20589820D01*
X7651046Y-20589820D02*
X7660570Y-20570772D01*
X7660570Y-20570772D02*
X7670093Y-20561248D01*
X7670093Y-20561248D02*
X7689141Y-20551725D01*
X7689141Y-20551725D02*
X7717712Y-20551725D01*
X7717712Y-20551725D02*
X7736760Y-20561248D01*
X7736760Y-20561248D02*
X7746284Y-20570772D01*
X7746284Y-20570772D02*
X7755808Y-20589820D01*
X7755808Y-20589820D02*
X7755808Y-20646963D01*
X7755808Y-20646963D02*
X7746284Y-20666010D01*
X7746284Y-20666010D02*
X7736760Y-20675534D01*
X7736760Y-20675534D02*
X7717712Y-20685058D01*
X7717712Y-20685058D02*
X7689141Y-20685058D01*
X7870093Y-20685058D02*
X7851046Y-20675534D01*
X7851046Y-20675534D02*
X7841522Y-20656487D01*
X7841522Y-20656487D02*
X7841522Y-20485058D01*
X8022474Y-20675534D02*
X8003427Y-20685058D01*
X8003427Y-20685058D02*
X7965331Y-20685058D01*
X7965331Y-20685058D02*
X7946284Y-20675534D01*
X7946284Y-20675534D02*
X7936760Y-20656487D01*
X7936760Y-20656487D02*
X7936760Y-20580296D01*
X7936760Y-20580296D02*
X7946284Y-20561248D01*
X7946284Y-20561248D02*
X7965331Y-20551725D01*
X7965331Y-20551725D02*
X8003427Y-20551725D01*
X8003427Y-20551725D02*
X8022474Y-20561248D01*
X8022474Y-20561248D02*
X8031998Y-20580296D01*
X8031998Y-20580296D02*
X8031998Y-20599344D01*
X8031998Y-20599344D02*
X7936760Y-20618391D01*
X8108189Y-20675534D02*
X8127236Y-20685058D01*
X8127236Y-20685058D02*
X8165331Y-20685058D01*
X8165331Y-20685058D02*
X8184379Y-20675534D01*
X8184379Y-20675534D02*
X8193903Y-20656487D01*
X8193903Y-20656487D02*
X8193903Y-20646963D01*
X8193903Y-20646963D02*
X8184379Y-20627915D01*
X8184379Y-20627915D02*
X8165331Y-20618391D01*
X8165331Y-20618391D02*
X8136760Y-20618391D01*
X8136760Y-20618391D02*
X8117712Y-20608868D01*
X8117712Y-20608868D02*
X8108189Y-20589820D01*
X8108189Y-20589820D02*
X8108189Y-20580296D01*
X8108189Y-20580296D02*
X8117712Y-20561248D01*
X8117712Y-20561248D02*
X8136760Y-20551725D01*
X8136760Y-20551725D02*
X8165331Y-20551725D01*
X8165331Y-20551725D02*
X8184379Y-20561248D01*
X8260570Y-20761248D02*
X8270093Y-20751725D01*
X8270093Y-20751725D02*
X8289141Y-20723153D01*
X8289141Y-20723153D02*
X8298665Y-20704106D01*
X8298665Y-20704106D02*
X8308189Y-20675534D01*
X8308189Y-20675534D02*
X8317712Y-20627915D01*
X8317712Y-20627915D02*
X8317712Y-20589820D01*
X8317712Y-20589820D02*
X8308189Y-20542201D01*
X8308189Y-20542201D02*
X8298665Y-20513629D01*
X8298665Y-20513629D02*
X8289141Y-20494582D01*
X8289141Y-20494582D02*
X8270093Y-20466010D01*
X8270093Y-20466010D02*
X8260570Y-20456487D01*
X8622475Y-20761248D02*
X8612951Y-20751725D01*
X8612951Y-20751725D02*
X8593903Y-20723153D01*
X8593903Y-20723153D02*
X8584379Y-20704106D01*
X8584379Y-20704106D02*
X8574855Y-20675534D01*
X8574855Y-20675534D02*
X8565332Y-20627915D01*
X8565332Y-20627915D02*
X8565332Y-20589820D01*
X8565332Y-20589820D02*
X8574855Y-20542201D01*
X8574855Y-20542201D02*
X8584379Y-20513629D01*
X8584379Y-20513629D02*
X8593903Y-20494582D01*
X8593903Y-20494582D02*
X8612951Y-20466010D01*
X8612951Y-20466010D02*
X8622475Y-20456487D01*
X8698665Y-20551725D02*
X8698665Y-20685058D01*
X8698665Y-20570772D02*
X8708189Y-20561248D01*
X8708189Y-20561248D02*
X8727236Y-20551725D01*
X8727236Y-20551725D02*
X8755808Y-20551725D01*
X8755808Y-20551725D02*
X8774855Y-20561248D01*
X8774855Y-20561248D02*
X8784379Y-20580296D01*
X8784379Y-20580296D02*
X8784379Y-20685058D01*
X8908189Y-20685058D02*
X8889141Y-20675534D01*
X8889141Y-20675534D02*
X8879617Y-20666010D01*
X8879617Y-20666010D02*
X8870094Y-20646963D01*
X8870094Y-20646963D02*
X8870094Y-20589820D01*
X8870094Y-20589820D02*
X8879617Y-20570772D01*
X8879617Y-20570772D02*
X8889141Y-20561248D01*
X8889141Y-20561248D02*
X8908189Y-20551725D01*
X8908189Y-20551725D02*
X8936760Y-20551725D01*
X8936760Y-20551725D02*
X8955808Y-20561248D01*
X8955808Y-20561248D02*
X8965332Y-20570772D01*
X8965332Y-20570772D02*
X8974855Y-20589820D01*
X8974855Y-20589820D02*
X8974855Y-20646963D01*
X8974855Y-20646963D02*
X8965332Y-20666010D01*
X8965332Y-20666010D02*
X8955808Y-20675534D01*
X8955808Y-20675534D02*
X8936760Y-20685058D01*
X8936760Y-20685058D02*
X8908189Y-20685058D01*
X9031998Y-20551725D02*
X9108189Y-20551725D01*
X9060570Y-20485058D02*
X9060570Y-20656487D01*
X9060570Y-20656487D02*
X9070094Y-20675534D01*
X9070094Y-20675534D02*
X9089141Y-20685058D01*
X9089141Y-20685058D02*
X9108189Y-20685058D01*
X9327236Y-20551725D02*
X9327236Y-20751725D01*
X9327236Y-20561248D02*
X9346284Y-20551725D01*
X9346284Y-20551725D02*
X9384379Y-20551725D01*
X9384379Y-20551725D02*
X9403427Y-20561248D01*
X9403427Y-20561248D02*
X9412951Y-20570772D01*
X9412951Y-20570772D02*
X9422475Y-20589820D01*
X9422475Y-20589820D02*
X9422475Y-20646963D01*
X9422475Y-20646963D02*
X9412951Y-20666010D01*
X9412951Y-20666010D02*
X9403427Y-20675534D01*
X9403427Y-20675534D02*
X9384379Y-20685058D01*
X9384379Y-20685058D02*
X9346284Y-20685058D01*
X9346284Y-20685058D02*
X9327236Y-20675534D01*
X9536760Y-20685058D02*
X9517713Y-20675534D01*
X9517713Y-20675534D02*
X9508189Y-20656487D01*
X9508189Y-20656487D02*
X9508189Y-20485058D01*
X9698665Y-20685058D02*
X9698665Y-20580296D01*
X9698665Y-20580296D02*
X9689141Y-20561248D01*
X9689141Y-20561248D02*
X9670094Y-20551725D01*
X9670094Y-20551725D02*
X9631998Y-20551725D01*
X9631998Y-20551725D02*
X9612951Y-20561248D01*
X9698665Y-20675534D02*
X9679617Y-20685058D01*
X9679617Y-20685058D02*
X9631998Y-20685058D01*
X9631998Y-20685058D02*
X9612951Y-20675534D01*
X9612951Y-20675534D02*
X9603427Y-20656487D01*
X9603427Y-20656487D02*
X9603427Y-20637439D01*
X9603427Y-20637439D02*
X9612951Y-20618391D01*
X9612951Y-20618391D02*
X9631998Y-20608868D01*
X9631998Y-20608868D02*
X9679617Y-20608868D01*
X9679617Y-20608868D02*
X9698665Y-20599344D01*
X9765332Y-20551725D02*
X9841522Y-20551725D01*
X9793903Y-20485058D02*
X9793903Y-20656487D01*
X9793903Y-20656487D02*
X9803427Y-20675534D01*
X9803427Y-20675534D02*
X9822475Y-20685058D01*
X9822475Y-20685058D02*
X9841522Y-20685058D01*
X9984379Y-20675534D02*
X9965332Y-20685058D01*
X9965332Y-20685058D02*
X9927236Y-20685058D01*
X9927236Y-20685058D02*
X9908189Y-20675534D01*
X9908189Y-20675534D02*
X9898665Y-20656487D01*
X9898665Y-20656487D02*
X9898665Y-20580296D01*
X9898665Y-20580296D02*
X9908189Y-20561248D01*
X9908189Y-20561248D02*
X9927236Y-20551725D01*
X9927236Y-20551725D02*
X9965332Y-20551725D01*
X9965332Y-20551725D02*
X9984379Y-20561248D01*
X9984379Y-20561248D02*
X9993903Y-20580296D01*
X9993903Y-20580296D02*
X9993903Y-20599344D01*
X9993903Y-20599344D02*
X9898665Y-20618391D01*
X10165332Y-20685058D02*
X10165332Y-20485058D01*
X10165332Y-20675534D02*
X10146284Y-20685058D01*
X10146284Y-20685058D02*
X10108189Y-20685058D01*
X10108189Y-20685058D02*
X10089141Y-20675534D01*
X10089141Y-20675534D02*
X10079617Y-20666010D01*
X10079617Y-20666010D02*
X10070094Y-20646963D01*
X10070094Y-20646963D02*
X10070094Y-20589820D01*
X10070094Y-20589820D02*
X10079617Y-20570772D01*
X10079617Y-20570772D02*
X10089141Y-20561248D01*
X10089141Y-20561248D02*
X10108189Y-20551725D01*
X10108189Y-20551725D02*
X10146284Y-20551725D01*
X10146284Y-20551725D02*
X10165332Y-20561248D01*
X10241522Y-20761248D02*
X10251046Y-20751725D01*
X10251046Y-20751725D02*
X10270094Y-20723153D01*
X10270094Y-20723153D02*
X10279617Y-20704106D01*
X10279617Y-20704106D02*
X10289141Y-20675534D01*
X10289141Y-20675534D02*
X10298665Y-20627915D01*
X10298665Y-20627915D02*
X10298665Y-20589820D01*
X10298665Y-20589820D02*
X10289141Y-20542201D01*
X10289141Y-20542201D02*
X10279617Y-20513629D01*
X10279617Y-20513629D02*
X10270094Y-20494582D01*
X10270094Y-20494582D02*
X10251046Y-20466010D01*
X10251046Y-20466010D02*
X10241522Y-20456487D01*
D13*
X3423007Y-20795074D02*
X3423007Y-20920074D01*
X3360507Y-20857574D02*
X3485507Y-20857574D01*
D10*
X3851045Y-20949058D02*
X3736760Y-20949058D01*
X3793902Y-20949058D02*
X3793902Y-20749058D01*
X3793902Y-20749058D02*
X3774855Y-20777629D01*
X3774855Y-20777629D02*
X3755807Y-20796677D01*
X3755807Y-20796677D02*
X3736760Y-20806201D01*
X3936760Y-20930010D02*
X3946283Y-20939534D01*
X3946283Y-20939534D02*
X3936760Y-20949058D01*
X3936760Y-20949058D02*
X3927236Y-20939534D01*
X3927236Y-20939534D02*
X3936760Y-20930010D01*
X3936760Y-20930010D02*
X3936760Y-20949058D01*
X4022474Y-20768106D02*
X4031998Y-20758582D01*
X4031998Y-20758582D02*
X4051045Y-20749058D01*
X4051045Y-20749058D02*
X4098664Y-20749058D01*
X4098664Y-20749058D02*
X4117712Y-20758582D01*
X4117712Y-20758582D02*
X4127236Y-20768106D01*
X4127236Y-20768106D02*
X4136760Y-20787153D01*
X4136760Y-20787153D02*
X4136760Y-20806201D01*
X4136760Y-20806201D02*
X4127236Y-20834772D01*
X4127236Y-20834772D02*
X4012950Y-20949058D01*
X4012950Y-20949058D02*
X4136760Y-20949058D01*
X4317712Y-20749058D02*
X4222474Y-20749058D01*
X4222474Y-20749058D02*
X4212950Y-20844296D01*
X4212950Y-20844296D02*
X4222474Y-20834772D01*
X4222474Y-20834772D02*
X4241522Y-20825248D01*
X4241522Y-20825248D02*
X4289141Y-20825248D01*
X4289141Y-20825248D02*
X4308188Y-20834772D01*
X4308188Y-20834772D02*
X4317712Y-20844296D01*
X4317712Y-20844296D02*
X4327236Y-20863344D01*
X4327236Y-20863344D02*
X4327236Y-20910963D01*
X4327236Y-20910963D02*
X4317712Y-20930010D01*
X4317712Y-20930010D02*
X4308188Y-20939534D01*
X4308188Y-20939534D02*
X4289141Y-20949058D01*
X4289141Y-20949058D02*
X4241522Y-20949058D01*
X4241522Y-20949058D02*
X4222474Y-20939534D01*
X4222474Y-20939534D02*
X4212950Y-20930010D01*
X4451045Y-20749058D02*
X4470093Y-20749058D01*
X4470093Y-20749058D02*
X4489141Y-20758582D01*
X4489141Y-20758582D02*
X4498665Y-20768106D01*
X4498665Y-20768106D02*
X4508188Y-20787153D01*
X4508188Y-20787153D02*
X4517712Y-20825248D01*
X4517712Y-20825248D02*
X4517712Y-20872868D01*
X4517712Y-20872868D02*
X4508188Y-20910963D01*
X4508188Y-20910963D02*
X4498665Y-20930010D01*
X4498665Y-20930010D02*
X4489141Y-20939534D01*
X4489141Y-20939534D02*
X4470093Y-20949058D01*
X4470093Y-20949058D02*
X4451045Y-20949058D01*
X4451045Y-20949058D02*
X4431998Y-20939534D01*
X4431998Y-20939534D02*
X4422474Y-20930010D01*
X4422474Y-20930010D02*
X4412950Y-20910963D01*
X4412950Y-20910963D02*
X4403426Y-20872868D01*
X4403426Y-20872868D02*
X4403426Y-20825248D01*
X4403426Y-20825248D02*
X4412950Y-20787153D01*
X4412950Y-20787153D02*
X4422474Y-20768106D01*
X4422474Y-20768106D02*
X4431998Y-20758582D01*
X4431998Y-20758582D02*
X4451045Y-20749058D01*
X4603426Y-20949058D02*
X4603426Y-20815725D01*
X4603426Y-20834772D02*
X4612950Y-20825248D01*
X4612950Y-20825248D02*
X4631998Y-20815725D01*
X4631998Y-20815725D02*
X4660569Y-20815725D01*
X4660569Y-20815725D02*
X4679617Y-20825248D01*
X4679617Y-20825248D02*
X4689141Y-20844296D01*
X4689141Y-20844296D02*
X4689141Y-20949058D01*
X4689141Y-20844296D02*
X4698665Y-20825248D01*
X4698665Y-20825248D02*
X4717712Y-20815725D01*
X4717712Y-20815725D02*
X4746284Y-20815725D01*
X4746284Y-20815725D02*
X4765331Y-20825248D01*
X4765331Y-20825248D02*
X4774855Y-20844296D01*
X4774855Y-20844296D02*
X4774855Y-20949058D01*
X4870093Y-20949058D02*
X4870093Y-20815725D01*
X4870093Y-20834772D02*
X4879617Y-20825248D01*
X4879617Y-20825248D02*
X4898665Y-20815725D01*
X4898665Y-20815725D02*
X4927236Y-20815725D01*
X4927236Y-20815725D02*
X4946284Y-20825248D01*
X4946284Y-20825248D02*
X4955807Y-20844296D01*
X4955807Y-20844296D02*
X4955807Y-20949058D01*
X4955807Y-20844296D02*
X4965331Y-20825248D01*
X4965331Y-20825248D02*
X4984379Y-20815725D01*
X4984379Y-20815725D02*
X5012950Y-20815725D01*
X5012950Y-20815725D02*
X5031998Y-20825248D01*
X5031998Y-20825248D02*
X5041522Y-20844296D01*
X5041522Y-20844296D02*
X5041522Y-20949058D01*
X5431998Y-20739534D02*
X5260569Y-20996677D01*
X5689141Y-20749058D02*
X5708188Y-20749058D01*
X5708188Y-20749058D02*
X5727236Y-20758582D01*
X5727236Y-20758582D02*
X5736760Y-20768106D01*
X5736760Y-20768106D02*
X5746284Y-20787153D01*
X5746284Y-20787153D02*
X5755807Y-20825248D01*
X5755807Y-20825248D02*
X5755807Y-20872868D01*
X5755807Y-20872868D02*
X5746284Y-20910963D01*
X5746284Y-20910963D02*
X5736760Y-20930010D01*
X5736760Y-20930010D02*
X5727236Y-20939534D01*
X5727236Y-20939534D02*
X5708188Y-20949058D01*
X5708188Y-20949058D02*
X5689141Y-20949058D01*
X5689141Y-20949058D02*
X5670093Y-20939534D01*
X5670093Y-20939534D02*
X5660569Y-20930010D01*
X5660569Y-20930010D02*
X5651046Y-20910963D01*
X5651046Y-20910963D02*
X5641522Y-20872868D01*
X5641522Y-20872868D02*
X5641522Y-20825248D01*
X5641522Y-20825248D02*
X5651046Y-20787153D01*
X5651046Y-20787153D02*
X5660569Y-20768106D01*
X5660569Y-20768106D02*
X5670093Y-20758582D01*
X5670093Y-20758582D02*
X5689141Y-20749058D01*
X5841522Y-20930010D02*
X5851046Y-20939534D01*
X5851046Y-20939534D02*
X5841522Y-20949058D01*
X5841522Y-20949058D02*
X5831998Y-20939534D01*
X5831998Y-20939534D02*
X5841522Y-20930010D01*
X5841522Y-20930010D02*
X5841522Y-20949058D01*
X5974855Y-20749058D02*
X5993903Y-20749058D01*
X5993903Y-20749058D02*
X6012950Y-20758582D01*
X6012950Y-20758582D02*
X6022474Y-20768106D01*
X6022474Y-20768106D02*
X6031998Y-20787153D01*
X6031998Y-20787153D02*
X6041522Y-20825248D01*
X6041522Y-20825248D02*
X6041522Y-20872868D01*
X6041522Y-20872868D02*
X6031998Y-20910963D01*
X6031998Y-20910963D02*
X6022474Y-20930010D01*
X6022474Y-20930010D02*
X6012950Y-20939534D01*
X6012950Y-20939534D02*
X5993903Y-20949058D01*
X5993903Y-20949058D02*
X5974855Y-20949058D01*
X5974855Y-20949058D02*
X5955807Y-20939534D01*
X5955807Y-20939534D02*
X5946284Y-20930010D01*
X5946284Y-20930010D02*
X5936760Y-20910963D01*
X5936760Y-20910963D02*
X5927236Y-20872868D01*
X5927236Y-20872868D02*
X5927236Y-20825248D01*
X5927236Y-20825248D02*
X5936760Y-20787153D01*
X5936760Y-20787153D02*
X5946284Y-20768106D01*
X5946284Y-20768106D02*
X5955807Y-20758582D01*
X5955807Y-20758582D02*
X5974855Y-20749058D01*
X6212950Y-20815725D02*
X6212950Y-20949058D01*
X6165331Y-20739534D02*
X6117712Y-20882391D01*
X6117712Y-20882391D02*
X6241522Y-20882391D01*
X6327236Y-20949058D02*
X6365331Y-20949058D01*
X6365331Y-20949058D02*
X6384379Y-20939534D01*
X6384379Y-20939534D02*
X6393903Y-20930010D01*
X6393903Y-20930010D02*
X6412950Y-20901439D01*
X6412950Y-20901439D02*
X6422474Y-20863344D01*
X6422474Y-20863344D02*
X6422474Y-20787153D01*
X6422474Y-20787153D02*
X6412950Y-20768106D01*
X6412950Y-20768106D02*
X6403427Y-20758582D01*
X6403427Y-20758582D02*
X6384379Y-20749058D01*
X6384379Y-20749058D02*
X6346284Y-20749058D01*
X6346284Y-20749058D02*
X6327236Y-20758582D01*
X6327236Y-20758582D02*
X6317712Y-20768106D01*
X6317712Y-20768106D02*
X6308188Y-20787153D01*
X6308188Y-20787153D02*
X6308188Y-20834772D01*
X6308188Y-20834772D02*
X6317712Y-20853820D01*
X6317712Y-20853820D02*
X6327236Y-20863344D01*
X6327236Y-20863344D02*
X6346284Y-20872868D01*
X6346284Y-20872868D02*
X6384379Y-20872868D01*
X6384379Y-20872868D02*
X6403427Y-20863344D01*
X6403427Y-20863344D02*
X6412950Y-20853820D01*
X6412950Y-20853820D02*
X6422474Y-20834772D01*
X6498665Y-20768106D02*
X6508188Y-20758582D01*
X6508188Y-20758582D02*
X6527236Y-20749058D01*
X6527236Y-20749058D02*
X6574855Y-20749058D01*
X6574855Y-20749058D02*
X6593903Y-20758582D01*
X6593903Y-20758582D02*
X6603427Y-20768106D01*
X6603427Y-20768106D02*
X6612950Y-20787153D01*
X6612950Y-20787153D02*
X6612950Y-20806201D01*
X6612950Y-20806201D02*
X6603427Y-20834772D01*
X6603427Y-20834772D02*
X6489141Y-20949058D01*
X6489141Y-20949058D02*
X6612950Y-20949058D01*
X6689141Y-20749058D02*
X6689141Y-20787153D01*
X6765331Y-20749058D02*
X6765331Y-20787153D01*
X7060570Y-21025248D02*
X7051046Y-21015725D01*
X7051046Y-21015725D02*
X7031998Y-20987153D01*
X7031998Y-20987153D02*
X7022474Y-20968106D01*
X7022474Y-20968106D02*
X7012950Y-20939534D01*
X7012950Y-20939534D02*
X7003427Y-20891915D01*
X7003427Y-20891915D02*
X7003427Y-20853820D01*
X7003427Y-20853820D02*
X7012950Y-20806201D01*
X7012950Y-20806201D02*
X7022474Y-20777629D01*
X7022474Y-20777629D02*
X7031998Y-20758582D01*
X7031998Y-20758582D02*
X7051046Y-20730010D01*
X7051046Y-20730010D02*
X7060570Y-20720487D01*
X7174855Y-20749058D02*
X7193903Y-20749058D01*
X7193903Y-20749058D02*
X7212950Y-20758582D01*
X7212950Y-20758582D02*
X7222474Y-20768106D01*
X7222474Y-20768106D02*
X7231998Y-20787153D01*
X7231998Y-20787153D02*
X7241522Y-20825248D01*
X7241522Y-20825248D02*
X7241522Y-20872868D01*
X7241522Y-20872868D02*
X7231998Y-20910963D01*
X7231998Y-20910963D02*
X7222474Y-20930010D01*
X7222474Y-20930010D02*
X7212950Y-20939534D01*
X7212950Y-20939534D02*
X7193903Y-20949058D01*
X7193903Y-20949058D02*
X7174855Y-20949058D01*
X7174855Y-20949058D02*
X7155808Y-20939534D01*
X7155808Y-20939534D02*
X7146284Y-20930010D01*
X7146284Y-20930010D02*
X7136760Y-20910963D01*
X7136760Y-20910963D02*
X7127236Y-20872868D01*
X7127236Y-20872868D02*
X7127236Y-20825248D01*
X7127236Y-20825248D02*
X7136760Y-20787153D01*
X7136760Y-20787153D02*
X7146284Y-20768106D01*
X7146284Y-20768106D02*
X7155808Y-20758582D01*
X7155808Y-20758582D02*
X7174855Y-20749058D01*
X7479617Y-20949058D02*
X7479617Y-20749058D01*
X7565331Y-20949058D02*
X7565331Y-20844296D01*
X7565331Y-20844296D02*
X7555808Y-20825248D01*
X7555808Y-20825248D02*
X7536760Y-20815725D01*
X7536760Y-20815725D02*
X7508189Y-20815725D01*
X7508189Y-20815725D02*
X7489141Y-20825248D01*
X7489141Y-20825248D02*
X7479617Y-20834772D01*
X7689141Y-20949058D02*
X7670093Y-20939534D01*
X7670093Y-20939534D02*
X7660570Y-20930010D01*
X7660570Y-20930010D02*
X7651046Y-20910963D01*
X7651046Y-20910963D02*
X7651046Y-20853820D01*
X7651046Y-20853820D02*
X7660570Y-20834772D01*
X7660570Y-20834772D02*
X7670093Y-20825248D01*
X7670093Y-20825248D02*
X7689141Y-20815725D01*
X7689141Y-20815725D02*
X7717712Y-20815725D01*
X7717712Y-20815725D02*
X7736760Y-20825248D01*
X7736760Y-20825248D02*
X7746284Y-20834772D01*
X7746284Y-20834772D02*
X7755808Y-20853820D01*
X7755808Y-20853820D02*
X7755808Y-20910963D01*
X7755808Y-20910963D02*
X7746284Y-20930010D01*
X7746284Y-20930010D02*
X7736760Y-20939534D01*
X7736760Y-20939534D02*
X7717712Y-20949058D01*
X7717712Y-20949058D02*
X7689141Y-20949058D01*
X7870093Y-20949058D02*
X7851046Y-20939534D01*
X7851046Y-20939534D02*
X7841522Y-20920487D01*
X7841522Y-20920487D02*
X7841522Y-20749058D01*
X8022474Y-20939534D02*
X8003427Y-20949058D01*
X8003427Y-20949058D02*
X7965331Y-20949058D01*
X7965331Y-20949058D02*
X7946284Y-20939534D01*
X7946284Y-20939534D02*
X7936760Y-20920487D01*
X7936760Y-20920487D02*
X7936760Y-20844296D01*
X7936760Y-20844296D02*
X7946284Y-20825248D01*
X7946284Y-20825248D02*
X7965331Y-20815725D01*
X7965331Y-20815725D02*
X8003427Y-20815725D01*
X8003427Y-20815725D02*
X8022474Y-20825248D01*
X8022474Y-20825248D02*
X8031998Y-20844296D01*
X8031998Y-20844296D02*
X8031998Y-20863344D01*
X8031998Y-20863344D02*
X7936760Y-20882391D01*
X8108189Y-20939534D02*
X8127236Y-20949058D01*
X8127236Y-20949058D02*
X8165331Y-20949058D01*
X8165331Y-20949058D02*
X8184379Y-20939534D01*
X8184379Y-20939534D02*
X8193903Y-20920487D01*
X8193903Y-20920487D02*
X8193903Y-20910963D01*
X8193903Y-20910963D02*
X8184379Y-20891915D01*
X8184379Y-20891915D02*
X8165331Y-20882391D01*
X8165331Y-20882391D02*
X8136760Y-20882391D01*
X8136760Y-20882391D02*
X8117712Y-20872868D01*
X8117712Y-20872868D02*
X8108189Y-20853820D01*
X8108189Y-20853820D02*
X8108189Y-20844296D01*
X8108189Y-20844296D02*
X8117712Y-20825248D01*
X8117712Y-20825248D02*
X8136760Y-20815725D01*
X8136760Y-20815725D02*
X8165331Y-20815725D01*
X8165331Y-20815725D02*
X8184379Y-20825248D01*
X8431998Y-20872868D02*
X8584379Y-20872868D01*
X8508189Y-20949058D02*
X8508189Y-20796677D01*
X8936760Y-20949058D02*
X8822475Y-20949058D01*
X8879617Y-20949058D02*
X8879617Y-20749058D01*
X8879617Y-20749058D02*
X8860570Y-20777629D01*
X8860570Y-20777629D02*
X8841522Y-20796677D01*
X8841522Y-20796677D02*
X8822475Y-20806201D01*
X9012951Y-20768106D02*
X9022475Y-20758582D01*
X9022475Y-20758582D02*
X9041522Y-20749058D01*
X9041522Y-20749058D02*
X9089141Y-20749058D01*
X9089141Y-20749058D02*
X9108189Y-20758582D01*
X9108189Y-20758582D02*
X9117713Y-20768106D01*
X9117713Y-20768106D02*
X9127236Y-20787153D01*
X9127236Y-20787153D02*
X9127236Y-20806201D01*
X9127236Y-20806201D02*
X9117713Y-20834772D01*
X9117713Y-20834772D02*
X9003427Y-20949058D01*
X9003427Y-20949058D02*
X9127236Y-20949058D01*
X9355808Y-20939534D02*
X9374856Y-20949058D01*
X9374856Y-20949058D02*
X9412951Y-20949058D01*
X9412951Y-20949058D02*
X9431998Y-20939534D01*
X9431998Y-20939534D02*
X9441522Y-20920487D01*
X9441522Y-20920487D02*
X9441522Y-20910963D01*
X9441522Y-20910963D02*
X9431998Y-20891915D01*
X9431998Y-20891915D02*
X9412951Y-20882391D01*
X9412951Y-20882391D02*
X9384379Y-20882391D01*
X9384379Y-20882391D02*
X9365332Y-20872868D01*
X9365332Y-20872868D02*
X9355808Y-20853820D01*
X9355808Y-20853820D02*
X9355808Y-20844296D01*
X9355808Y-20844296D02*
X9365332Y-20825248D01*
X9365332Y-20825248D02*
X9384379Y-20815725D01*
X9384379Y-20815725D02*
X9412951Y-20815725D01*
X9412951Y-20815725D02*
X9431998Y-20825248D01*
X9555808Y-20949058D02*
X9536760Y-20939534D01*
X9536760Y-20939534D02*
X9527237Y-20920487D01*
X9527237Y-20920487D02*
X9527237Y-20749058D01*
X9660570Y-20949058D02*
X9641522Y-20939534D01*
X9641522Y-20939534D02*
X9631998Y-20930010D01*
X9631998Y-20930010D02*
X9622475Y-20910963D01*
X9622475Y-20910963D02*
X9622475Y-20853820D01*
X9622475Y-20853820D02*
X9631998Y-20834772D01*
X9631998Y-20834772D02*
X9641522Y-20825248D01*
X9641522Y-20825248D02*
X9660570Y-20815725D01*
X9660570Y-20815725D02*
X9689141Y-20815725D01*
X9689141Y-20815725D02*
X9708189Y-20825248D01*
X9708189Y-20825248D02*
X9717713Y-20834772D01*
X9717713Y-20834772D02*
X9727237Y-20853820D01*
X9727237Y-20853820D02*
X9727237Y-20910963D01*
X9727237Y-20910963D02*
X9717713Y-20930010D01*
X9717713Y-20930010D02*
X9708189Y-20939534D01*
X9708189Y-20939534D02*
X9689141Y-20949058D01*
X9689141Y-20949058D02*
X9660570Y-20949058D01*
X9784379Y-20815725D02*
X9860570Y-20815725D01*
X9812951Y-20749058D02*
X9812951Y-20920487D01*
X9812951Y-20920487D02*
X9822475Y-20939534D01*
X9822475Y-20939534D02*
X9841522Y-20949058D01*
X9841522Y-20949058D02*
X9860570Y-20949058D01*
X9917713Y-20939534D02*
X9936760Y-20949058D01*
X9936760Y-20949058D02*
X9974856Y-20949058D01*
X9974856Y-20949058D02*
X9993903Y-20939534D01*
X9993903Y-20939534D02*
X10003427Y-20920487D01*
X10003427Y-20920487D02*
X10003427Y-20910963D01*
X10003427Y-20910963D02*
X9993903Y-20891915D01*
X9993903Y-20891915D02*
X9974856Y-20882391D01*
X9974856Y-20882391D02*
X9946284Y-20882391D01*
X9946284Y-20882391D02*
X9927237Y-20872868D01*
X9927237Y-20872868D02*
X9917713Y-20853820D01*
X9917713Y-20853820D02*
X9917713Y-20844296D01*
X9917713Y-20844296D02*
X9927237Y-20825248D01*
X9927237Y-20825248D02*
X9946284Y-20815725D01*
X9946284Y-20815725D02*
X9974856Y-20815725D01*
X9974856Y-20815725D02*
X9993903Y-20825248D01*
X10070094Y-21025248D02*
X10079618Y-21015725D01*
X10079618Y-21015725D02*
X10098665Y-20987153D01*
X10098665Y-20987153D02*
X10108189Y-20968106D01*
X10108189Y-20968106D02*
X10117713Y-20939534D01*
X10117713Y-20939534D02*
X10127237Y-20891915D01*
X10127237Y-20891915D02*
X10127237Y-20853820D01*
X10127237Y-20853820D02*
X10117713Y-20806201D01*
X10117713Y-20806201D02*
X10108189Y-20777629D01*
X10108189Y-20777629D02*
X10098665Y-20758582D01*
X10098665Y-20758582D02*
X10079618Y-20730010D01*
X10079618Y-20730010D02*
X10070094Y-20720487D01*
X10431999Y-21025248D02*
X10422475Y-21015725D01*
X10422475Y-21015725D02*
X10403427Y-20987153D01*
X10403427Y-20987153D02*
X10393903Y-20968106D01*
X10393903Y-20968106D02*
X10384379Y-20939534D01*
X10384379Y-20939534D02*
X10374856Y-20891915D01*
X10374856Y-20891915D02*
X10374856Y-20853820D01*
X10374856Y-20853820D02*
X10384379Y-20806201D01*
X10384379Y-20806201D02*
X10393903Y-20777629D01*
X10393903Y-20777629D02*
X10403427Y-20758582D01*
X10403427Y-20758582D02*
X10422475Y-20730010D01*
X10422475Y-20730010D02*
X10431999Y-20720487D01*
X10508189Y-20815725D02*
X10508189Y-20949058D01*
X10508189Y-20834772D02*
X10517713Y-20825248D01*
X10517713Y-20825248D02*
X10536760Y-20815725D01*
X10536760Y-20815725D02*
X10565332Y-20815725D01*
X10565332Y-20815725D02*
X10584379Y-20825248D01*
X10584379Y-20825248D02*
X10593903Y-20844296D01*
X10593903Y-20844296D02*
X10593903Y-20949058D01*
X10717713Y-20949058D02*
X10698665Y-20939534D01*
X10698665Y-20939534D02*
X10689141Y-20930010D01*
X10689141Y-20930010D02*
X10679618Y-20910963D01*
X10679618Y-20910963D02*
X10679618Y-20853820D01*
X10679618Y-20853820D02*
X10689141Y-20834772D01*
X10689141Y-20834772D02*
X10698665Y-20825248D01*
X10698665Y-20825248D02*
X10717713Y-20815725D01*
X10717713Y-20815725D02*
X10746284Y-20815725D01*
X10746284Y-20815725D02*
X10765332Y-20825248D01*
X10765332Y-20825248D02*
X10774856Y-20834772D01*
X10774856Y-20834772D02*
X10784379Y-20853820D01*
X10784379Y-20853820D02*
X10784379Y-20910963D01*
X10784379Y-20910963D02*
X10774856Y-20930010D01*
X10774856Y-20930010D02*
X10765332Y-20939534D01*
X10765332Y-20939534D02*
X10746284Y-20949058D01*
X10746284Y-20949058D02*
X10717713Y-20949058D01*
X10841522Y-20815725D02*
X10917713Y-20815725D01*
X10870094Y-20749058D02*
X10870094Y-20920487D01*
X10870094Y-20920487D02*
X10879618Y-20939534D01*
X10879618Y-20939534D02*
X10898665Y-20949058D01*
X10898665Y-20949058D02*
X10917713Y-20949058D01*
X11136760Y-20815725D02*
X11136760Y-21015725D01*
X11136760Y-20825248D02*
X11155808Y-20815725D01*
X11155808Y-20815725D02*
X11193903Y-20815725D01*
X11193903Y-20815725D02*
X11212951Y-20825248D01*
X11212951Y-20825248D02*
X11222475Y-20834772D01*
X11222475Y-20834772D02*
X11231998Y-20853820D01*
X11231998Y-20853820D02*
X11231998Y-20910963D01*
X11231998Y-20910963D02*
X11222475Y-20930010D01*
X11222475Y-20930010D02*
X11212951Y-20939534D01*
X11212951Y-20939534D02*
X11193903Y-20949058D01*
X11193903Y-20949058D02*
X11155808Y-20949058D01*
X11155808Y-20949058D02*
X11136760Y-20939534D01*
X11346284Y-20949058D02*
X11327237Y-20939534D01*
X11327237Y-20939534D02*
X11317713Y-20920487D01*
X11317713Y-20920487D02*
X11317713Y-20749058D01*
X11508189Y-20949058D02*
X11508189Y-20844296D01*
X11508189Y-20844296D02*
X11498665Y-20825248D01*
X11498665Y-20825248D02*
X11479618Y-20815725D01*
X11479618Y-20815725D02*
X11441522Y-20815725D01*
X11441522Y-20815725D02*
X11422475Y-20825248D01*
X11508189Y-20939534D02*
X11489141Y-20949058D01*
X11489141Y-20949058D02*
X11441522Y-20949058D01*
X11441522Y-20949058D02*
X11422475Y-20939534D01*
X11422475Y-20939534D02*
X11412951Y-20920487D01*
X11412951Y-20920487D02*
X11412951Y-20901439D01*
X11412951Y-20901439D02*
X11422475Y-20882391D01*
X11422475Y-20882391D02*
X11441522Y-20872868D01*
X11441522Y-20872868D02*
X11489141Y-20872868D01*
X11489141Y-20872868D02*
X11508189Y-20863344D01*
X11574856Y-20815725D02*
X11651046Y-20815725D01*
X11603427Y-20749058D02*
X11603427Y-20920487D01*
X11603427Y-20920487D02*
X11612951Y-20939534D01*
X11612951Y-20939534D02*
X11631998Y-20949058D01*
X11631998Y-20949058D02*
X11651046Y-20949058D01*
X11793903Y-20939534D02*
X11774856Y-20949058D01*
X11774856Y-20949058D02*
X11736760Y-20949058D01*
X11736760Y-20949058D02*
X11717713Y-20939534D01*
X11717713Y-20939534D02*
X11708189Y-20920487D01*
X11708189Y-20920487D02*
X11708189Y-20844296D01*
X11708189Y-20844296D02*
X11717713Y-20825248D01*
X11717713Y-20825248D02*
X11736760Y-20815725D01*
X11736760Y-20815725D02*
X11774856Y-20815725D01*
X11774856Y-20815725D02*
X11793903Y-20825248D01*
X11793903Y-20825248D02*
X11803427Y-20844296D01*
X11803427Y-20844296D02*
X11803427Y-20863344D01*
X11803427Y-20863344D02*
X11708189Y-20882391D01*
X11974856Y-20949058D02*
X11974856Y-20749058D01*
X11974856Y-20939534D02*
X11955808Y-20949058D01*
X11955808Y-20949058D02*
X11917713Y-20949058D01*
X11917713Y-20949058D02*
X11898665Y-20939534D01*
X11898665Y-20939534D02*
X11889141Y-20930010D01*
X11889141Y-20930010D02*
X11879618Y-20910963D01*
X11879618Y-20910963D02*
X11879618Y-20853820D01*
X11879618Y-20853820D02*
X11889141Y-20834772D01*
X11889141Y-20834772D02*
X11898665Y-20825248D01*
X11898665Y-20825248D02*
X11917713Y-20815725D01*
X11917713Y-20815725D02*
X11955808Y-20815725D01*
X11955808Y-20815725D02*
X11974856Y-20825248D01*
X12051046Y-21025248D02*
X12060570Y-21015725D01*
X12060570Y-21015725D02*
X12079618Y-20987153D01*
X12079618Y-20987153D02*
X12089141Y-20968106D01*
X12089141Y-20968106D02*
X12098665Y-20939534D01*
X12098665Y-20939534D02*
X12108189Y-20891915D01*
X12108189Y-20891915D02*
X12108189Y-20853820D01*
X12108189Y-20853820D02*
X12098665Y-20806201D01*
X12098665Y-20806201D02*
X12089141Y-20777629D01*
X12089141Y-20777629D02*
X12079618Y-20758582D01*
X12079618Y-20758582D02*
X12060570Y-20730010D01*
X12060570Y-20730010D02*
X12051046Y-20720487D01*
D14*
X3465005Y-21171072D02*
X3465005Y-21072076D01*
X3366009Y-21072076D01*
X3366009Y-21171072D01*
X3465005Y-21171072D01*
D10*
X3851045Y-21213058D02*
X3736760Y-21213058D01*
X3793902Y-21213058D02*
X3793902Y-21013058D01*
X3793902Y-21013058D02*
X3774855Y-21041629D01*
X3774855Y-21041629D02*
X3755807Y-21060677D01*
X3755807Y-21060677D02*
X3736760Y-21070201D01*
X3936760Y-21194010D02*
X3946283Y-21203534D01*
X3946283Y-21203534D02*
X3936760Y-21213058D01*
X3936760Y-21213058D02*
X3927236Y-21203534D01*
X3927236Y-21203534D02*
X3936760Y-21194010D01*
X3936760Y-21194010D02*
X3936760Y-21213058D01*
X4117712Y-21079725D02*
X4117712Y-21213058D01*
X4070093Y-21003534D02*
X4022474Y-21146391D01*
X4022474Y-21146391D02*
X4146283Y-21146391D01*
X4260569Y-21013058D02*
X4279617Y-21013058D01*
X4279617Y-21013058D02*
X4298665Y-21022582D01*
X4298665Y-21022582D02*
X4308188Y-21032106D01*
X4308188Y-21032106D02*
X4317712Y-21051153D01*
X4317712Y-21051153D02*
X4327236Y-21089248D01*
X4327236Y-21089248D02*
X4327236Y-21136868D01*
X4327236Y-21136868D02*
X4317712Y-21174963D01*
X4317712Y-21174963D02*
X4308188Y-21194010D01*
X4308188Y-21194010D02*
X4298665Y-21203534D01*
X4298665Y-21203534D02*
X4279617Y-21213058D01*
X4279617Y-21213058D02*
X4260569Y-21213058D01*
X4260569Y-21213058D02*
X4241522Y-21203534D01*
X4241522Y-21203534D02*
X4231998Y-21194010D01*
X4231998Y-21194010D02*
X4222474Y-21174963D01*
X4222474Y-21174963D02*
X4212950Y-21136868D01*
X4212950Y-21136868D02*
X4212950Y-21089248D01*
X4212950Y-21089248D02*
X4222474Y-21051153D01*
X4222474Y-21051153D02*
X4231998Y-21032106D01*
X4231998Y-21032106D02*
X4241522Y-21022582D01*
X4241522Y-21022582D02*
X4260569Y-21013058D01*
X4451045Y-21013058D02*
X4470093Y-21013058D01*
X4470093Y-21013058D02*
X4489141Y-21022582D01*
X4489141Y-21022582D02*
X4498665Y-21032106D01*
X4498665Y-21032106D02*
X4508188Y-21051153D01*
X4508188Y-21051153D02*
X4517712Y-21089248D01*
X4517712Y-21089248D02*
X4517712Y-21136868D01*
X4517712Y-21136868D02*
X4508188Y-21174963D01*
X4508188Y-21174963D02*
X4498665Y-21194010D01*
X4498665Y-21194010D02*
X4489141Y-21203534D01*
X4489141Y-21203534D02*
X4470093Y-21213058D01*
X4470093Y-21213058D02*
X4451045Y-21213058D01*
X4451045Y-21213058D02*
X4431998Y-21203534D01*
X4431998Y-21203534D02*
X4422474Y-21194010D01*
X4422474Y-21194010D02*
X4412950Y-21174963D01*
X4412950Y-21174963D02*
X4403426Y-21136868D01*
X4403426Y-21136868D02*
X4403426Y-21089248D01*
X4403426Y-21089248D02*
X4412950Y-21051153D01*
X4412950Y-21051153D02*
X4422474Y-21032106D01*
X4422474Y-21032106D02*
X4431998Y-21022582D01*
X4431998Y-21022582D02*
X4451045Y-21013058D01*
X4603426Y-21213058D02*
X4603426Y-21079725D01*
X4603426Y-21098772D02*
X4612950Y-21089248D01*
X4612950Y-21089248D02*
X4631998Y-21079725D01*
X4631998Y-21079725D02*
X4660569Y-21079725D01*
X4660569Y-21079725D02*
X4679617Y-21089248D01*
X4679617Y-21089248D02*
X4689141Y-21108296D01*
X4689141Y-21108296D02*
X4689141Y-21213058D01*
X4689141Y-21108296D02*
X4698665Y-21089248D01*
X4698665Y-21089248D02*
X4717712Y-21079725D01*
X4717712Y-21079725D02*
X4746284Y-21079725D01*
X4746284Y-21079725D02*
X4765331Y-21089248D01*
X4765331Y-21089248D02*
X4774855Y-21108296D01*
X4774855Y-21108296D02*
X4774855Y-21213058D01*
X4870093Y-21213058D02*
X4870093Y-21079725D01*
X4870093Y-21098772D02*
X4879617Y-21089248D01*
X4879617Y-21089248D02*
X4898665Y-21079725D01*
X4898665Y-21079725D02*
X4927236Y-21079725D01*
X4927236Y-21079725D02*
X4946284Y-21089248D01*
X4946284Y-21089248D02*
X4955807Y-21108296D01*
X4955807Y-21108296D02*
X4955807Y-21213058D01*
X4955807Y-21108296D02*
X4965331Y-21089248D01*
X4965331Y-21089248D02*
X4984379Y-21079725D01*
X4984379Y-21079725D02*
X5012950Y-21079725D01*
X5012950Y-21079725D02*
X5031998Y-21089248D01*
X5031998Y-21089248D02*
X5041522Y-21108296D01*
X5041522Y-21108296D02*
X5041522Y-21213058D01*
X5431998Y-21003534D02*
X5260569Y-21260677D01*
X5689141Y-21013058D02*
X5708188Y-21013058D01*
X5708188Y-21013058D02*
X5727236Y-21022582D01*
X5727236Y-21022582D02*
X5736760Y-21032106D01*
X5736760Y-21032106D02*
X5746284Y-21051153D01*
X5746284Y-21051153D02*
X5755807Y-21089248D01*
X5755807Y-21089248D02*
X5755807Y-21136868D01*
X5755807Y-21136868D02*
X5746284Y-21174963D01*
X5746284Y-21174963D02*
X5736760Y-21194010D01*
X5736760Y-21194010D02*
X5727236Y-21203534D01*
X5727236Y-21203534D02*
X5708188Y-21213058D01*
X5708188Y-21213058D02*
X5689141Y-21213058D01*
X5689141Y-21213058D02*
X5670093Y-21203534D01*
X5670093Y-21203534D02*
X5660569Y-21194010D01*
X5660569Y-21194010D02*
X5651046Y-21174963D01*
X5651046Y-21174963D02*
X5641522Y-21136868D01*
X5641522Y-21136868D02*
X5641522Y-21089248D01*
X5641522Y-21089248D02*
X5651046Y-21051153D01*
X5651046Y-21051153D02*
X5660569Y-21032106D01*
X5660569Y-21032106D02*
X5670093Y-21022582D01*
X5670093Y-21022582D02*
X5689141Y-21013058D01*
X5841522Y-21194010D02*
X5851046Y-21203534D01*
X5851046Y-21203534D02*
X5841522Y-21213058D01*
X5841522Y-21213058D02*
X5831998Y-21203534D01*
X5831998Y-21203534D02*
X5841522Y-21194010D01*
X5841522Y-21194010D02*
X5841522Y-21213058D01*
X5974855Y-21013058D02*
X5993903Y-21013058D01*
X5993903Y-21013058D02*
X6012950Y-21022582D01*
X6012950Y-21022582D02*
X6022474Y-21032106D01*
X6022474Y-21032106D02*
X6031998Y-21051153D01*
X6031998Y-21051153D02*
X6041522Y-21089248D01*
X6041522Y-21089248D02*
X6041522Y-21136868D01*
X6041522Y-21136868D02*
X6031998Y-21174963D01*
X6031998Y-21174963D02*
X6022474Y-21194010D01*
X6022474Y-21194010D02*
X6012950Y-21203534D01*
X6012950Y-21203534D02*
X5993903Y-21213058D01*
X5993903Y-21213058D02*
X5974855Y-21213058D01*
X5974855Y-21213058D02*
X5955807Y-21203534D01*
X5955807Y-21203534D02*
X5946284Y-21194010D01*
X5946284Y-21194010D02*
X5936760Y-21174963D01*
X5936760Y-21174963D02*
X5927236Y-21136868D01*
X5927236Y-21136868D02*
X5927236Y-21089248D01*
X5927236Y-21089248D02*
X5936760Y-21051153D01*
X5936760Y-21051153D02*
X5946284Y-21032106D01*
X5946284Y-21032106D02*
X5955807Y-21022582D01*
X5955807Y-21022582D02*
X5974855Y-21013058D01*
X6222474Y-21013058D02*
X6127236Y-21013058D01*
X6127236Y-21013058D02*
X6117712Y-21108296D01*
X6117712Y-21108296D02*
X6127236Y-21098772D01*
X6127236Y-21098772D02*
X6146284Y-21089248D01*
X6146284Y-21089248D02*
X6193903Y-21089248D01*
X6193903Y-21089248D02*
X6212950Y-21098772D01*
X6212950Y-21098772D02*
X6222474Y-21108296D01*
X6222474Y-21108296D02*
X6231998Y-21127344D01*
X6231998Y-21127344D02*
X6231998Y-21174963D01*
X6231998Y-21174963D02*
X6222474Y-21194010D01*
X6222474Y-21194010D02*
X6212950Y-21203534D01*
X6212950Y-21203534D02*
X6193903Y-21213058D01*
X6193903Y-21213058D02*
X6146284Y-21213058D01*
X6146284Y-21213058D02*
X6127236Y-21203534D01*
X6127236Y-21203534D02*
X6117712Y-21194010D01*
X6412950Y-21013058D02*
X6317712Y-21013058D01*
X6317712Y-21013058D02*
X6308188Y-21108296D01*
X6308188Y-21108296D02*
X6317712Y-21098772D01*
X6317712Y-21098772D02*
X6336760Y-21089248D01*
X6336760Y-21089248D02*
X6384379Y-21089248D01*
X6384379Y-21089248D02*
X6403427Y-21098772D01*
X6403427Y-21098772D02*
X6412950Y-21108296D01*
X6412950Y-21108296D02*
X6422474Y-21127344D01*
X6422474Y-21127344D02*
X6422474Y-21174963D01*
X6422474Y-21174963D02*
X6412950Y-21194010D01*
X6412950Y-21194010D02*
X6403427Y-21203534D01*
X6403427Y-21203534D02*
X6384379Y-21213058D01*
X6384379Y-21213058D02*
X6336760Y-21213058D01*
X6336760Y-21213058D02*
X6317712Y-21203534D01*
X6317712Y-21203534D02*
X6308188Y-21194010D01*
X6612950Y-21213058D02*
X6498665Y-21213058D01*
X6555807Y-21213058D02*
X6555807Y-21013058D01*
X6555807Y-21013058D02*
X6536760Y-21041629D01*
X6536760Y-21041629D02*
X6517712Y-21060677D01*
X6517712Y-21060677D02*
X6498665Y-21070201D01*
X6689141Y-21013058D02*
X6689141Y-21051153D01*
X6765331Y-21013058D02*
X6765331Y-21051153D01*
X7060570Y-21289248D02*
X7051046Y-21279725D01*
X7051046Y-21279725D02*
X7031998Y-21251153D01*
X7031998Y-21251153D02*
X7022474Y-21232106D01*
X7022474Y-21232106D02*
X7012950Y-21203534D01*
X7012950Y-21203534D02*
X7003427Y-21155915D01*
X7003427Y-21155915D02*
X7003427Y-21117820D01*
X7003427Y-21117820D02*
X7012950Y-21070201D01*
X7012950Y-21070201D02*
X7022474Y-21041629D01*
X7022474Y-21041629D02*
X7031998Y-21022582D01*
X7031998Y-21022582D02*
X7051046Y-20994010D01*
X7051046Y-20994010D02*
X7060570Y-20984487D01*
X7127236Y-21032106D02*
X7136760Y-21022582D01*
X7136760Y-21022582D02*
X7155808Y-21013058D01*
X7155808Y-21013058D02*
X7203427Y-21013058D01*
X7203427Y-21013058D02*
X7222474Y-21022582D01*
X7222474Y-21022582D02*
X7231998Y-21032106D01*
X7231998Y-21032106D02*
X7241522Y-21051153D01*
X7241522Y-21051153D02*
X7241522Y-21070201D01*
X7241522Y-21070201D02*
X7231998Y-21098772D01*
X7231998Y-21098772D02*
X7117712Y-21213058D01*
X7117712Y-21213058D02*
X7241522Y-21213058D01*
X7479617Y-21213058D02*
X7479617Y-21013058D01*
X7565331Y-21213058D02*
X7565331Y-21108296D01*
X7565331Y-21108296D02*
X7555808Y-21089248D01*
X7555808Y-21089248D02*
X7536760Y-21079725D01*
X7536760Y-21079725D02*
X7508189Y-21079725D01*
X7508189Y-21079725D02*
X7489141Y-21089248D01*
X7489141Y-21089248D02*
X7479617Y-21098772D01*
X7689141Y-21213058D02*
X7670093Y-21203534D01*
X7670093Y-21203534D02*
X7660570Y-21194010D01*
X7660570Y-21194010D02*
X7651046Y-21174963D01*
X7651046Y-21174963D02*
X7651046Y-21117820D01*
X7651046Y-21117820D02*
X7660570Y-21098772D01*
X7660570Y-21098772D02*
X7670093Y-21089248D01*
X7670093Y-21089248D02*
X7689141Y-21079725D01*
X7689141Y-21079725D02*
X7717712Y-21079725D01*
X7717712Y-21079725D02*
X7736760Y-21089248D01*
X7736760Y-21089248D02*
X7746284Y-21098772D01*
X7746284Y-21098772D02*
X7755808Y-21117820D01*
X7755808Y-21117820D02*
X7755808Y-21174963D01*
X7755808Y-21174963D02*
X7746284Y-21194010D01*
X7746284Y-21194010D02*
X7736760Y-21203534D01*
X7736760Y-21203534D02*
X7717712Y-21213058D01*
X7717712Y-21213058D02*
X7689141Y-21213058D01*
X7870093Y-21213058D02*
X7851046Y-21203534D01*
X7851046Y-21203534D02*
X7841522Y-21184487D01*
X7841522Y-21184487D02*
X7841522Y-21013058D01*
X8022474Y-21203534D02*
X8003427Y-21213058D01*
X8003427Y-21213058D02*
X7965331Y-21213058D01*
X7965331Y-21213058D02*
X7946284Y-21203534D01*
X7946284Y-21203534D02*
X7936760Y-21184487D01*
X7936760Y-21184487D02*
X7936760Y-21108296D01*
X7936760Y-21108296D02*
X7946284Y-21089248D01*
X7946284Y-21089248D02*
X7965331Y-21079725D01*
X7965331Y-21079725D02*
X8003427Y-21079725D01*
X8003427Y-21079725D02*
X8022474Y-21089248D01*
X8022474Y-21089248D02*
X8031998Y-21108296D01*
X8031998Y-21108296D02*
X8031998Y-21127344D01*
X8031998Y-21127344D02*
X7936760Y-21146391D01*
X8108189Y-21203534D02*
X8127236Y-21213058D01*
X8127236Y-21213058D02*
X8165331Y-21213058D01*
X8165331Y-21213058D02*
X8184379Y-21203534D01*
X8184379Y-21203534D02*
X8193903Y-21184487D01*
X8193903Y-21184487D02*
X8193903Y-21174963D01*
X8193903Y-21174963D02*
X8184379Y-21155915D01*
X8184379Y-21155915D02*
X8165331Y-21146391D01*
X8165331Y-21146391D02*
X8136760Y-21146391D01*
X8136760Y-21146391D02*
X8117712Y-21136868D01*
X8117712Y-21136868D02*
X8108189Y-21117820D01*
X8108189Y-21117820D02*
X8108189Y-21108296D01*
X8108189Y-21108296D02*
X8117712Y-21089248D01*
X8117712Y-21089248D02*
X8136760Y-21079725D01*
X8136760Y-21079725D02*
X8165331Y-21079725D01*
X8165331Y-21079725D02*
X8184379Y-21089248D01*
X8260570Y-21289248D02*
X8270093Y-21279725D01*
X8270093Y-21279725D02*
X8289141Y-21251153D01*
X8289141Y-21251153D02*
X8298665Y-21232106D01*
X8298665Y-21232106D02*
X8308189Y-21203534D01*
X8308189Y-21203534D02*
X8317712Y-21155915D01*
X8317712Y-21155915D02*
X8317712Y-21117820D01*
X8317712Y-21117820D02*
X8308189Y-21070201D01*
X8308189Y-21070201D02*
X8298665Y-21041629D01*
X8298665Y-21041629D02*
X8289141Y-21022582D01*
X8289141Y-21022582D02*
X8270093Y-20994010D01*
X8270093Y-20994010D02*
X8260570Y-20984487D01*
X8622475Y-21289248D02*
X8612951Y-21279725D01*
X8612951Y-21279725D02*
X8593903Y-21251153D01*
X8593903Y-21251153D02*
X8584379Y-21232106D01*
X8584379Y-21232106D02*
X8574855Y-21203534D01*
X8574855Y-21203534D02*
X8565332Y-21155915D01*
X8565332Y-21155915D02*
X8565332Y-21117820D01*
X8565332Y-21117820D02*
X8574855Y-21070201D01*
X8574855Y-21070201D02*
X8584379Y-21041629D01*
X8584379Y-21041629D02*
X8593903Y-21022582D01*
X8593903Y-21022582D02*
X8612951Y-20994010D01*
X8612951Y-20994010D02*
X8622475Y-20984487D01*
X8698665Y-21079725D02*
X8698665Y-21213058D01*
X8698665Y-21098772D02*
X8708189Y-21089248D01*
X8708189Y-21089248D02*
X8727236Y-21079725D01*
X8727236Y-21079725D02*
X8755808Y-21079725D01*
X8755808Y-21079725D02*
X8774855Y-21089248D01*
X8774855Y-21089248D02*
X8784379Y-21108296D01*
X8784379Y-21108296D02*
X8784379Y-21213058D01*
X8908189Y-21213058D02*
X8889141Y-21203534D01*
X8889141Y-21203534D02*
X8879617Y-21194010D01*
X8879617Y-21194010D02*
X8870094Y-21174963D01*
X8870094Y-21174963D02*
X8870094Y-21117820D01*
X8870094Y-21117820D02*
X8879617Y-21098772D01*
X8879617Y-21098772D02*
X8889141Y-21089248D01*
X8889141Y-21089248D02*
X8908189Y-21079725D01*
X8908189Y-21079725D02*
X8936760Y-21079725D01*
X8936760Y-21079725D02*
X8955808Y-21089248D01*
X8955808Y-21089248D02*
X8965332Y-21098772D01*
X8965332Y-21098772D02*
X8974855Y-21117820D01*
X8974855Y-21117820D02*
X8974855Y-21174963D01*
X8974855Y-21174963D02*
X8965332Y-21194010D01*
X8965332Y-21194010D02*
X8955808Y-21203534D01*
X8955808Y-21203534D02*
X8936760Y-21213058D01*
X8936760Y-21213058D02*
X8908189Y-21213058D01*
X9031998Y-21079725D02*
X9108189Y-21079725D01*
X9060570Y-21013058D02*
X9060570Y-21184487D01*
X9060570Y-21184487D02*
X9070094Y-21203534D01*
X9070094Y-21203534D02*
X9089141Y-21213058D01*
X9089141Y-21213058D02*
X9108189Y-21213058D01*
X9327236Y-21079725D02*
X9327236Y-21279725D01*
X9327236Y-21089248D02*
X9346284Y-21079725D01*
X9346284Y-21079725D02*
X9384379Y-21079725D01*
X9384379Y-21079725D02*
X9403427Y-21089248D01*
X9403427Y-21089248D02*
X9412951Y-21098772D01*
X9412951Y-21098772D02*
X9422475Y-21117820D01*
X9422475Y-21117820D02*
X9422475Y-21174963D01*
X9422475Y-21174963D02*
X9412951Y-21194010D01*
X9412951Y-21194010D02*
X9403427Y-21203534D01*
X9403427Y-21203534D02*
X9384379Y-21213058D01*
X9384379Y-21213058D02*
X9346284Y-21213058D01*
X9346284Y-21213058D02*
X9327236Y-21203534D01*
X9536760Y-21213058D02*
X9517713Y-21203534D01*
X9517713Y-21203534D02*
X9508189Y-21184487D01*
X9508189Y-21184487D02*
X9508189Y-21013058D01*
X9698665Y-21213058D02*
X9698665Y-21108296D01*
X9698665Y-21108296D02*
X9689141Y-21089248D01*
X9689141Y-21089248D02*
X9670094Y-21079725D01*
X9670094Y-21079725D02*
X9631998Y-21079725D01*
X9631998Y-21079725D02*
X9612951Y-21089248D01*
X9698665Y-21203534D02*
X9679617Y-21213058D01*
X9679617Y-21213058D02*
X9631998Y-21213058D01*
X9631998Y-21213058D02*
X9612951Y-21203534D01*
X9612951Y-21203534D02*
X9603427Y-21184487D01*
X9603427Y-21184487D02*
X9603427Y-21165439D01*
X9603427Y-21165439D02*
X9612951Y-21146391D01*
X9612951Y-21146391D02*
X9631998Y-21136868D01*
X9631998Y-21136868D02*
X9679617Y-21136868D01*
X9679617Y-21136868D02*
X9698665Y-21127344D01*
X9765332Y-21079725D02*
X9841522Y-21079725D01*
X9793903Y-21013058D02*
X9793903Y-21184487D01*
X9793903Y-21184487D02*
X9803427Y-21203534D01*
X9803427Y-21203534D02*
X9822475Y-21213058D01*
X9822475Y-21213058D02*
X9841522Y-21213058D01*
X9984379Y-21203534D02*
X9965332Y-21213058D01*
X9965332Y-21213058D02*
X9927236Y-21213058D01*
X9927236Y-21213058D02*
X9908189Y-21203534D01*
X9908189Y-21203534D02*
X9898665Y-21184487D01*
X9898665Y-21184487D02*
X9898665Y-21108296D01*
X9898665Y-21108296D02*
X9908189Y-21089248D01*
X9908189Y-21089248D02*
X9927236Y-21079725D01*
X9927236Y-21079725D02*
X9965332Y-21079725D01*
X9965332Y-21079725D02*
X9984379Y-21089248D01*
X9984379Y-21089248D02*
X9993903Y-21108296D01*
X9993903Y-21108296D02*
X9993903Y-21127344D01*
X9993903Y-21127344D02*
X9898665Y-21146391D01*
X10165332Y-21213058D02*
X10165332Y-21013058D01*
X10165332Y-21203534D02*
X10146284Y-21213058D01*
X10146284Y-21213058D02*
X10108189Y-21213058D01*
X10108189Y-21213058D02*
X10089141Y-21203534D01*
X10089141Y-21203534D02*
X10079617Y-21194010D01*
X10079617Y-21194010D02*
X10070094Y-21174963D01*
X10070094Y-21174963D02*
X10070094Y-21117820D01*
X10070094Y-21117820D02*
X10079617Y-21098772D01*
X10079617Y-21098772D02*
X10089141Y-21089248D01*
X10089141Y-21089248D02*
X10108189Y-21079725D01*
X10108189Y-21079725D02*
X10146284Y-21079725D01*
X10146284Y-21079725D02*
X10165332Y-21089248D01*
X10241522Y-21289248D02*
X10251046Y-21279725D01*
X10251046Y-21279725D02*
X10270094Y-21251153D01*
X10270094Y-21251153D02*
X10279617Y-21232106D01*
X10279617Y-21232106D02*
X10289141Y-21203534D01*
X10289141Y-21203534D02*
X10298665Y-21155915D01*
X10298665Y-21155915D02*
X10298665Y-21117820D01*
X10298665Y-21117820D02*
X10289141Y-21070201D01*
X10289141Y-21070201D02*
X10279617Y-21041629D01*
X10279617Y-21041629D02*
X10270094Y-21022582D01*
X10270094Y-21022582D02*
X10251046Y-20994010D01*
X10251046Y-20994010D02*
X10241522Y-20984487D01*
M02*
