G04 #@! TF.GenerationSoftware,KiCad,Pcbnew,7.0.11-2.fc39*
G04 #@! TF.CreationDate,2024-06-13T18:25:34+01:00*
G04 #@! TF.ProjectId,msf-owl-clock,6d73662d-6f77-46c2-9d63-6c6f636b2e6b,0.1*
G04 #@! TF.SameCoordinates,Original*
G04 #@! TF.FileFunction,Profile,NP*
%FSLAX46Y46*%
G04 Gerber Fmt 4.6, Leading zero omitted, Abs format (unit mm)*
G04 Created by KiCad (PCBNEW 7.0.11-2.fc39) date 2024-06-13 18:25:34*
%MOMM*%
%LPD*%
G01*
G04 APERTURE LIST*
G04 #@! TA.AperFunction,Profile*
%ADD10C,0.200000*%
G04 #@! TD*
G04 APERTURE END LIST*
D10*
X122449992Y-164156217D02*
X122323668Y-164006850D01*
X122222926Y-163861354D02*
X122149223Y-163718481D01*
X123414283Y-165004814D02*
X122967866Y-164640030D01*
X38460143Y-97223347D02*
X39074579Y-95386086D01*
X155362496Y-33177789D02*
X155228909Y-32674533D01*
X136211280Y-154873454D02*
X137237403Y-154021525D01*
X36267909Y-167032126D02*
X36458862Y-167008924D01*
X43530538Y-84645110D02*
X45251504Y-81176830D01*
X40595672Y-40468386D02*
X41146492Y-39631629D01*
X35744432Y-125602808D02*
X35273267Y-122600356D01*
X38401738Y-44340055D02*
X39048437Y-43181291D01*
X122237356Y-162999767D02*
X122356521Y-162846416D01*
X143517882Y-153859470D02*
X143618754Y-154286569D01*
X37888724Y-99073578D02*
X38460143Y-97223347D01*
X44884785Y-32153691D02*
X44978458Y-31616359D01*
X160389864Y-137072787D02*
X161644667Y-134312577D01*
X66162637Y-26647901D02*
X69751547Y-28117029D01*
X35130111Y-196794567D02*
X35130111Y-168033611D01*
X143384783Y-150748858D02*
X143407025Y-151435471D01*
X137375498Y-25051170D02*
X133836807Y-26649088D01*
X164255033Y-125603995D02*
X164726199Y-122601542D01*
X143459810Y-153341153D02*
X143517882Y-153859470D01*
X45099181Y-30483515D02*
X45123777Y-29885435D01*
X161539319Y-97224534D02*
X160924882Y-95387273D01*
X160382715Y-166869226D02*
X159428728Y-166858164D01*
X163731565Y-167033301D02*
X163540612Y-167010099D01*
X156468913Y-84646300D02*
X154747944Y-81178020D01*
X164990749Y-119570824D02*
X165044205Y-118048902D01*
X160951016Y-43182481D02*
X160462627Y-42234129D01*
X36884510Y-102812213D02*
X37362716Y-100936594D01*
X138962938Y-166953349D02*
X132810715Y-166987483D01*
X38149687Y-70464084D02*
X37209295Y-68053202D01*
X52088770Y-152172369D02*
X50877794Y-151230790D01*
X56614676Y-150747683D02*
X56592434Y-151434296D01*
X148807689Y-166888665D02*
X138962938Y-166953349D01*
X35008718Y-119569637D02*
X34955263Y-118047714D01*
X157328930Y-142301724D02*
X158949857Y-139740142D01*
X154959675Y-27950329D02*
X155091958Y-27117656D01*
X39261176Y-72804415D02*
X38149687Y-70464084D01*
X156451959Y-143538813D02*
X157328930Y-142301724D01*
X55034168Y-154551447D02*
X54760548Y-154364602D01*
X36417929Y-128564077D02*
X35744432Y-125602808D01*
X37362716Y-100936594D02*
X37888724Y-99073578D01*
X61036524Y-166952174D02*
X67188745Y-166986308D01*
X119202298Y-31666378D02*
X115434963Y-32533865D01*
X144720981Y-154689632D02*
X144965288Y-154552621D01*
X41964127Y-77216742D02*
X40535433Y-75060024D01*
X130247897Y-28118215D02*
X126611011Y-29449905D01*
X158084823Y-88171577D02*
X156468913Y-84646300D01*
X44468092Y-144743433D02*
X43547497Y-143537630D01*
X44216076Y-166850345D02*
X47376088Y-166863768D01*
X164238821Y-108514048D02*
X163918385Y-106601717D01*
X158382553Y-15031751D02*
X158321968Y-14659569D01*
X144293233Y-21503559D02*
X140861721Y-23333111D01*
X163882416Y-50392993D02*
X163548511Y-49154157D01*
X73388432Y-29448719D02*
X77071046Y-30634323D01*
X143252107Y-149416500D02*
X143337656Y-150069315D01*
X158035329Y-77217932D02*
X159464025Y-75061214D01*
X122967866Y-164640030D02*
X122600438Y-164310704D01*
X49706694Y-150246621D02*
X48576008Y-149221475D01*
X157757620Y-37998953D02*
X157232735Y-37181289D01*
X35467777Y-54165430D02*
X35626499Y-52899805D01*
X154904149Y-28620722D02*
X154959675Y-27950329D01*
X65900594Y-156503512D02*
X64833608Y-155702161D01*
X157136766Y-166849738D02*
X155783394Y-166851520D01*
X37209295Y-68053202D02*
X36448331Y-65585937D01*
X154949119Y-31061252D02*
X154900270Y-30484706D01*
X122356521Y-162846416D02*
X122512935Y-162686950D01*
X137237403Y-154021525D02*
X139240722Y-152277462D01*
X38054286Y-166906008D02*
X38780504Y-166884248D01*
X164674148Y-57988733D02*
X164681235Y-56712260D01*
X35804293Y-167113168D02*
X35941587Y-167084195D01*
X143879923Y-154713182D02*
X144003045Y-154788482D01*
X164372960Y-52900995D02*
X164156885Y-51642529D01*
X43538928Y-79260401D02*
X41964127Y-77216742D01*
X155315415Y-26202005D02*
X155611137Y-25218686D01*
X122928396Y-30635509D02*
X119202298Y-31666378D01*
X77071046Y-30634323D02*
X80797144Y-31665192D01*
X161218968Y-166885423D02*
X160382715Y-166869226D01*
X158089530Y-13998408D02*
X157912949Y-13713257D01*
X164799723Y-167423713D02*
X164763183Y-167377002D01*
X143337656Y-150069315D02*
X143384783Y-150748858D01*
X122512935Y-162686950D02*
X122708058Y-162520121D01*
X164869359Y-196795742D02*
X164869359Y-168034786D01*
X164613873Y-59265279D02*
X164674148Y-57988733D01*
X56309988Y-154458593D02*
X56223495Y-154601617D01*
X37819680Y-45518376D02*
X38401738Y-44340055D01*
X56223495Y-154601617D02*
X56119534Y-154712007D01*
X68108228Y-157994682D02*
X66991385Y-157269847D01*
X154747944Y-81178020D02*
X156460525Y-79261591D01*
X125837544Y-160770595D02*
X127118372Y-160350520D01*
X77894516Y-163291940D02*
X77845474Y-163147075D01*
X162110740Y-99074765D02*
X161539319Y-97224534D01*
X128361907Y-159856524D02*
X129570396Y-159295092D01*
X164848972Y-167524562D02*
X164827999Y-167472883D01*
X163918385Y-106601717D02*
X163542966Y-104701440D01*
X48576008Y-149221475D02*
X47486269Y-148156969D01*
X45251504Y-81176830D02*
X43538928Y-79260401D01*
X35576630Y-167177261D02*
X35682962Y-167144173D01*
X35760647Y-108512859D02*
X36081083Y-106600529D01*
X74242974Y-167017086D02*
X74888666Y-166410604D01*
X164720077Y-111955138D02*
X164501881Y-110438251D01*
X36117042Y-50391803D02*
X36450946Y-49152967D01*
X35318225Y-56711069D02*
X35365366Y-55436442D01*
X158321968Y-14659569D02*
X158225082Y-14314483D01*
X77762100Y-162998592D02*
X77642935Y-162845241D01*
X164827999Y-167472883D02*
X164799723Y-167423713D01*
X77910684Y-163434435D02*
X77894516Y-163291940D01*
X44978458Y-31616359D02*
X45050332Y-31060062D01*
X158349311Y-166851810D02*
X157136766Y-166849738D01*
X77291399Y-162518946D02*
X77056110Y-162343504D01*
X164863606Y-167578806D02*
X164848972Y-167524562D01*
X34955263Y-118047714D02*
X34955067Y-116523570D01*
X162709985Y-131472430D02*
X163581534Y-128565263D01*
X56380704Y-154285394D02*
X56309988Y-154458593D01*
X35130111Y-168033611D02*
X35120379Y-167756280D01*
X159943610Y-41333254D02*
X159403782Y-40469576D01*
X164316511Y-167145348D02*
X164195180Y-167114343D01*
X160462627Y-42234129D02*
X159943610Y-41333254D01*
X35279391Y-111953948D02*
X35497587Y-110437061D01*
X144965288Y-154552621D02*
X145238908Y-154365777D01*
X84564478Y-32532679D02*
X88370805Y-33228136D01*
X55685918Y-154822806D02*
X55495161Y-154778091D01*
X70429063Y-159293918D02*
X69253371Y-158671534D01*
X144504295Y-154779266D02*
X144720981Y-154689632D01*
X147910685Y-152173546D02*
X149121661Y-151231968D01*
X164195180Y-167114343D02*
X164057886Y-167085370D01*
X115434963Y-32533865D02*
X111628635Y-33229321D01*
X153561442Y-147055898D02*
X154567680Y-145917515D01*
X122149223Y-163718481D02*
X122104019Y-163576982D01*
X155960212Y-24183008D02*
X157511836Y-19822888D01*
X52331661Y-19569973D02*
X55706214Y-21502371D01*
X43263321Y-36348242D02*
X43721823Y-35491917D01*
X56481576Y-153858295D02*
X56380704Y-154285394D01*
X155611137Y-25218686D02*
X155960212Y-24183008D01*
X36448331Y-65585937D02*
X35875126Y-63076460D01*
X77486521Y-162685775D02*
X77291399Y-162518946D01*
X159403782Y-40469576D02*
X158852962Y-39632819D01*
X41677483Y-14658377D02*
X41774369Y-14313291D01*
X157511836Y-19822888D02*
X157844020Y-18755051D01*
X126611011Y-29449905D02*
X122928396Y-30635509D01*
X157912949Y-13713257D02*
X157692975Y-13460943D01*
X35008666Y-114998817D02*
X35116595Y-113475072D01*
X133008073Y-157271022D02*
X134098863Y-156504687D01*
X49016311Y-17543377D02*
X52331661Y-19569973D01*
X163548511Y-49154157D02*
X163154131Y-47927793D01*
X164717417Y-167332694D02*
X164661462Y-167290737D01*
X150983137Y-17544567D02*
X147667786Y-19571162D01*
X69253371Y-158671534D02*
X68108228Y-157994682D01*
X37301224Y-46714482D02*
X37819680Y-45518376D01*
X159464025Y-75061214D02*
X160738284Y-72805605D01*
X56568457Y-152750101D02*
X56539648Y-153339978D01*
X76094661Y-161753025D02*
X75226123Y-161293426D01*
X39616758Y-166868051D02*
X40570744Y-166856989D01*
X38780504Y-166884248D02*
X39616758Y-166868051D01*
X164882873Y-113476261D02*
X164720077Y-111955138D01*
X35338011Y-167289562D02*
X35405117Y-167249902D01*
X41883357Y-17725518D02*
X41690303Y-16751982D01*
X164763183Y-167377002D02*
X164717417Y-167332694D01*
X157232735Y-37181289D02*
X156736132Y-36349433D01*
X43933718Y-35051366D02*
X44132406Y-34600843D01*
X154900270Y-30484706D02*
X154875674Y-29886625D01*
X122708058Y-162520121D02*
X122943347Y-162344679D01*
X160738284Y-72805605D02*
X161849774Y-70465274D01*
X163329848Y-166988715D02*
X163098311Y-166969094D01*
X37430405Y-166933756D02*
X38054286Y-166906008D01*
X56884860Y-148808895D02*
X56747352Y-149415325D01*
X160924882Y-95387273D02*
X160269820Y-93563164D01*
X145238908Y-154365777D02*
X145543534Y-154126642D01*
X67188745Y-166986308D02*
X74242974Y-167017086D01*
X163551131Y-65587128D02*
X164124336Y-63077650D01*
X156277630Y-35493107D02*
X156065734Y-35052556D01*
X44132406Y-34600843D02*
X44316660Y-34139065D01*
X45039774Y-27949139D02*
X44907491Y-27116466D01*
X35236289Y-167375827D02*
X35282056Y-167331519D01*
X45431775Y-145916333D02*
X44468092Y-144743433D01*
X164501881Y-110438251D02*
X164238821Y-108514048D01*
X158404271Y-15849751D02*
X158409199Y-15429116D01*
X139240722Y-152277462D02*
X143114598Y-148810070D01*
X156736132Y-36349433D02*
X156277630Y-35493107D01*
X103907987Y-34069548D02*
X99998158Y-34197023D01*
X164156885Y-51642529D02*
X163882416Y-50392993D01*
X111628635Y-33229321D02*
X107785561Y-33744098D01*
X41595180Y-15848559D02*
X41590252Y-15427924D01*
X129570396Y-159295092D02*
X130746088Y-158672709D01*
X47486269Y-148156969D02*
X46438013Y-147054717D01*
X157692975Y-13460943D02*
X157427243Y-13243380D01*
X131891231Y-157995857D02*
X133008073Y-157271022D01*
X157427243Y-13243380D02*
X154237037Y-15432424D01*
X149121661Y-151231968D02*
X150292760Y-150247799D01*
X122153981Y-163148250D02*
X122237356Y-162999767D01*
X145880858Y-153832758D02*
X146660367Y-153070919D01*
X62623948Y-25049983D02*
X66162637Y-26647901D01*
X154876558Y-29265725D02*
X154904149Y-28620722D01*
X123904797Y-161754200D02*
X124773336Y-161294601D01*
X45762412Y-15431233D02*
X49016311Y-17543377D01*
X164124336Y-63077650D02*
X164501452Y-60540128D01*
X164515137Y-167213661D02*
X164422843Y-167178436D01*
X159576527Y-91752390D02*
X158084823Y-88171577D01*
X147667786Y-19571162D02*
X144293233Y-21503559D01*
X163903669Y-167058374D02*
X163731565Y-167033301D01*
X63788177Y-154872279D02*
X62762053Y-154020350D01*
X162569069Y-166934931D02*
X161945187Y-166907183D01*
X55852437Y-154825059D02*
X55685918Y-154822806D01*
X41909920Y-13997216D02*
X42086501Y-13712065D01*
X122943347Y-162344679D02*
X123220261Y-162159378D01*
X39609595Y-137071602D02*
X38354793Y-134311391D01*
X124497412Y-165880702D02*
X123414283Y-165004814D01*
X43721823Y-35491917D02*
X43933718Y-35051366D01*
X77399016Y-164309529D02*
X77549462Y-164155042D01*
X143689470Y-154459768D02*
X143775962Y-154602792D01*
X36456502Y-104700253D02*
X36884510Y-102812213D01*
X164594356Y-167251077D02*
X164515137Y-167213661D01*
X51191778Y-166887490D02*
X61036524Y-166952174D01*
X144147019Y-154826234D02*
X144313539Y-154823981D01*
X76585171Y-165003639D02*
X77031588Y-164638855D01*
X36450946Y-49152967D02*
X36845326Y-47926603D01*
X158409199Y-15429116D02*
X158382553Y-15031751D01*
X158225082Y-14314483D02*
X158089530Y-13998408D01*
X35273267Y-122600356D02*
X35008718Y-119569637D01*
X38354793Y-134311391D02*
X37289477Y-131471244D01*
X45095301Y-28619531D02*
X45039774Y-27949139D01*
X56661803Y-150068140D02*
X56614676Y-150747683D01*
X39729639Y-93561976D02*
X40422930Y-91751202D01*
X35497587Y-110437061D02*
X35760647Y-108512859D01*
X163114956Y-102813400D02*
X162636750Y-100937781D01*
X161849774Y-70465274D02*
X162790167Y-68054392D01*
X41146492Y-39631629D02*
X42241833Y-37997763D01*
X135165849Y-155703336D02*
X136211280Y-154873454D01*
X42086501Y-13712065D02*
X42306476Y-13459751D01*
X77845474Y-163147075D02*
X77762100Y-162998592D01*
X77056110Y-162343504D02*
X76779197Y-162158203D01*
X56747352Y-149415325D02*
X56661803Y-150068140D01*
X127118372Y-160350520D02*
X128361907Y-159856524D01*
X99893971Y-196794734D02*
X35130111Y-196794567D01*
X156065734Y-35052556D02*
X155867046Y-34602034D01*
X41774369Y-14313291D02*
X41909920Y-13997216D01*
X164057886Y-167085370D02*
X163903669Y-167058374D01*
X35199749Y-167422539D02*
X35236289Y-167375827D01*
X155020993Y-31617549D02*
X154949119Y-31061252D01*
X162698232Y-46715673D02*
X162179774Y-45519566D01*
X35135865Y-167577631D02*
X35150500Y-167523387D01*
X164877704Y-167695199D02*
X164872863Y-167635667D01*
X44388313Y-25217496D02*
X44039238Y-24181818D01*
X42306476Y-13459751D02*
X42572207Y-13242188D01*
X161945187Y-166907183D02*
X161218968Y-166885423D01*
X35842573Y-51641339D02*
X36117042Y-50391803D01*
X36081083Y-106600529D02*
X36456502Y-104700253D01*
X164501452Y-60540128D02*
X164613873Y-59265279D01*
X53339089Y-153069744D02*
X52088770Y-152172369D01*
X47376088Y-166863768D02*
X51191778Y-166887490D01*
X55278475Y-154688457D02*
X55034168Y-154551447D01*
X158852962Y-39632819D02*
X157757620Y-37998953D01*
X163581534Y-128565263D02*
X164255033Y-125603995D01*
X36901162Y-166967919D02*
X37430405Y-166933756D01*
X88370805Y-33228136D02*
X92213878Y-33742913D01*
X165044205Y-118048902D02*
X165044401Y-116524758D01*
X42862705Y-166848563D02*
X44216076Y-166850345D01*
X74161915Y-160769420D02*
X72881087Y-160349345D01*
X77895436Y-163575807D02*
X77910684Y-163434435D01*
X163154131Y-47927793D02*
X162698232Y-46715673D01*
X35682962Y-167144173D02*
X35804293Y-167113168D01*
X39536826Y-42232939D02*
X40055844Y-41332064D01*
X144313539Y-154823981D02*
X144504295Y-154779266D01*
X44485252Y-33664745D02*
X44636955Y-33176599D01*
X45123777Y-29885435D02*
X45122892Y-29264535D01*
X76779197Y-162158203D02*
X76094661Y-161753025D01*
X42487615Y-19821697D02*
X42155431Y-18753860D01*
X155114666Y-32154881D02*
X155020993Y-31617549D01*
X66991385Y-157269847D02*
X65900594Y-156503512D01*
X164990802Y-115000006D02*
X164882873Y-113476261D01*
X155783394Y-166851520D02*
X152623381Y-166864943D01*
X164422843Y-167178436D02*
X164316511Y-167145348D01*
X163542966Y-104701440D02*
X163114956Y-102813400D01*
X162790167Y-68054392D02*
X163551131Y-65587128D01*
X41914631Y-88170388D02*
X43530538Y-84645110D01*
X69751547Y-28117029D02*
X73388432Y-29448719D01*
X41590252Y-15427924D02*
X41616898Y-15030559D01*
X125110789Y-166411779D02*
X124497412Y-165880702D01*
X44907491Y-27116466D02*
X44684034Y-26200815D01*
X164726199Y-122601542D02*
X164990749Y-119570824D01*
X80797144Y-31665192D02*
X84564478Y-32532679D01*
X154567680Y-145917515D02*
X155531364Y-144744615D01*
X59137725Y-23331924D02*
X62623948Y-25049983D01*
X125756482Y-167018260D02*
X125110789Y-166411779D01*
X164872863Y-167635667D02*
X164863606Y-167578806D01*
X44039238Y-24181818D02*
X42487615Y-19821697D01*
X44316660Y-34139065D02*
X44485252Y-33664745D01*
X77642935Y-162845241D02*
X77486521Y-162685775D01*
X150292760Y-150247799D02*
X151423447Y-149222655D01*
X122104019Y-163576982D02*
X122088771Y-163435610D01*
X35405117Y-167249902D02*
X35484336Y-167212486D01*
X44684034Y-26200815D02*
X44388313Y-25217496D01*
X36095805Y-167057199D02*
X36267909Y-167032126D01*
X55495161Y-154778091D02*
X55278475Y-154688457D01*
X162636750Y-100937781D02*
X162110740Y-99074765D01*
X42572207Y-13242188D02*
X45762412Y-15431233D01*
X36458862Y-167008924D02*
X36669625Y-166987540D01*
X34955067Y-116523570D02*
X35008666Y-114998817D01*
X157844020Y-18755051D02*
X158116094Y-17726710D01*
X35121767Y-167694024D02*
X35126609Y-167634492D01*
X92213878Y-33742913D02*
X96091451Y-34068363D01*
X35498010Y-60538938D02*
X35385589Y-59264089D01*
X55706214Y-21502371D02*
X59137725Y-23331924D01*
X165044401Y-116524758D02*
X164990802Y-115000006D01*
X130746088Y-158672709D02*
X131891231Y-157995857D01*
X40535433Y-75060024D02*
X39261176Y-72804415D01*
X164879092Y-167757455D02*
X164877704Y-167695199D01*
X122104939Y-163293115D02*
X122153981Y-163148250D01*
X44770542Y-32673342D02*
X44884785Y-32153691D01*
X39048437Y-43181291D02*
X39536826Y-42232939D01*
X143431002Y-152751276D02*
X143459810Y-153341153D01*
X77549462Y-164155042D02*
X77675786Y-164005675D01*
X154875674Y-29886625D02*
X154876558Y-29265725D01*
X124773336Y-161294601D02*
X125837544Y-160770595D01*
X155682792Y-34140255D02*
X155514200Y-33665935D01*
X143775962Y-154602792D02*
X143879923Y-154713182D01*
X155867046Y-34602034D02*
X155682792Y-34140255D01*
X71637552Y-159855349D02*
X70429063Y-159293918D01*
X39074579Y-95386086D02*
X39729639Y-93561976D01*
X154237037Y-15432424D02*
X150983137Y-17544567D01*
X145543534Y-154126642D02*
X145880858Y-153832758D01*
X40422930Y-91751202D02*
X41914631Y-88170388D01*
X163098311Y-166969094D02*
X162569069Y-166934931D01*
X144003045Y-154788482D02*
X144147019Y-154826234D01*
X43547497Y-143537630D02*
X42670527Y-142300540D01*
X42670527Y-142300540D02*
X41049601Y-139738957D01*
X143618754Y-154286569D02*
X143689470Y-154459768D01*
X122600438Y-164310704D02*
X122449992Y-164156217D01*
X164634094Y-55437632D02*
X164531683Y-54166620D01*
X35120379Y-167756280D02*
X35121767Y-167694024D01*
X36669625Y-166987540D02*
X36901162Y-166967919D01*
X50877794Y-151230790D02*
X49706694Y-150246621D01*
X35282056Y-167331519D02*
X35338011Y-167289562D01*
X123220261Y-162159378D02*
X123904797Y-161754200D01*
X35941587Y-167084195D02*
X36095805Y-167057199D01*
X60758735Y-152276287D02*
X56884860Y-148808895D01*
X35626499Y-52899805D02*
X35842573Y-51641339D01*
X75502042Y-165879527D02*
X76585171Y-165003639D01*
X56592434Y-151434296D02*
X56568457Y-152750101D01*
X35325313Y-57987542D02*
X35318225Y-56711069D01*
X146660367Y-153070919D02*
X147910685Y-152173546D01*
X160269820Y-93563164D02*
X159576527Y-91752390D01*
X156460525Y-79261591D02*
X158035329Y-77217932D01*
X164661462Y-167290737D02*
X164594356Y-167251077D01*
X35365366Y-55436442D02*
X35467777Y-54165430D01*
X40570744Y-166856989D02*
X41650160Y-166850635D01*
X41049601Y-139738957D02*
X39609595Y-137071602D01*
X41690303Y-16751982D02*
X41595180Y-15848559D01*
X44636955Y-33176599D02*
X44770542Y-32673342D01*
X159428728Y-166858164D02*
X158349311Y-166851810D01*
X107785561Y-33744098D02*
X103907987Y-34069548D01*
X62762053Y-154020350D02*
X60758735Y-152276287D01*
X35116595Y-113475072D02*
X35279391Y-111953948D01*
X37289477Y-131471244D02*
X36417929Y-128564077D01*
X64833608Y-155702161D02*
X63788177Y-154872279D01*
X96091451Y-34068363D02*
X100001278Y-34195838D01*
X54118598Y-153831583D02*
X53339089Y-153069744D01*
X54760548Y-154364602D02*
X54455922Y-154125467D01*
X45050332Y-31060062D02*
X45099181Y-30483515D01*
X161644667Y-134312577D02*
X162709985Y-131472430D01*
X134098863Y-156504687D02*
X135165849Y-155703336D01*
X56119534Y-154712007D02*
X55996412Y-154787307D01*
X35875126Y-63076460D02*
X35498010Y-60538938D01*
X45122892Y-29264535D02*
X45095301Y-28619531D01*
X75226123Y-161293426D02*
X74161915Y-160769420D01*
X77776529Y-163860179D02*
X77850232Y-163717306D01*
X122323668Y-164006850D02*
X122222926Y-163861354D01*
X35171473Y-167471708D02*
X35199749Y-167422539D01*
X162179774Y-45519566D02*
X161597716Y-44341245D01*
X155228909Y-32674533D02*
X155114666Y-32154881D01*
X35126609Y-167634492D02*
X35135865Y-167577631D01*
X152623381Y-166864943D02*
X148807689Y-166888665D01*
X164531683Y-54166620D02*
X164372960Y-52900995D01*
X36845326Y-47926603D02*
X37301224Y-46714482D01*
X74888666Y-166410604D02*
X75502042Y-165879527D01*
X164869359Y-168034786D02*
X164879092Y-167757455D01*
X54455922Y-154125467D02*
X54118598Y-153831583D01*
X77675786Y-164005675D02*
X77776529Y-163860179D01*
X155514200Y-33665935D02*
X155362496Y-33177789D01*
X55996412Y-154787307D02*
X55852437Y-154825059D01*
X41616898Y-15030559D02*
X41677483Y-14658377D01*
X132810715Y-166987483D02*
X125756482Y-167018260D01*
X42766718Y-37180099D02*
X43263321Y-36348242D01*
X72881087Y-160349345D02*
X71637552Y-159855349D01*
X161597716Y-44341245D02*
X160951016Y-43182481D01*
X40055844Y-41332064D02*
X40595672Y-40468386D01*
X143407025Y-151435471D02*
X143431002Y-152751276D01*
X164681235Y-56712260D02*
X164634094Y-55437632D01*
X77031588Y-164638855D02*
X77399016Y-164309529D01*
X122088771Y-163435610D02*
X122104939Y-163293115D01*
X56539648Y-153339978D02*
X56481576Y-153858295D01*
X155091958Y-27117656D02*
X155315415Y-26202005D01*
X158309148Y-16753173D02*
X158404271Y-15849751D01*
X42155431Y-18753860D02*
X41883357Y-17725518D01*
X77850232Y-163717306D02*
X77895436Y-163575807D01*
X41650160Y-166850635D02*
X42862705Y-166848563D01*
X158949857Y-139740142D02*
X160389864Y-137072787D01*
X163540612Y-167010099D02*
X163329848Y-166988715D01*
X133836807Y-26649088D02*
X130247897Y-28118215D01*
X35385589Y-59264089D02*
X35325313Y-57987542D01*
X151423447Y-149222655D02*
X152513186Y-148158150D01*
X152513186Y-148158150D02*
X153561442Y-147055898D01*
X99893971Y-196794734D02*
X164869359Y-196795742D01*
X140861721Y-23333111D02*
X137375498Y-25051170D01*
X155531364Y-144744615D02*
X156451959Y-143538813D01*
X35150500Y-167523387D02*
X35171473Y-167471708D01*
X42241833Y-37997763D02*
X42766718Y-37180099D01*
X143114598Y-148810070D02*
X143252107Y-149416500D01*
X158116094Y-17726710D02*
X158309148Y-16753173D01*
X35484336Y-167212486D02*
X35576630Y-167177261D01*
X46438013Y-147054717D02*
X45431775Y-145916333D01*
M02*
