M48
; DRILL file {KiCad 7.0.11-2.fc39} date Thu 13 Jun 2024 18:25:28 BST
; FORMAT={-:-/ absolute / metric / decimal}
; #@! TF.CreationDate,2024-06-13T18:25:28+01:00
; #@! TF.GenerationSoftware,Kicad,Pcbnew,7.0.11-2.fc39
; #@! TF.FileFunction,NonPlated,1,4,NPTH
FMAT,2
METRIC
; #@! TA.AperFunction,NonPlated,NPTH,ComponentDrill
T1C0.520
; #@! TA.AperFunction,NonPlated,NPTH,ComponentDrill
T2C1.152
; #@! TA.AperFunction,NonPlated,NPTH,ComponentDrill
T3C1.250
; #@! TA.AperFunction,NonPlated,NPTH,ComponentDrill
T4C1.400
%
G90
G05
T1
X130.85Y-122.0
T2
X40.0Y-192.0
X70.0Y-50.0
X130.0Y-50.0
X160.0Y-192.0
T4
X139.21Y-94.9
X139.21Y-104.9
T1
X138.25Y-122.0G85X138.45Y-122.0
G05
T3
X67.25Y-175.375G85X69.75Y-175.375
G05
X67.25Y-187.625G85X69.75Y-187.625
G05
X74.75Y-175.375G85X77.25Y-175.375
G05
X74.75Y-187.625G85X77.25Y-187.625
G05
X82.25Y-175.375G85X84.75Y-175.375
G05
X82.25Y-187.625G85X84.75Y-187.625
G05
X115.25Y-175.375G85X117.75Y-175.375
G05
X115.25Y-187.625G85X117.75Y-187.625
G05
X122.75Y-175.375G85X125.25Y-175.375
G05
X122.75Y-187.625G85X125.25Y-187.625
G05
X130.25Y-175.375G85X132.75Y-175.375
G05
X130.25Y-187.625G85X132.75Y-187.625
G05
M30
