G04 #@! TF.GenerationSoftware,KiCad,Pcbnew,7.0.11-2.fc39*
G04 #@! TF.CreationDate,2024-06-13T18:25:33+01:00*
G04 #@! TF.ProjectId,msf-owl-clock,6d73662d-6f77-46c2-9d63-6c6f636b2e6b,0.1*
G04 #@! TF.SameCoordinates,Original*
G04 #@! TF.FileFunction,Paste,Top*
G04 #@! TF.FilePolarity,Positive*
%FSLAX46Y46*%
G04 Gerber Fmt 4.6, Leading zero omitted, Abs format (unit mm)*
G04 Created by KiCad (PCBNEW 7.0.11-2.fc39) date 2024-06-13 18:25:33*
%MOMM*%
%LPD*%
G01*
G04 APERTURE LIST*
G04 Aperture macros list*
%AMRoundRect*
0 Rectangle with rounded corners*
0 $1 Rounding radius*
0 $2 $3 $4 $5 $6 $7 $8 $9 X,Y pos of 4 corners*
0 Add a 4 corners polygon primitive as box body*
4,1,4,$2,$3,$4,$5,$6,$7,$8,$9,$2,$3,0*
0 Add four circle primitives for the rounded corners*
1,1,$1+$1,$2,$3*
1,1,$1+$1,$4,$5*
1,1,$1+$1,$6,$7*
1,1,$1+$1,$8,$9*
0 Add four rect primitives between the rounded corners*
20,1,$1+$1,$2,$3,$4,$5,0*
20,1,$1+$1,$4,$5,$6,$7,0*
20,1,$1+$1,$6,$7,$8,$9,0*
20,1,$1+$1,$8,$9,$2,$3,0*%
G04 Aperture macros list end*
%ADD10RoundRect,0.050000X-0.515000X-0.805000X0.515000X-0.805000X0.515000X0.805000X-0.515000X0.805000X0*%
%ADD11RoundRect,0.039840X-0.234760X-0.059760X0.234760X-0.059760X0.234760X0.059760X-0.234760X0.059760X0*%
%ADD12RoundRect,0.127300X-0.127300X-0.157300X0.127300X-0.157300X0.127300X0.157300X-0.127300X0.157300X0*%
%ADD13RoundRect,0.127300X-0.021213X0.201243X-0.201243X0.021213X0.021213X-0.201243X0.201243X-0.021213X0*%
%ADD14RoundRect,0.127300X0.157300X-0.127300X0.157300X0.127300X-0.157300X0.127300X-0.157300X-0.127300X0*%
%ADD15RoundRect,0.046825X-0.327775X-0.827775X0.327775X-0.827775X0.327775X0.827775X-0.327775X0.827775X0*%
%ADD16RoundRect,0.122300X0.172300X-0.122300X0.172300X0.122300X-0.172300X0.122300X-0.172300X-0.122300X0*%
%ADD17RoundRect,0.237300X0.237300X0.462300X-0.237300X0.462300X-0.237300X-0.462300X0.237300X-0.462300X0*%
%ADD18RoundRect,0.127300X0.127300X0.157300X-0.127300X0.157300X-0.127300X-0.157300X0.127300X-0.157300X0*%
%ADD19RoundRect,0.094920X-0.379680X0.579680X-0.379680X-0.579680X0.379680X-0.579680X0.379680X0.579680X0*%
%ADD20RoundRect,0.127300X-0.157300X0.127300X-0.157300X-0.127300X0.157300X-0.127300X0.157300X0.127300X0*%
%ADD21RoundRect,0.122300X0.122300X0.172300X-0.122300X0.172300X-0.122300X-0.172300X0.122300X-0.172300X0*%
%ADD22RoundRect,0.127300X0.201243X0.021213X0.021213X0.201243X-0.201243X-0.021213X-0.021213X-0.201243X0*%
%ADD23RoundRect,0.074800X0.074800X-0.074800X0.074800X0.074800X-0.074800X0.074800X-0.074800X-0.074800X0*%
%ADD24RoundRect,0.237300X-0.237300X-0.462300X0.237300X-0.462300X0.237300X0.462300X-0.237300X0.462300X0*%
%ADD25RoundRect,0.045382X-0.204218X0.229218X-0.204218X-0.229218X0.204218X-0.229218X0.204218X0.229218X0*%
%ADD26RoundRect,0.122300X-0.172300X0.122300X-0.172300X-0.122300X0.172300X-0.122300X0.172300X0.122300X0*%
G04 APERTURE END LIST*
D10*
X143000000Y-39000000D03*
D11*
X141850000Y-38250000D03*
X141850000Y-38750000D03*
X141850000Y-39250000D03*
X141850000Y-39750000D03*
X144150000Y-39750000D03*
X144150000Y-39250000D03*
X144150000Y-38750000D03*
X144150000Y-38250000D03*
D12*
X105770000Y-92800000D03*
X106730000Y-92800000D03*
D13*
X139539411Y-96660589D03*
X138860589Y-97339411D03*
D14*
X145200000Y-39480000D03*
X145200000Y-38520000D03*
D15*
X133095000Y-43100000D03*
X134365000Y-43100000D03*
X135635000Y-43100000D03*
X136905000Y-43100000D03*
D16*
X57000000Y-119410000D03*
X57000000Y-118390000D03*
D17*
X82250000Y-90300000D03*
X80350000Y-90300000D03*
D12*
X63520000Y-44400000D03*
X64480000Y-44400000D03*
D14*
X104900000Y-101280000D03*
X104900000Y-100320000D03*
D18*
X139680000Y-92000000D03*
X138720000Y-92000000D03*
X110730000Y-92800000D03*
X109770000Y-92800000D03*
D19*
X102800000Y-96200000D03*
X102800000Y-98800000D03*
D18*
X103980000Y-87709048D03*
X103020000Y-87709048D03*
D20*
X140700000Y-93520000D03*
X140700000Y-94480000D03*
D18*
X106580000Y-107200000D03*
X105620000Y-107200000D03*
X109730000Y-107200000D03*
X108770000Y-107200000D03*
D21*
X136510000Y-44800000D03*
X135490000Y-44800000D03*
D14*
X117200000Y-100230000D03*
X117200000Y-99270000D03*
D22*
X133539411Y-97339411D03*
X132860589Y-96660589D03*
D23*
X56025000Y-38275000D03*
X56675000Y-38275000D03*
X57325000Y-38275000D03*
X57975000Y-38275000D03*
X57975000Y-39725000D03*
X57325000Y-39725000D03*
X56675000Y-39725000D03*
X56025000Y-39725000D03*
D12*
X132720000Y-92000000D03*
X133680000Y-92000000D03*
D18*
X57480000Y-121400000D03*
X56520000Y-121400000D03*
D21*
X57510000Y-44400000D03*
X56490000Y-44400000D03*
D18*
X143480000Y-44800000D03*
X142520000Y-44800000D03*
D24*
X73750000Y-90300000D03*
X75650000Y-90300000D03*
D20*
X102800000Y-100320000D03*
X102800000Y-101280000D03*
D25*
X66875000Y-41200000D03*
X66125000Y-41200000D03*
X65375000Y-41200000D03*
X64625000Y-41200000D03*
X63875000Y-41200000D03*
X63125000Y-41200000D03*
X63125000Y-43200000D03*
X63875000Y-43200000D03*
X64625000Y-43200000D03*
X65375000Y-43200000D03*
X66125000Y-43200000D03*
X66875000Y-43200000D03*
D21*
X112810000Y-107200000D03*
X111790000Y-107200000D03*
D14*
X55000000Y-39480000D03*
X55000000Y-38520000D03*
D12*
X135720000Y-92700000D03*
X136680000Y-92700000D03*
D20*
X113900000Y-99220000D03*
X113900000Y-100180000D03*
D18*
X134480000Y-44800000D03*
X133520000Y-44800000D03*
D12*
X107820000Y-95000000D03*
X108780000Y-95000000D03*
D16*
X111800000Y-105310000D03*
X111800000Y-104290000D03*
D20*
X131700000Y-93520000D03*
X131700000Y-94480000D03*
D12*
X114920000Y-107200000D03*
X115880000Y-107200000D03*
D14*
X117200000Y-94580000D03*
X117200000Y-93620000D03*
D17*
X100950000Y-44100000D03*
X99050000Y-44100000D03*
D26*
X110750000Y-104290000D03*
X110750000Y-105310000D03*
D14*
X104900000Y-97880000D03*
X104900000Y-96920000D03*
D12*
X135720000Y-99500000D03*
X136680000Y-99500000D03*
X142520000Y-50100000D03*
X143480000Y-50100000D03*
D18*
X57480000Y-136900000D03*
X56520000Y-136900000D03*
D12*
X65520000Y-44400000D03*
X66480000Y-44400000D03*
D18*
X57480000Y-40800000D03*
X56520000Y-40800000D03*
D20*
X102800000Y-93770000D03*
X102800000Y-94730000D03*
D18*
X108380000Y-87700000D03*
X107420000Y-87700000D03*
D20*
X109700000Y-104320000D03*
X109700000Y-105280000D03*
D14*
X108000000Y-100180000D03*
X108000000Y-99220000D03*
M02*
