M48
; DRILL file {KiCad 7.0.11-2.fc39} date Wed Jun 12 21:07:15 2024
; FORMAT={-:-/ absolute / metric / decimal}
; #@! TF.CreationDate,2024-06-12T21:07:15+01:00
; #@! TF.GenerationSoftware,Kicad,Pcbnew,7.0.11-2.fc39
; #@! TF.FileFunction,Plated,1,4,PTH
FMAT,2
METRIC
; #@! TA.AperFunction,Plated,PTH,ViaDrill
T1C0.300
; #@! TA.AperFunction,Plated,PTH,ComponentDrill
T2C0.300
; #@! TA.AperFunction,Plated,PTH,ComponentDrill
T3C0.400
; #@! TA.AperFunction,Plated,PTH,ComponentDrill
T4C0.600
; #@! TA.AperFunction,Plated,PTH,ComponentDrill
T5C3.000
%
G90
G05
T1
X38.0Y-112.0
X38.9Y-52.0
X39.0Y-127.1
X41.3Y-123.2
X41.9Y-122.6
X42.0Y-73.1
X42.0Y-123.8
X42.8Y-122.0
X42.8Y-123.1
X43.5Y-129.3
X43.5Y-133.2
X43.8Y-122.1
X43.9Y-96.1
X44.0Y-17.0
X44.3Y-128.3
X44.3Y-130.3
X44.3Y-132.2
X44.3Y-134.2
X44.5Y-121.7
X44.5Y-123.9
X44.6Y-122.9
X45.3Y-122.3
X45.3Y-123.9
X46.0Y-124.6
X46.7Y-123.9
X47.0Y-31.7
X47.1Y-127.0
X47.2Y-115.7
X47.2Y-116.7
X47.4Y-118.2
X47.5Y-126.3
X47.5Y-128.7
X47.5Y-130.4
X47.6Y-127.9
X47.6Y-132.3
X48.0Y-121.2
X48.4Y-127.9
X48.5Y-118.2
X48.7Y-124.0
X48.8Y-130.95
X48.8Y-135.6
X48.9Y-116.6
X48.9Y-126.2
X49.0Y-62.0
X49.0Y-121.2
X49.1Y-115.8
X49.2Y-127.9
X49.2Y-131.65
X49.5Y-129.3
X49.8Y-135.6
X50.0Y-121.2
X50.0Y-125.0
X50.1Y-132.8
X50.3Y-123.2
X50.6Y-120.6
X50.7Y-130.7
X50.7Y-131.9
X50.8Y-115.7
X50.8Y-116.7
X50.8Y-122.0
X50.9Y-123.8
X51.0Y-23.0
X51.2Y-121.3
X51.2Y-122.9
X51.3Y-135.2
X51.3Y-136.3
X51.8Y-117.1
X52.0Y-120.6
X52.1Y-78.0
X52.2Y-137.3
X52.4Y-146.6
X52.5Y-142.9
X52.5Y-144.1
X52.6Y-117.0
X52.8Y-120.6
X52.9Y-136.6
X53.0Y-150.0
X53.2Y-129.3
X53.2Y-145.5
X53.2Y-147.5
X53.5Y-116.9
X54.0Y-129.3
X54.0Y-143.85
X54.1Y-146.6
X54.3Y-117.0
X54.4Y-38.6
X54.4Y-143.15
X54.8Y-126.0
X54.8Y-129.3
X55.2Y-121.9
X55.3Y-120.9
X55.3Y-136.9
X55.9Y-37.8
X55.9Y-142.9
X55.9Y-144.1
X56.2Y-119.2
X56.4Y-118.4
X56.5Y-43.8
X56.5Y-54.4
X56.5Y-55.6
X56.6Y-39.2
X56.6Y-41.4
X56.6Y-120.8
X56.6Y-122.0
X56.6Y-136.3
X56.6Y-137.5
X56.7Y-37.8
X57.4Y-39.2
X57.4Y-41.4
X57.4Y-120.8
X57.4Y-122.0
X57.4Y-136.3
X57.4Y-137.5
X57.5Y-45.0
X57.6Y-119.4
X57.8Y-118.6
X58.1Y-142.9
X58.1Y-144.1
X58.5Y-36.3
X58.5Y-39.725
X58.6Y-117.0
X58.7Y-120.9
X58.7Y-122.9
X58.7Y-136.4
X58.7Y-137.4
X58.8Y-83.1
X58.9Y-81.2
X59.0Y-105.0
X59.1Y-85.9
X59.1Y-86.9
X59.1Y-92.5
X59.3Y-132.3
X59.4Y-80.5
X59.4Y-83.9
X59.5Y-37.7
X59.55Y-82.4
X59.6Y-143.15
X59.7Y-117.0
X60.0Y-143.85
X60.25Y-82.0
X60.4Y-80.5
X60.4Y-83.9
X60.6Y-86.05
X61.0Y-86.75
X61.3Y-117.0
X61.4Y-40.9
X61.5Y-142.9
X61.5Y-144.1
X61.6Y-41.9
X61.7Y-38.7
X62.1Y-43.5
X62.2Y-117.1
X62.4Y-42.5
X62.5Y-85.9
X62.5Y-86.9
X62.8Y-135.3
X62.8Y-136.9
X63.0Y-39.4
X63.119Y-134.4
X63.2Y-80.5
X63.2Y-82.0
X63.2Y-136.2
X63.4Y-129.2
X63.4Y-130.0
X63.7Y-135.0
X64.0Y-133.2
X64.2Y-80.5
X64.2Y-82.0
X64.4Y-38.8
X64.4Y-39.6
X64.4Y-45.0
X64.6Y-43.8
X64.8Y-121.7
X64.8Y-130.3
X64.9Y-42.0
X65.1Y-132.0
X65.3Y-134.2
X65.5Y-140.6
X65.6Y-38.8
X65.6Y-39.6
X65.6Y-80.3
X65.6Y-130.3
X65.65Y-81.8
X65.7Y-120.0
X65.9Y-85.4
X66.1Y-79.2
X66.1Y-141.2
X66.4Y-45.0
X66.4Y-121.4
X66.45Y-81.8
X66.5Y-112.7
X66.6Y-42.0
X66.6Y-80.3
X66.65Y-120.6
X66.9Y-79.2
X67.0Y-39.4
X67.0Y-103.8
X67.0Y-112.0
X67.1Y-44.4
X67.1Y-85.4
X67.3Y-42.7
X67.4Y-151.7
X67.5Y-103.1
X67.5Y-112.7
X67.5Y-122.0
X67.6Y-141.1
X67.7Y-120.0
X67.7Y-134.2
X67.7Y-135.2
X68.0Y-31.1
X68.0Y-40.9
X68.0Y-41.9
X68.0Y-43.1
X68.0Y-44.1
X68.0Y-103.8
X68.0Y-112.0
X68.0Y-152.5
X68.1Y-138.2
X68.3Y-38.7
X68.5Y-103.1
X68.5Y-112.7
X68.6Y-151.7
X69.0Y-103.8
X69.0Y-112.0
X69.1Y-141.2
X69.2Y-138.2
X69.5Y-103.1
X69.5Y-112.7
X69.7Y-140.6
X70.0Y-103.8
X70.0Y-112.0
X70.3Y-81.1
X70.5Y-103.1
X72.25Y-126.0
X72.25Y-127.0
X72.25Y-133.2
X72.25Y-134.2
X72.5Y-63.5
X72.5Y-64.3
X73.0Y-70.7
X73.0Y-119.9
X73.0Y-122.1
X73.2Y-94.4
X73.4Y-67.8
X73.4Y-68.8
X73.4Y-69.8
X73.6Y-71.3
X73.7Y-132.2
X73.85Y-121.4
X73.85Y-126.9
X73.85Y-133.3
X73.9Y-32.0
X74.0Y-130.1
X74.1Y-120.6
X74.1Y-126.1
X74.1Y-134.1
X74.3Y-64.9
X74.3Y-68.1
X74.4Y-128.1
X74.8Y-89.8
X74.8Y-90.9
X74.9Y-62.5
X74.9Y-69.1
X74.9Y-69.9
X75.2Y-129.1
X75.5Y-81.1
X75.75Y-120.5
X75.75Y-121.5
X75.8Y-126.0
X75.8Y-127.0
X75.8Y-133.2
X75.8Y-134.2
X76.1Y-62.5
X76.2Y-132.3
X76.4Y-89.7
X76.4Y-90.9
X76.7Y-66.0
X76.8Y-100.6
X76.8Y-102.7
X76.8Y-128.0
X76.8Y-128.8
X76.8Y-130.4
X76.8Y-131.2
X77.0Y-43.1
X77.1Y-69.1
X77.1Y-69.9
X77.3Y-62.5
X77.7Y-67.16
X78.0Y-99.6
X78.0Y-103.7
X78.3Y-66.0
X78.5Y-62.5
X78.5Y-139.0
X78.5Y-140.0
X78.5Y-146.0
X78.5Y-147.0
X78.6Y-137.4
X78.68Y-70.56
X79.0Y-111.0
X79.1Y-100.6
X79.1Y-102.7
X79.3Y-65.9
X79.4Y-137.4
X79.5Y-139.0
X79.5Y-140.0
X79.5Y-146.0
X79.5Y-147.0
X79.7Y-62.5
X79.7Y-67.2
X79.8Y-88.2
X80.2Y-86.6
X80.3Y-69.1
X80.3Y-69.9
X80.4Y-65.86
X80.7Y-120.5
X80.7Y-121.5
X80.7Y-146.0
X80.7Y-147.0
X80.8Y-86.0
X80.9Y-62.5
X80.9Y-91.3
X80.9Y-94.6
X81.1Y-90.5
X81.5Y-89.8
X81.6Y-64.9
X81.6Y-68.1
X81.7Y-91.3
X81.7Y-94.6
X82.35Y-121.4
X82.4Y-46.6
X82.4Y-146.9
X82.6Y-120.6
X82.6Y-146.1
X83.3Y-67.75
X83.4Y-65.8
X83.45Y-119.9
X83.45Y-122.1
X83.5Y-100.6
X83.5Y-102.7
X83.6Y-46.6
X84.3Y-64.2
X84.3Y-146.0
X84.3Y-147.0
X84.7Y-99.6
X84.7Y-103.7
X85.2Y-65.5
X85.3Y-64.5
X85.8Y-100.6
X85.8Y-102.7
X85.9Y-79.9
X86.3Y-43.3
X86.3Y-45.0
X86.3Y-46.7
X86.3Y-65.5
X86.7Y-79.7
X86.7Y-80.5
X87.1Y-35.1
X87.7Y-43.3
X87.7Y-45.0
X87.7Y-46.7
X88.0Y-144.2
X88.7Y-142.4
X88.8Y-89.9
X88.8Y-90.7
X88.9Y-144.6
X89.4Y-86.695
X89.5Y-143.0
X89.5Y-143.8
X89.8Y-87.7
X90.0Y-122.0
X90.2Y-89.1
X90.2Y-141.9
X90.4Y-85.1
X90.5Y-143.2
X90.7Y-73.5
X90.8Y-80.5
X90.9Y-90.2
X91.0Y-88.2
X91.0Y-154.0
X91.1Y-85.8
X91.3Y-81.6
X91.4Y-74.1
X91.7Y-83.0
X91.7Y-87.8
X91.7Y-89.0
X91.8Y-42.7
X91.8Y-90.3
X91.8Y-144.1
X91.9Y-85.8
X91.9Y-143.1
X92.1Y-74.7
X92.2Y-84.1
X92.6Y-85.1
X92.7Y-42.22
X92.7Y-80.6
X93.1Y-90.3
X93.4Y-47.3
X93.4Y-48.1
X93.4Y-145.2
X93.8Y-146.8
X94.1Y-140.2
X94.1Y-141.4
X94.1Y-145.6
X94.5Y-96.8
X95.0Y-97.5
X95.0Y-100.5
X95.1Y-140.0
X95.1Y-141.6
X95.1Y-145.4
X95.1Y-147.0
X95.3Y-89.2
X95.4Y-81.2
X95.4Y-82.3
X95.4Y-83.4
X95.5Y-91.8
X95.5Y-93.6
X95.6Y-99.9
X96.0Y-47.3
X96.0Y-48.1
X96.0Y-145.4
X96.0Y-147.0
X96.0Y-154.0
X96.1Y-140.0
X96.1Y-141.6
X96.2Y-53.5
X96.3Y-90.8
X96.3Y-94.6
X97.0Y-54.1
X97.3Y-96.5
X97.3Y-100.9
X97.4Y-52.5
X98.0Y-54.5
X98.1Y-105.3
X98.1Y-106.1
X98.2Y-52.5
X98.2Y-53.5
X98.3Y-43.6
X98.3Y-44.6
X98.9Y-96.5
X98.9Y-100.9
X99.1Y-53.0
X99.1Y-55.0
X99.6Y-142.7
X99.6Y-144.3
X99.8Y-43.6
X99.8Y-44.6
X99.9Y-54.0
X99.9Y-55.0
X100.1Y-79.4
X100.2Y-48.2
X100.2Y-49.05
X100.2Y-100.4
X100.2Y-101.2
X100.2Y-103.1
X100.8Y-54.5
X100.8Y-142.7
X100.8Y-144.3
X100.82Y-78.9
X101.0Y-74.0
X101.3Y-47.7
X101.3Y-79.8
X101.3Y-81.2
X101.4Y-92.5
X101.6Y-87.3
X101.6Y-88.9
X101.9Y-73.5
X102.2Y-83.9
X102.2Y-85.5
X102.2Y-92.5
X102.4Y-79.8
X102.4Y-81.2
X102.5Y-88.4
X102.6Y-107.5
X102.7Y-84.6
X103.1Y-87.109
X103.3Y-85.4
X103.3Y-88.979
X103.4Y-93.85
X103.4Y-94.65
X103.4Y-100.4
X103.4Y-102.5
X103.5Y-101.2
X103.5Y-104.0
X103.5Y-105.1
X103.9Y-44.97
X103.9Y-87.109
X104.0Y-130.0
X104.3Y-89.2
X104.3Y-97.0
X104.3Y-100.4
X104.3Y-101.2
X104.4Y-102.6
X104.4Y-103.6
X104.9Y-79.7
X105.0Y-84.0
X105.0Y-84.8
X105.2Y-88.3
X105.3Y-82.0
X105.3Y-87.3
X105.4Y-89.1
X105.5Y-73.5
X105.5Y-85.7
X105.7Y-80.3
X105.8Y-84.0
X105.85Y-93.4
X106.0Y-85.0
X106.0Y-106.5
X106.1Y-50.3
X106.1Y-82.6
X106.4Y-73.7
X106.5Y-89.3
X106.65Y-93.4
X106.7Y-88.1
X107.3Y-73.3
X107.3Y-74.1
X107.4Y-44.8
X107.5Y-71.4
X107.5Y-87.1
X107.5Y-93.3
X107.8Y-43.9
X108.0Y-106.6
X108.1Y-82.5
X108.1Y-84.0
X108.1Y-88.5
X108.1Y-110.7
X108.3Y-71.4
X108.3Y-87.1
X108.4Y-45.3
X108.6Y-99.3
X108.7Y-78.7
X108.8Y-81.3
X108.8Y-94.4
X108.8Y-95.6
X108.85Y-106.6
X109.0Y-72.8
X109.1Y-76.8
X109.1Y-83.2
X109.1Y-88.6
X109.1Y-105.3
X109.4Y-45.3
X109.4Y-110.7
X109.5Y-72.1
X109.5Y-86.1
X109.65Y-106.6
X109.8Y-43.9
X109.8Y-87.2
X109.85Y-93.4
X109.9Y-72.8
X110.0Y-80.3
X110.0Y-154.0
X110.2Y-81.3
X110.2Y-90.2
X110.3Y-105.8
X110.4Y-78.2
X110.5Y-83.3
X110.5Y-85.5
X110.6Y-72.4
X110.6Y-86.8
X110.65Y-93.4
X110.7Y-77.1
X111.0Y-90.2
X111.1Y-50.3
X111.1Y-78.7
X111.1Y-80.6
X111.3Y-72.8
X111.3Y-77.7
X111.3Y-85.5
X111.4Y-81.5
X111.5Y-83.2
X111.5Y-94.5
X111.6Y-89.4
X111.7Y-106.0
X111.8Y-95.7
X111.9Y-47.8
X111.9Y-49.4
X111.9Y-53.0
X112.0Y-72.4
X112.3Y-94.0
X112.4Y-114.5
X112.4Y-116.0
X112.5Y-56.5
X112.6Y-55.0
X112.7Y-95.2
X112.7Y-96.2
X112.9Y-53.5
X112.9Y-83.5
X113.1Y-35.0
X113.1Y-47.8
X113.1Y-49.4
X113.1Y-106.5
X113.3Y-100.2
X113.4Y-114.5
X113.4Y-116.0
X113.5Y-52.5
X113.5Y-54.5
X113.6Y-87.0
X113.7Y-53.5
X113.7Y-95.0
X113.8Y-83.2
X113.8Y-85.0
X114.0Y-106.0
X114.0Y-140.0
X114.1Y-42.9
X114.1Y-44.0
X114.1Y-46.6
X114.1Y-86.0
X114.1Y-122.9
X114.1Y-124.05
X114.1Y-125.2
X114.2Y-49.6
X114.2Y-55.7
X114.2Y-96.0
X114.2Y-127.0
X114.3Y-54.7
X114.5Y-100.2
X114.6Y-85.0
X114.7Y-54.0
X114.7Y-95.2
X114.8Y-89.3
X114.8Y-97.8
X114.9Y-102.0
X115.1Y-106.5
X115.2Y-104.7
X115.3Y-84.52
X115.3Y-85.5
X115.3Y-98.9
X115.3Y-101.0
X115.42Y-122.9
X115.42Y-124.05
X115.42Y-125.2
X115.5Y-64.5
X115.5Y-65.5
X115.5Y-66.5
X115.5Y-67.5
X115.7Y-103.8
X115.8Y-97.7
X115.8Y-110.7
X115.9Y-106.6
X116.0Y-85.0
X116.0Y-102.3
X116.0Y-105.3
X116.0Y-128.0
X116.4Y-91.9
X116.4Y-96.7
X116.5Y-93.75
X116.5Y-94.55
X116.5Y-103.3
X116.6Y-99.35
X116.6Y-100.15
X116.6Y-104.5
X116.693Y-60.255
X116.7Y-86.6
X116.7Y-122.9
X116.7Y-124.05
X116.7Y-125.2
X116.8Y-62.2
X117.0Y-107.2
X117.0Y-137.0
X117.3Y-90.4
X117.3Y-111.2
X117.4Y-59.0
X117.5Y-42.9
X117.5Y-44.0
X117.5Y-46.6
X117.7Y-115.5
X117.7Y-117.5
X117.8Y-92.5
X117.8Y-107.2
X117.8Y-128.0
X117.96Y-122.9
X117.96Y-124.05
X117.96Y-125.2
X118.4Y-59.9
X118.4Y-63.0
X118.6Y-92.5
X118.8Y-99.3
X118.9Y-108.1
X119.0Y-115.3
X119.1Y-65.5
X119.24Y-122.9
X119.24Y-124.05
X119.24Y-125.2
X119.5Y-88.8
X119.5Y-109.6
X119.6Y-62.2
X119.7Y-58.1
X119.7Y-58.9
X119.8Y-43.5
X119.8Y-127.5
X120.3Y-60.8
X120.3Y-65.5
X120.3Y-84.2
X120.4Y-85.234
X120.5Y-122.9
X120.5Y-124.05
X120.5Y-125.2
X120.7Y-62.1
X120.7Y-99.2
X121.0Y-89.3
X121.0Y-110.1
X121.1Y-84.2
X121.2Y-85.0
X121.2Y-85.8
X121.2Y-101.7
X121.3Y-57.4
X121.5Y-65.5
X121.7Y-62.0
X121.8Y-127.5
X121.9Y-103.3
X121.9Y-128.5
X122.1Y-60.9
X122.3Y-85.3
X122.3Y-86.6
X122.4Y-45.8
X122.7Y-65.5
X122.7Y-115.5
X122.7Y-117.5
X122.9Y-58.1
X122.9Y-58.9
X123.0Y-108.7
X123.2Y-83.6
X123.4Y-96.7
X123.4Y-109.6
X123.5Y-31.6
X123.5Y-36.5
X123.6Y-45.8
X123.605Y-82.695
X123.9Y-62.0
X123.9Y-65.5
X124.0Y-144.0
X124.2Y-116.5
X124.3Y-122.9
X124.3Y-124.05
X124.3Y-125.2
X124.4Y-82.1
X124.7Y-36.5
X124.7Y-83.0
X125.0Y-107.0
X125.1Y-58.1
X125.1Y-58.9
X125.1Y-65.5
X125.2Y-81.5
X125.5Y-107.8
X125.7Y-82.3
X125.7Y-100.1
X125.7Y-116.8
X125.8Y-59.9
X125.8Y-63.0
X125.8Y-98.8
X125.8Y-106.0
X125.9Y-115.8
X126.0Y-79.9
X126.0Y-108.7
X126.2Y-36.5
X126.6Y-99.6
X126.7Y-98.0
X126.7Y-106.3
X126.8Y-78.3
X127.0Y-36.5
X127.5Y-42.5
X127.6Y-78.6
X127.6Y-79.9
X127.6Y-96.7
X127.8Y-98.4
X127.9Y-59.6
X128.0Y-36.5
X128.4Y-62.5
X128.4Y-79.105
X128.7Y-128.5
X128.8Y-36.5
X128.8Y-97.2
X129.0Y-78.5
X129.1Y-79.6
X129.2Y-80.4
X129.2Y-130.1
X129.4Y-62.5
X129.7Y-104.9
X129.7Y-114.6
X129.7Y-128.5
X129.8Y-101.7
X129.9Y-106.4
X130.0Y-79.9
X130.0Y-81.2
X130.2Y-130.1
X130.3Y-113.4
X130.5Y-61.5
X130.5Y-82.0
X130.5Y-88.9
X130.5Y-89.7
X130.7Y-36.5
X130.7Y-51.5
X130.7Y-104.2
X130.7Y-105.6
X130.7Y-128.5
X130.8Y-87.0
X130.8Y-101.7
X131.1Y-115.5
X131.2Y-130.1
X131.3Y-40.5
X131.3Y-50.7
X131.3Y-84.1
X131.3Y-85.3
X131.4Y-121.1
X131.4Y-122.9
X131.5Y-36.5
X131.7Y-31.5
X131.7Y-128.5
X131.9Y-86.3
X132.1Y-40.5
X132.3Y-85.1
X132.3Y-94.4
X132.4Y-42.8
X132.4Y-43.9
X132.5Y-31.8
X132.5Y-32.8
X132.5Y-96.3
X132.5Y-112.71
X132.7Y-46.7
X132.7Y-47.8
X132.7Y-48.9
X132.7Y-50.0
X132.7Y-114.3
X132.7Y-128.5
X132.8Y-101.7
X132.891Y-125.591
X132.891Y-126.791
X132.9Y-121.1
X132.9Y-122.8
X133.0Y-44.8
X133.1Y-41.9
X133.1Y-105.2
X133.5Y-80.9
X133.5Y-85.0
X133.5Y-128.5
X133.5Y-131.2
X133.6Y-92.6
X133.6Y-98.9
X133.791Y-123.591
X133.9Y-113.4
X134.391Y-125.841
X134.4Y-98.9
X134.5Y-80.9
X134.5Y-97.9
X134.6Y-109.0
X134.6Y-111.9
X134.6Y-116.8
X134.6Y-118.8
X134.791Y-126.541
X135.0Y-114.1
X135.1Y-90.3
X135.1Y-91.4
X135.1Y-105.2
X135.2Y-97.3
X135.2Y-99.5
X135.2Y-112.71
X135.3Y-125.2
X135.4Y-109.0
X135.4Y-127.3
X135.5Y-45.4
X135.5Y-56.595
X135.6Y-111.7
X135.6Y-119.1
X135.691Y-78.6
X135.7Y-49.5
X135.72Y-84.28
X135.8Y-89.5
X135.8Y-92.1
X135.8Y-93.3
X136.291Y-125.591
X136.291Y-126.791
X136.3Y-46.0
X136.3Y-47.7
X136.3Y-50.3
X136.3Y-51.7
X136.3Y-56.6
X136.3Y-74.0
X136.491Y-121.091
X136.491Y-122.791
X136.5Y-48.7
X136.6Y-85.9
X136.6Y-92.1
X136.6Y-93.3
X136.6Y-109.9
X136.7Y-84.3
X136.7Y-88.5
X136.8Y-81.0
X136.8Y-111.3
X136.8Y-112.8
X136.8Y-114.0
X136.8Y-115.5
X136.9Y-41.9
X137.1Y-52.3
X137.3Y-59.9
X137.3Y-60.7
X137.3Y-74.0
X137.3Y-75.0
X137.3Y-76.0
X137.3Y-77.0
X137.3Y-86.6
X137.3Y-91.4
X137.3Y-97.3
X137.5Y-99.5
X137.6Y-42.8
X137.6Y-43.9
X137.6Y-112.8
X137.6Y-114.0
X137.7Y-84.3
X137.8Y-48.0
X137.8Y-51.6
X137.8Y-121.0
X137.8Y-123.0
X137.95Y-50.05
X138.0Y-128.5
X138.2Y-48.9
X138.4Y-88.5
X138.5Y-96.9
X138.65Y-40.65
X138.7Y-107.1
X138.7Y-129.0
X138.8Y-52.6
X138.8Y-59.9
X138.8Y-92.6
X139.0Y-48.1
X139.0Y-137.0
X139.1Y-74.0
X139.1Y-75.0
X139.1Y-76.0
X139.1Y-77.0
X139.2Y-84.5
X139.3Y-53.5
X139.3Y-110.3
X139.4Y-60.7
X139.5Y-36.5
X139.5Y-49.9
X139.6Y-59.9
X139.65Y-106.85
X139.9Y-73.4
X139.9Y-115.2
X140.0Y-47.0
X140.0Y-86.9
X140.0Y-103.0
X140.2Y-84.5
X140.3Y-36.5
X140.3Y-51.1
X140.5Y-50.0
X140.6Y-39.0
X140.6Y-107.8
X140.7Y-109.1
X140.9Y-45.0
X140.9Y-48.1
X140.9Y-111.9
X140.9Y-114.8
X140.9Y-120.3
X140.9Y-121.8
X141.1Y-36.5
X141.1Y-40.8
X141.2Y-38.2
X141.2Y-39.8
X141.2Y-84.5
X141.3Y-94.4
X141.3Y-107.1
X141.5Y-110.3
X141.5Y-111.1
X141.7Y-112.5
X141.9Y-120.3
X141.9Y-121.8
X142.3Y-87.9
X142.4Y-80.9
X142.4Y-121.1
X142.6Y-40.5
X142.6Y-44.2
X142.6Y-46.9
X142.6Y-49.5
X142.6Y-92.3
X142.6Y-93.3
X142.6Y-106.6
X142.6Y-107.6
X142.7Y-118.9
X142.7Y-125.1
X142.9Y-42.4
X143.0Y-109.1
X143.3Y-118.3
X143.3Y-125.7
X143.4Y-40.5
X143.4Y-44.2
X143.4Y-46.9
X143.4Y-49.5
X143.4Y-78.7
X143.4Y-87.9
X143.5Y-43.2
X143.5Y-91.7
X143.5Y-93.8
X143.5Y-106.0
X143.5Y-108.1
X143.9Y-120.8
X144.0Y-42.3
X144.1Y-45.0
X144.1Y-47.9
X144.3Y-37.8
X144.3Y-87.8
X144.3Y-118.3
X144.3Y-125.7
X144.4Y-78.7
X144.6Y-91.7
X144.6Y-93.8
X144.6Y-106.0
X144.6Y-108.1
X144.9Y-47.2
X145.1Y-48.3
X145.1Y-62.0
X145.2Y-38.0
X145.2Y-88.3
X145.3Y-118.3
X145.5Y-92.3
X145.5Y-93.3
X145.5Y-106.6
X145.5Y-107.6
X145.6Y-40.5
X145.6Y-54.4
X145.6Y-55.6
X145.8Y-38.9
X146.1Y-122.6
X146.1Y-150.0
X146.3Y-118.3
X146.3Y-125.7
X146.4Y-54.4
X146.4Y-55.6
X146.5Y-103.6
X146.9Y-118.9
X146.9Y-125.1
X146.95Y-47.15
X147.0Y-24.0
X147.0Y-40.6
X147.0Y-41.4
X147.0Y-123.3
X147.0Y-145.0
X147.1Y-114.5
X147.3Y-121.6
X147.3Y-122.4
X147.5Y-48.0
X147.5Y-124.2
X147.7Y-46.4
X147.7Y-113.7
X147.7Y-115.3
X147.8Y-111.9
X147.8Y-117.1
X147.8Y-120.6
X147.9Y-79.4
X147.9Y-80.2
X148.0Y-95.0
X148.0Y-123.2
X148.2Y-40.6
X148.2Y-41.4
X148.2Y-124.9
X148.3Y-111.1
X148.3Y-117.9
X148.4Y-119.8
X148.45Y-113.0
X148.45Y-116.0
X148.5Y-47.0
X149.0Y-55.6
X149.1Y-79.4
X149.1Y-80.2
X149.1Y-120.5
X149.15Y-112.6
X149.15Y-116.4
X149.3Y-111.1
X149.3Y-117.9
X149.5Y-63.0
X149.5Y-64.0
X149.5Y-65.0
X149.5Y-66.0
X149.6Y-40.5
X150.1Y-120.5
X150.4Y-121.5
X150.4Y-122.6
X150.5Y-63.5
X150.5Y-64.5
X150.5Y-65.5
X150.7Y-55.6
X150.9Y-120.5
X151.4Y-125.0
X151.5Y-63.5
X151.5Y-64.5
X151.5Y-65.5
X152.0Y-124.1
X152.5Y-64.0
X152.5Y-65.0
X152.5Y-66.0
X152.552Y-119.298
X152.9Y-125.0
X153.0Y-31.1
X153.6Y-119.3
X154.1Y-122.7
X154.1Y-124.2
X154.3Y-127.3
X154.6Y-118.4
X155.1Y-122.7
X155.1Y-124.2
X155.6Y-118.4
X156.0Y-18.0
X156.1Y-122.7
X156.1Y-124.2
X156.6Y-118.4
X157.1Y-122.7
X157.1Y-124.2
X157.2Y-119.0
X158.1Y-124.8
X158.1Y-135.0
X159.2Y-124.7
X159.3Y-123.6
X159.5Y-102.0
X159.6Y-120.4
X159.6Y-121.2
X163.0Y-58.0
T2
X58.5Y-37.3
X58.7Y-38.3
X60.9Y-122.7
X75.5Y-131.6
X100.2Y-102.3
X137.6Y-34.5
X138.6Y-36.0
X139.425Y-112.925
X139.425Y-113.875
X140.375Y-112.925
X140.375Y-113.875
X143.0Y-38.5
X143.0Y-39.5
T3
X52.8Y-112.7
X54.6Y-112.0
X55.0Y-31.0
X58.5Y-28.8
X58.7Y-29.8
X60.9Y-114.2
X64.25Y-119.339
X69.7Y-136.0
X70.49Y-145.31
X76.09Y-96.61
X77.59Y-93.61
X81.51Y-125.59
X91.0Y-97.9
X91.0Y-99.5
X91.9Y-98.9
X96.39Y-96.99
X96.4Y-101.3
X97.293Y-110.287
X103.39Y-115.21
X105.81Y-137.29
X135.6Y-134.7
X137.6Y-26.0
X138.6Y-27.5
X144.527Y-85.003
X154.2Y-129.9
X154.51Y-108.49
T4
X55.0Y-171.0
X145.0Y-171.0
T4
X132.075Y-119.85G85X132.325Y-119.85
G05
X132.075Y-124.15G85X132.325Y-124.15
G05
X136.875Y-119.85G85X137.125Y-119.85
G05
X136.875Y-124.15G85X137.125Y-124.15
G05
T5
X100.0Y-70.0G85X100.0Y-58.0
G05
M30
