<?xml version="1.0" encoding="UTF-8" standalone="no"?>
<!-- Created with Inkscape (http://www.inkscape.org/) -->

<svg
   width="130.24683mm"
   height="174.10039mm"
   version="1.1"
   viewBox="0 0 130.24682 174.10039"
   xml:space="preserve"
   id="svg1"
   sodipodi:docname="owl-pcb-outline.svg"
   inkscape:version="1.3 (0e150ed6c4, 2023-07-21)"
   xmlns:inkscape="http://www.inkscape.org/namespaces/inkscape"
   xmlns:sodipodi="http://sodipodi.sourceforge.net/DTD/sodipodi-0.dtd"
   xmlns="http://www.w3.org/2000/svg"
   xmlns:svg="http://www.w3.org/2000/svg"
   xmlns:rdf="http://www.w3.org/1999/02/22-rdf-syntax-ns#"
   xmlns:cc="http://creativecommons.org/ns#"
   xmlns:dc="http://purl.org/dc/elements/1.1/"><title
     id="title13">MSF Owl Clock PCB Outline</title><defs
     id="defs1"><inkscape:path-effect
       effect="fillet_chamfer"
       id="path-effect13"
       is_visible="true"
       lpeversion="1"
       nodesatellites_param="F,0,0,1,0,0,0,1 @ F,0,0,1,0,0,0,1 @ F,0,0,1,0,0,0,1 @ F,0,0,1,0,0,0,1 @ F,0,0,1,0,0,0,1 @ F,0,0,1,0,0,0,1 @ F,0,0,1,0,0,0,1 @ F,0,0,1,0,0,0,1 @ F,0,0,1,0,0,0,1 @ F,0,0,1,0,0,0,1 @ F,0,0,1,0,0,0,1 @ F,0,0,1,0,0,0,1 @ F,0,0,1,0,0,0,1 @ F,0,0,1,0,0,0,1 @ F,0,0,1,0,0,0,1 @ F,0,0,1,0,0,0,1 @ F,0,0,1,0,0,0,1 @ F,0,0,1,0,0,0,1 @ F,0,0,1,0,0,0,1 @ F,0,0,1,0,0,0,1 @ F,0,0,1,0,0,0,1 @ F,0,0,1,0,0,0,1 @ F,0,0,1,0,0,0,1 @ F,0,0,1,0,0,0,1 @ F,0,0,1,0,0,0,1 @ F,0,0,1,0,0,0,1 @ F,0,0,1,0,0,0,1 @ F,0,0,1,0,0,0,1 @ F,0,0,1,0,0,0,1 @ F,0,0,1,0,0,0,1 @ F,0,0,1,0,0,0,1 @ F,0,0,1,0,0,0,1 @ F,0,0,1,0,0,0,1 @ F,0,0,1,0,0,0,1 @ F,0,0,1,0,0,0,1 @ F,0,0,1,0,0,0,1 @ F,0,0,1,0,0,0,1 @ F,0,0,1,0,0,0,1 @ F,0,0,1,0,0,0,1 @ F,0,0,1,0,0,0,1 @ F,0,0,1,0,0,0,1 @ F,0,0,1,0,0,0,1 @ F,0,0,1,0,0,0,1 @ F,0,0,1,0,0,0,1 @ F,0,0,1,0,0,0,1 @ F,0,0,1,0,2.5948242,0,1 @ F,0,0,1,0,0,0,1 @ F,0,0,1,0,0,0,1 @ F,0,0,1,0,0,0,1 @ F,0,0,1,0,3.6156381,0,1 @ F,0,0,1,0,0,0,1 @ F,0,0,1,0,0,0,1 @ F,0,0,1,0,0,0,1 @ F,0,0,1,0,0,0,1 @ F,0,0,1,0,0,0,1 @ F,0,0,1,0,0,0,1 @ F,0,0,1,0,0,0,1 @ F,0,0,1,0,0,0,1 @ F,0,0,1,0,0,0,1 @ F,0,0,1,0,0,0,1 @ F,0,0,1,0,0,0,1 @ F,0,0,1,0,0,0,1 @ F,0,0,1,0,0,0,1 @ F,0,0,1,0,0,0,1 @ F,0,0,1,0,0,0,1 @ F,0,0,1,0,0,0,1 @ F,0,0,1,0,0,0,1 @ F,0,0,1,0,0,0,1 @ F,0,0,1,0,0,0,1 @ F,0,0,1,0,0,0,1 @ F,0,0,1,0,0,0,1 @ F,0,0,1,0,0,0,1 @ F,0,0,1,0,0,0,1 @ F,0,0,1,0,0,0,1 @ F,0,0,1,0,0,0,1 @ F,0,0,1,0,0,0,1 @ F,0,0,1,0,0,0,1 @ F,0,0,1,0,0,0,1 @ F,0,0,1,0,0,0,1 @ F,0,0,1,0,0,0,1 @ F,0,0,1,0,0,0,1 @ F,0,0,1,0,0,0,1 @ F,0,0,1,0,0,0,1 @ F,0,0,1,0,0,0,1 @ F,0,0,1,0,0,0,1 @ F,0,0,1,0,0,0,1 @ F,0,0,1,0,0,0,1 @ F,0,0,1,0,0,0,1 @ F,0,0,1,0,0,0,1 @ F,0,0,1,0,0,0,1 @ F,0,0,1,0,0,0,1 @ F,0,0,1,0,0,0,1 @ F,0,0,1,0,0,0,1 @ F,0,0,1,0,0,0,1 @ F,0,0,1,0,0,0,1"
       radius="0"
       unit="px"
       method="auto"
       mode="F"
       chamfer_steps="1"
       flexible="false"
       use_knot_distance="true"
       apply_no_radius="true"
       apply_with_radius="true"
       only_selected="false"
       hide_knots="false" /><inkscape:path-effect
       effect="fillet_chamfer"
       id="path-effect12"
       is_visible="true"
       lpeversion="1"
       nodesatellites_param="F,0,0,1,0,0,0,1 @ F,0,0,1,0,0,0,1 @ F,0,0,1,0,0,0,1 @ F,0,0,1,0,0,0,1 @ F,0,0,1,0,0,0,1 @ F,0,0,1,0,0,0,1 @ F,0,0,1,0,0,0,1 @ F,0,0,1,0,0,0,1 @ F,0,0,1,0,0,0,1 @ F,0,0,1,0,0,0,1 @ F,0,0,1,0,0,0,1 @ F,0,0,1,0,0,0,1 @ F,0,0,1,0,0,0,1 @ F,0,0,1,0,0,0,1 @ F,0,0,1,0,0,0,1 @ F,0,0,1,0,0,0,1 @ F,0,0,1,0,0,0,1 @ F,0,0,1,0,0,0,1 @ F,0,0,1,0,0,0,1 @ F,0,0,1,0,0,0,1 @ F,0,0,1,0,0,0,1 @ F,0,0,1,0,0,0,1 @ F,0,0,1,0,0,0,1 @ F,0,0,1,0,0,0,1 @ F,0,0,1,0,0,0,1 @ F,0,0,1,0,0,0,1 @ F,0,0,1,0,0,0,1 @ F,0,0,1,0,0,0,1 @ F,0,0,1,0,0,0,1 @ F,0,0,1,0,0,0,1 @ F,0,0,1,0,0,0,1 @ F,0,0,1,0,0,0,1 @ F,0,0,1,0,0,0,1 @ F,0,0,1,0,0,0,1 @ F,0,0,1,0,0,0,1 @ F,0,0,1,0,0,0,1 @ F,0,0,1,0,0,0,1 @ F,0,0,1,0,0,0,1 @ F,0,0,1,0,0,0,1 @ F,0,0,1,0,0,0,1 @ F,0,0,1,0,0,0,1 @ F,0,0,1,0,0,0,1 @ F,0,0,1,0,0,0,1 @ F,0,0,1,0,0,0,1 @ F,0,0,1,0,0,0,1 @ F,0,0,1,0,0,0,1 @ F,0,0,1,0,0,0,1 @ F,0,0,1,0,0,0,1 @ F,0,0,1,0,0,0,1 @ F,0,0,1,0,3.6425039,0,1 @ F,0,0,1,0,0,0,1 @ F,0,0,1,0,0,0,1 @ F,0,0,1,0,0,0,1 @ F,0,0,1,0,0,0,1 @ F,0,0,1,0,0,0,1 @ F,0,0,1,0,0,0,1 @ F,0,0,1,0,0,0,1 @ F,0,0,1,0,0,0,1 @ F,0,0,1,0,0,0,1 @ F,0,0,1,0,0,0,1 @ F,0,0,1,0,0,0,1 @ F,0,0,1,0,0,0,1 @ F,0,0,1,0,0,0,1 @ F,0,0,1,0,0,0,1 @ F,0,0,1,0,0,0,1 @ F,0,0,1,0,0,0,1 @ F,0,0,1,0,0,0,1 @ F,0,0,1,0,0,0,1 @ F,0,0,1,0,0,0,1 @ F,0,0,1,0,0,0,1 @ F,0,0,1,0,0,0,1 @ F,0,0,1,0,0,0,1 @ F,0,0,1,0,0,0,1 @ F,0,0,1,0,0,0,1 @ F,0,0,1,0,0,0,1 @ F,0,0,1,0,0,0,1 @ F,0,0,1,0,0,0,1 @ F,0,0,1,0,0,0,1 @ F,0,0,1,0,0,0,1 @ F,0,0,1,0,0,0,1 @ F,0,0,1,0,0,0,1 @ F,0,0,1,0,0,0,1 @ F,0,0,1,0,0,0,1 @ F,0,0,1,0,0,0,1 @ F,0,0,1,0,0,0,1 @ F,0,0,1,0,0,0,1 @ F,0,0,1,0,0,0,1 @ F,0,0,1,0,0,0,1 @ F,0,0,1,0,0,0,1 @ F,0,0,1,0,0,0,1 @ F,0,0,1,0,0,0,1 @ F,0,0,1,0,0,0,1 @ F,0,0,1,0,0,0,1 @ F,0,0,1,0,0,0,1 @ F,0,0,1,0,0,0,1"
       radius="0"
       unit="px"
       method="auto"
       mode="F"
       chamfer_steps="1"
       flexible="false"
       use_knot_distance="true"
       apply_no_radius="true"
       apply_with_radius="true"
       only_selected="false"
       hide_knots="false" /><inkscape:path-effect
       effect="fillet_chamfer"
       id="path-effect11"
       is_visible="true"
       lpeversion="1"
       nodesatellites_param="F,0,0,1,0,0,0,1 @ F,0,0,1,0,0,0,1 @ F,0,0,1,0,0,0,1 @ F,0,0,1,0,0,0,1 @ F,0,0,1,0,0,0,1 @ F,0,0,1,0,0,0,1 @ F,0,0,1,0,0,0,1 @ F,0,0,1,0,0,0,1 @ F,0,0,1,0,0,0,1 @ F,0,0,1,0,0,0,1 @ F,0,0,1,0,0,0,1 @ F,0,0,1,0,0,0,1 @ F,0,0,1,0,0,0,1 @ F,0,0,1,0,0,0,1 @ F,0,0,1,0,0,0,1 @ F,0,0,1,0,0,0,1 @ F,0,0,1,0,0,0,1 @ F,0,0,1,0,0,0,1 @ F,0,0,1,0,0,0,1 @ F,0,0,1,0,0,0,1 @ F,0,0,1,0,0,0,1 @ F,0,0,1,0,0,0,1 @ F,0,0,1,0,0,0,1 @ F,0,0,1,0,0,0,1 @ F,0,0,1,0,0,0,1 @ F,0,0,1,0,0,0,1 @ F,0,0,1,0,0,0,1 @ F,0,0,1,0,0,0,1 @ F,0,0,1,0,0,0,1 @ F,0,0,1,0,0,0,1 @ F,0,0,1,0,0,0,1 @ F,0,0,1,0,0,0,1 @ F,0,0,1,0,0,0,1 @ F,0,0,1,0,0,0,1 @ F,0,0,1,0,0,0,1 @ F,0,0,1,0,0,0,1 @ F,0,0,1,0,0,0,1 @ F,0,0,1,0,0,0,1 @ F,0,0,1,0,0,0,1 @ F,0,0,1,0,0,0,1 @ F,0,0,1,0,0,0,1 @ F,0,0,1,0,0,0,1 @ F,0,0,1,0,0,0,1 @ F,0,0,1,0,0,0,1 @ F,0,0,1,0,0,0,1 @ F,0,0,1,0,0,0,1 @ F,0,0,1,0,0,0,1 @ F,0,0,1,0,0,0,1 @ F,0,0,1,0,0,0,1 @ F,0,0,1,0,0,0,1 @ F,0,0,1,0,0,0,1 @ F,0,0,1,0,0,0,1 @ F,0,0,1,0,0,0,1 @ F,0,0,1,0,0,0,1 @ F,0,0,1,0,0,0,1 @ F,0,0,1,0,0,0,1 @ F,0,0,1,0,0,0,1 @ F,0,0,1,0,0,0,1 @ F,0,0,1,0,0,0,1 @ F,0,0,1,0,0,0,1 @ F,0,0,1,0,0,0,1 @ F,0,0,1,0,0,0,1 @ F,0,0,1,0,0,0,1 @ F,0,0,1,0,0,0,1 @ F,0,0,1,0,0,0,1 @ F,0,0,1,0,0,0,1 @ F,0,0,1,0,0,0,1 @ F,0,0,1,0,0,0,1 @ F,0,0,1,0,0,0,1 @ F,0,0,1,0,0,0,1 @ F,0,0,1,0,0,0,1 @ F,0,0,1,0,0,0,1 @ F,0,0,1,0,0,0,1 @ F,0,0,1,0,0,0,1 @ F,0,0,1,0,0,0,1 @ F,0,0,1,0,0,0,1 @ F,0,0,1,0,0,0,1 @ F,0,0,1,0,0,0,1 @ F,0,0,1,0,0,0,1 @ F,0,0,1,0,0,0,1 @ F,0,0,1,0,0,0,1 @ F,0,0,1,0,0,0,1 @ F,0,0,1,0,0,0,1 @ F,0,0,1,0,0,0,1 @ F,0,0,1,0,0,0,1 @ F,0,0,1,0,0,0,1 @ F,0,0,1,0,0,0,1 @ F,0,0,1,0,0,0,1 @ F,0,0,1,0,0,0,1 @ F,0,0,1,0,0,0,1 @ F,0,0,1,0,0,0,1 @ F,0,0,1,0,0,0,1 @ F,0,0,1,0,0,0,1 @ F,0,0,1,0,0,0,1 @ F,0,0,1,0,0,0,1"
       radius="0"
       unit="px"
       method="auto"
       mode="F"
       chamfer_steps="1"
       flexible="false"
       use_knot_distance="true"
       apply_no_radius="true"
       apply_with_radius="true"
       only_selected="false"
       hide_knots="false" /></defs><sodipodi:namedview
     id="namedview1"
     pagecolor="#ffffff"
     bordercolor="#666666"
     borderopacity="1.0"
     inkscape:showpageshadow="2"
     inkscape:pageopacity="0.0"
     inkscape:pagecheckerboard="0"
     inkscape:deskcolor="#d1d1d1"
     inkscape:document-units="mm"
     inkscape:zoom="1.2233723"
     inkscape:cx="246.04122"
     inkscape:cy="329.00861"
     inkscape:window-width="1920"
     inkscape:window-height="1011"
     inkscape:window-x="0"
     inkscape:window-y="32"
     inkscape:window-maximized="1"
     inkscape:current-layer="svg1"
     showguides="true"><sodipodi:guide
       position="130.14307,492.03975"
       orientation="1,0"
       id="guide3"
       inkscape:locked="false" /><sodipodi:guide
       position="65.144057,490.6129"
       orientation="1,0"
       id="guide4"
       inkscape:locked="false" /></sodipodi:namedview><path
     id="path1"
     style="fill:none;stroke:#000000;stroke-width:0.711372;stroke-dasharray:none;stroke-opacity:1"
     inkscape:label="owl-outline"
     d="m 35.590976,-160.96035 c -22.573376,-0.27679 -44.3288616,-3.03815 -68.061464,-8.94766 -1.649196,-0.41066 -3.595353,-0.89349 -4.324951,-1.07159 -1.857496,-0.45353 -7.316334,-2.02627 -8.376032,-2.41337 -0.48507,-0.17722 -2.072048,-0.66717 -3.527234,-1.08997 -11.554968,-3.3568 -29.394372,-10.10927 -41.560338,-15.72827 -1.423298,-0.65745 -2.647289,-1.19473 -2.718488,-1.19473 -0.706089,0 -24.585439,-11.94841 -26.100429,-13.05941 -0.19403,-0.14233 -1.46323,-0.85697 -2.82142,-1.58808 -1.3582,-0.73111 -3.3424,-1.84319 -4.4095,-2.47219 -8.11657,-4.78459 -10.66751,-6.31564 -15.1695,-9.10574 -6.04158,-3.7442 -12.98608,-8.30159 -20.24805,-13.28549 -6.79858,-4.66647 -8.48691,-5.64467 -9.74171,-5.64467 -2.737,0 -2.32282,3.80171 1.86747,17.11048 4.88278,15.50797 5.4559,17.43069 6.9258,23.28269 3.0288,12.05794 4.56636,22.76171 4.60066,32.03368 l 0.0147,4.1632 -2.38213,2.55306 c -16.84994,18.06897 -27.86539,38.21676 -31.98037,58.490697 -1.7892,8.813973 -2.06501,11.615642 -2.07701,21.115615 -0.0113,9.034473 0.28377,12.435311 1.71858,19.757289 3.84569,19.622943 13.26738,39.131058 27.42935,56.7960041 1.94439,2.4252928 3.62691,4.4889558 3.73861,4.5859557 0.11173,0.097014 0.71305,0.7716199 1.33627,1.4980176 l 1.13224,1.3197259 -3.65222,7.3228247 c -10.46797,20.979937 -19.21116,43.390916 -23.98115,61.473862 -3.83158,14.525958 -5.57578,23.240883 -7.05998,35.277859 -1.1869,9.62607 -1.34073,11.84292 -1.51272,21.87289 -0.15374,8.96137 -0.0741,11.42207 0.57164,17.71705 1.44888,14.12696 3.26685,23.36503 6.78794,34.493 1.64689,5.20467 1.95178,6.01812 4.90027,13.05389 5.03528,12.01497 13.53484,25.70613 22.88383,36.8641 3.60568,4.30357 14.88196,15.58698 19.43195,19.44298 8.21728,6.96387 21.3395,16.33334 21.9795,15.69334 0.192,-0.19205 0.16462,-2.91489 -0.0699,-6.79346 -0.6818,-11.28097 -0.42108,-15.04661 1.09916,-15.86061 1.2222,-0.65409 2.198,-0.0479 5.01239,3.11735 16.495947,18.55194 32.409747,30.03726 52.588687,37.95223 2.716384,1.0654 5.494938,2.09676 6.174038,2.29206 0.679088,0.1953 3.139829,0.91095 5.468223,1.58992 2.328296,0.67888 5.568517,1.51665 7.201513,1.86195 2.862894,0.60537 2.941098,0.64615 2.178099,1.18003 -3.852792,2.6959 -12.232733,10.84911 -16.097715,15.6621 -0.316212,0.39369 -0.490296,0.724 -0.784851,1.10835 H -192.38576 a 2.5948242,2.5948242 135 0 0 -2.59482,2.59482 v 67.64658 h 461.49602 v -35.1207 -31.50506 a 3.6156381,3.6156381 45 0 0 -3.61564,-3.61564 H 127.39648 c -0.29456,-0.38435 -0.46864,-0.71466 -0.78485,-1.10835 -3.86498,-4.81299 -12.24492,-12.9662 -16.09772,-15.6621 -0.763,-0.53388 -0.6848,-0.57466 2.1781,-1.18003 1.633,-0.3453 4.87322,-1.18307 7.20151,-1.86195 2.3284,-0.67897 4.78915,-1.39462 5.46823,-1.58992 0.6791,-0.1953 3.45766,-1.22666 6.17404,-2.29206 20.17893,-7.91497 36.09274,-19.40029 52.58868,-37.95223 2.8144,-3.1652 3.79019,-3.77144 5.01239,-3.11735 1.52023,0.814 1.78095,4.57964 1.09916,15.86061 -0.23442,3.87857 -0.26185,6.60141 -0.0699,6.79346 0.64,0.64 13.76223,-8.72947 21.9795,-15.69334 4.55,-3.856 15.82628,-15.13941 19.43196,-19.44298 9.34899,-11.15797 17.84855,-24.84913 22.88382,-36.8641 2.9485,-7.03577 3.25339,-7.84922 4.90027,-13.05389 3.52109,-11.12797 5.33907,-20.36604 6.78795,-34.493 0.64569,-6.29498 0.72537,-8.75568 0.57163,-17.71705 -0.172,-10.02997 -0.32582,-12.24682 -1.51272,-21.87289 -1.4842,-12.036976 -3.22841,-20.751901 -7.05998,-35.277859 -4.77,-18.082946 -13.51318,-40.493925 -23.98115,-61.473862 l -3.65222,-7.3228247 1.13224,-1.3197259 c 0.62323,-0.7263977 1.22454,-1.4010039 1.33627,-1.4980176 0.1117,-0.097 1.79421,-2.1606629 3.73861,-4.5859557 14.16197,-17.6649461 23.58367,-37.1730611 27.42935,-56.7960041 1.43482,-7.321978 1.72988,-10.722816 1.71858,-19.757289 -0.012,-9.499973 -0.28781,-12.301642 -2.077,-21.115615 -4.11498,-20.273937 -15.13044,-40.421727 -31.98038,-58.490697 l -2.38213,-2.55306 0.0147,-4.1632 c 0.0343,-9.27197 1.57186,-19.97574 4.60066,-32.03368 1.4699,-5.852 2.04119,-7.77472 6.92396,-23.28269 4.1903,-13.30877 4.60447,-17.11048 1.86747,-17.11048 -1.2548,0 -2.94313,0.9782 -9.74171,5.64467 -7.26197,4.9839 -14.20647,9.54129 -20.24805,13.28549 -4.50199,2.7901 -7.05292,4.32115 -15.16949,9.10574 -1.0671,0.629 -3.05131,1.74108 -4.40951,2.47219 -1.35819,0.73111 -2.62739,1.44575 -2.82142,1.58808 -1.51499,1.111 -25.39434,13.05941 -26.10042,13.05941 -0.0712,0 -1.29519,0.53728 -2.71849,1.19473 -12.16597,5.619 -30.00537,12.37147 -41.56034,15.72827 -1.45518,0.4228 -3.04217,0.91275 -3.52724,1.08997 -1.05969,0.3871 -6.51853,1.95984 -8.37603,2.41337 -0.7296,0.1781 -2.67575,0.66093 -4.32495,1.07159 -23.732599,5.90951 -45.488087,8.67087 -68.061462,8.94766"
     sodipodi:nodetypes="cscsccscscccsccccccccssscccsccsccsscccssssssccccccccsssscscssscssssscccsscccccccssscssscscssssc"
     transform="matrix(0.28114686,0,0,0.28114686,55.09051,66.658389)"
     inkscape:path-effect="#path-effect13"
     inkscape:original-d="m 35.590976,-160.96035 c -22.573376,-0.27679 -44.3288616,-3.03815 -68.061464,-8.94766 -1.649196,-0.41066 -3.595353,-0.89349 -4.324951,-1.07159 -1.857496,-0.45353 -7.316334,-2.02627 -8.376032,-2.41337 -0.48507,-0.17722 -2.072048,-0.66717 -3.527234,-1.08997 -11.554968,-3.3568 -29.394372,-10.10927 -41.560338,-15.72827 -1.423298,-0.65745 -2.647289,-1.19473 -2.718488,-1.19473 -0.706089,0 -24.585439,-11.94841 -26.100429,-13.05941 -0.19403,-0.14233 -1.46323,-0.85697 -2.82142,-1.58808 -1.3582,-0.73111 -3.3424,-1.84319 -4.4095,-2.47219 -8.11657,-4.78459 -10.66751,-6.31564 -15.1695,-9.10574 -6.04158,-3.7442 -12.98608,-8.30159 -20.24805,-13.28549 -6.79858,-4.66647 -8.48691,-5.64467 -9.74171,-5.64467 -2.737,0 -2.32282,3.80171 1.86747,17.11048 4.88278,15.50797 5.4559,17.43069 6.9258,23.28269 3.0288,12.05794 4.56636,22.76171 4.60066,32.03368 l 0.0147,4.1632 -2.38213,2.55306 c -16.84994,18.06897 -27.86539,38.21676 -31.98037,58.490697 -1.7892,8.813973 -2.06501,11.615642 -2.07701,21.115615 -0.0113,9.034473 0.28377,12.435311 1.71858,19.757289 3.84569,19.622943 13.26738,39.131058 27.42935,56.7960041 1.94439,2.4252928 3.62691,4.4889558 3.73861,4.5859557 0.11173,0.097014 0.71305,0.7716199 1.33627,1.4980176 l 1.13224,1.3197259 -3.65222,7.3228247 c -10.46797,20.979937 -19.21116,43.390916 -23.98115,61.473862 -3.83158,14.525958 -5.57578,23.240883 -7.05998,35.277859 -1.1869,9.62607 -1.34073,11.84292 -1.51272,21.87289 -0.15374,8.96137 -0.0741,11.42207 0.57164,17.71705 1.44888,14.12696 3.26685,23.36503 6.78794,34.493 1.64689,5.20467 1.95178,6.01812 4.90027,13.05389 5.03528,12.01497 13.53484,25.70613 22.88383,36.8641 3.60568,4.30357 14.88196,15.58698 19.43195,19.44298 8.21728,6.96387 21.3395,16.33334 21.9795,15.69334 0.192,-0.19205 0.16462,-2.91489 -0.0699,-6.79346 -0.6818,-11.28097 -0.42108,-15.04661 1.09916,-15.86061 1.2222,-0.65409 2.198,-0.0479 5.01239,3.11735 16.495947,18.55194 32.409747,30.03726 52.588687,37.95223 2.716384,1.0654 5.494938,2.09676 6.174038,2.29206 0.679088,0.1953 3.139829,0.91095 5.468223,1.58992 2.328296,0.67888 5.568517,1.51665 7.201513,1.86195 2.862894,0.60537 2.941098,0.64615 2.178099,1.18003 -3.852792,2.6959 -12.232733,10.84911 -16.097715,15.6621 -0.316212,0.39369 -0.490296,0.724 -0.784851,1.10835 H -194.98058 c 0,23.4138 0,46.8276 0,70.2414 h 461.49602 v -35.1207 c 0,-11.7069 0,-23.4138 0,-35.1207 H 127.39648 c -0.29456,-0.38435 -0.46864,-0.71466 -0.78485,-1.10835 -3.86498,-4.81299 -12.24492,-12.9662 -16.09772,-15.6621 -0.763,-0.53388 -0.6848,-0.57466 2.1781,-1.18003 1.633,-0.3453 4.87322,-1.18307 7.20151,-1.86195 2.3284,-0.67897 4.78915,-1.39462 5.46823,-1.58992 0.6791,-0.1953 3.45766,-1.22666 6.17404,-2.29206 20.17893,-7.91497 36.09274,-19.40029 52.58868,-37.95223 2.8144,-3.1652 3.79019,-3.77144 5.01239,-3.11735 1.52023,0.814 1.78095,4.57964 1.09916,15.86061 -0.23442,3.87857 -0.26185,6.60141 -0.0699,6.79346 0.64,0.64 13.76223,-8.72947 21.9795,-15.69334 4.55,-3.856 15.82628,-15.13941 19.43196,-19.44298 9.34899,-11.15797 17.84855,-24.84913 22.88382,-36.8641 2.9485,-7.03577 3.25339,-7.84922 4.90027,-13.05389 3.52109,-11.12797 5.33907,-20.36604 6.78795,-34.493 0.64569,-6.29498 0.72537,-8.75568 0.57163,-17.71705 -0.172,-10.02997 -0.32582,-12.24682 -1.51272,-21.87289 -1.4842,-12.036976 -3.22841,-20.751901 -7.05998,-35.277859 -4.77,-18.082946 -13.51318,-40.493925 -23.98115,-61.473862 l -3.65222,-7.3228247 1.13224,-1.3197259 c 0.62323,-0.7263977 1.22454,-1.4010039 1.33627,-1.4980176 0.1117,-0.097 1.79421,-2.1606629 3.73861,-4.5859557 14.16197,-17.6649461 23.58367,-37.1730611 27.42935,-56.7960041 1.43482,-7.321978 1.72988,-10.722816 1.71858,-19.757289 -0.012,-9.499973 -0.28781,-12.301642 -2.077,-21.115615 -4.11498,-20.273937 -15.13044,-40.421727 -31.98038,-58.490697 l -2.38213,-2.55306 0.0147,-4.1632 c 0.0343,-9.27197 1.57186,-19.97574 4.60066,-32.03368 1.4699,-5.852 2.04119,-7.77472 6.92396,-23.28269 4.1903,-13.30877 4.60447,-17.11048 1.86747,-17.11048 -1.2548,0 -2.94313,0.9782 -9.74171,5.64467 -7.26197,4.9839 -14.20647,9.54129 -20.24805,13.28549 -4.50199,2.7901 -7.05292,4.32115 -15.16949,9.10574 -1.0671,0.629 -3.05131,1.74108 -4.40951,2.47219 -1.35819,0.73111 -2.62739,1.44575 -2.82142,1.58808 -1.51499,1.111 -25.39434,13.05941 -26.10042,13.05941 -0.0712,0 -1.29519,0.53728 -2.71849,1.19473 -12.16597,5.619 -30.00537,12.37147 -41.56034,15.72827 -1.45518,0.4228 -3.04217,0.91275 -3.52724,1.08997 -1.05969,0.3871 -6.51853,1.95984 -8.37603,2.41337 -0.7296,0.1781 -2.67575,0.66093 -4.32495,1.07159 -23.732599,5.90951 -45.488087,8.67087 -68.061462,8.94766" /><path
     style="fill:none;stroke:#000000;stroke-width:0.2;stroke-dasharray:none"
     id="path2"
     sodipodi:type="arc"
     sodipodi:cx="42.086094"
     sodipodi:cy="51.320396"
     sodipodi:rx="17.773914"
     sodipodi:ry="19.054317"
     sodipodi:start="0"
     sodipodi:end="6.2726236"
     sodipodi:arc-type="slice"
     d="M 59.860008,51.320396 A 17.773914,19.054317 0 0 1 42.133025,70.374647 17.773914,19.054317 0 0 1 24.312427,51.421019 17.773914,19.054317 0 0 1 41.945303,32.266677 17.773914,19.054317 0 0 1 59.859017,51.119154 l -17.772923,0.201242 z"
     inkscape:label="left-eye" /><path
     style="fill:none;stroke:#000000;stroke-width:0.2;stroke-dasharray:none"
     id="path2-8"
     sodipodi:type="arc"
     sodipodi:cx="88.206093"
     sodipodi:cy="51.320396"
     sodipodi:rx="17.773914"
     sodipodi:ry="19.054317"
     sodipodi:start="0"
     sodipodi:end="6.2726236"
     sodipodi:arc-type="slice"
     d="M 105.98001,51.320396 A 17.773914,19.054317 0 0 1 88.253023,70.374647 17.773914,19.054317 0 0 1 70.432426,51.421019 17.773914,19.054317 0 0 1 88.065302,32.266677 17.773914,19.054317 0 0 1 105.97902,51.119154 l -17.772927,0.201242 z"
     inkscape:label="right-eye" /><rect
     style="fill:none;stroke:#000000;stroke-width:0.2;stroke-dasharray:none"
     id="rect2"
     width="99.828972"
     height="11.828975"
     x="15.232009"
     y="157.18588"
     inkscape:label="ferrite-rod" /><metadata
     id="metadata13"><rdf:RDF><cc:Work
         rdf:about=""><dc:title>MSF Owl Clock PCB Outline</dc:title><dc:creator><cc:Agent><dc:title>Pete Restall &lt;pete@restall.net&gt;</dc:title></cc:Agent></dc:creator><cc:license
           rdf:resource="http://creativecommons.org/licenses/by-nc-sa/4.0/" /></cc:Work><cc:License
         rdf:about="http://creativecommons.org/licenses/by-nc-sa/4.0/"><cc:permits
           rdf:resource="http://creativecommons.org/ns#Reproduction" /><cc:permits
           rdf:resource="http://creativecommons.org/ns#Distribution" /><cc:requires
           rdf:resource="http://creativecommons.org/ns#Notice" /><cc:requires
           rdf:resource="http://creativecommons.org/ns#Attribution" /><cc:prohibits
           rdf:resource="http://creativecommons.org/ns#CommercialUse" /><cc:permits
           rdf:resource="http://creativecommons.org/ns#DerivativeWorks" /><cc:requires
           rdf:resource="http://creativecommons.org/ns#ShareAlike" /></cc:License></rdf:RDF></metadata></svg>
