<?xml version="1.0" encoding="UTF-8" standalone="no"?>
<!-- Created with Inkscape (http://www.inkscape.org/) -->

<svg
   width="130.1474mm"
   height="184.05391mm"
   version="1.1"
   viewBox="0 0 130.14739 184.05391"
   xml:space="preserve"
   id="svg1"
   sodipodi:docname="owl-pcb-outline.svg"
   inkscape:version="1.3.2 (091e20ef0f, 2023-11-25)"
   xmlns:inkscape="http://www.inkscape.org/namespaces/inkscape"
   xmlns:sodipodi="http://sodipodi.sourceforge.net/DTD/sodipodi-0.dtd"
   xmlns="http://www.w3.org/2000/svg"
   xmlns:svg="http://www.w3.org/2000/svg"
   xmlns:rdf="http://www.w3.org/1999/02/22-rdf-syntax-ns#"
   xmlns:cc="http://creativecommons.org/ns#"
   xmlns:dc="http://purl.org/dc/elements/1.1/"><title
     id="title13">MSF Owl Clock PCB Outline</title><defs
     id="defs1"><inkscape:path-effect
       effect="fillet_chamfer"
       id="path-effect13"
       is_visible="true"
       lpeversion="1"
       nodesatellites_param="F,0,0,1,0,0,0,1 @ F,0,0,1,0,0,0,1 @ F,0,0,1,0,0,0,1 @ F,0,0,1,0,0,0,1 @ F,0,0,1,0,0,0,1 @ F,0,0,1,0,0,0,1 @ F,0,0,1,0,0,0,1 @ F,0,0,1,0,0,0,1 @ F,0,0,1,0,0,0,1 @ F,0,0,1,0,0,0,1 @ F,0,0,1,0,0,0,1 @ F,0,0,1,0,0,0,1 @ F,0,0,1,0,0,0,1 @ F,0,0,1,0,0,0,1 @ F,0,0,1,0,0,0,1 @ F,0,0,1,0,0,0,1 @ F,0,0,1,0,0,0,1 @ F,0,0,1,0,0,0,1 @ F,0,0,1,0,0,0,1 @ F,0,0,1,0,0,0,1 @ F,0,0,1,0,0,0,1 @ F,0,0,1,0,0,0,1 @ F,0,0,1,0,0,0,1 @ F,0,0,1,0,0,0,1 @ F,0,0,1,0,0,0,1 @ F,0,0,1,0,0,0,1 @ F,0,0,1,0,0,0,1 @ F,0,0,1,0,0,0,1 @ F,0,0,1,0,0,0,1 @ F,0,0,1,0,0,0,1 @ F,0,0,1,0,0,0,1 @ F,0,0,1,0,0,0,1 @ F,0,0,1,0,0,0,1 @ F,0,0,1,0,0,0,1 @ F,0,0,1,0,0,0,1 @ F,0,0,1,0,0,0,1 @ F,0,0,1,0,0,0,1 @ F,0,0,1,0,0,0,1 @ F,0,0,1,0,0,0,1 @ F,0,0,1,0,0,0,1 @ F,0,0,1,0,0,0,1 @ F,0,0,1,0,0,0,1 @ F,0,0,1,0,0,0,1 @ F,0,0,1,0,0,0,1 @ F,0,0,1,0,0,0,1 @ F,0,0,1,0,2.5948242,0,1 @ F,0,0,1,0,0,0,1 @ F,0,0,1,0,0,0,1 @ F,0,0,1,0,0,0,1 @ F,0,0,1,0,3.6156381,0,1 @ F,0,0,1,0,0,0,1 @ F,0,0,1,0,0,0,1 @ F,0,0,1,0,0,0,1 @ F,0,0,1,0,0,0,1 @ F,0,0,1,0,0,0,1 @ F,0,0,1,0,0,0,1 @ F,0,0,1,0,0,0,1 @ F,0,0,1,0,0,0,1 @ F,0,0,1,0,0,0,1 @ F,0,0,1,0,0,0,1 @ F,0,0,1,0,0,0,1 @ F,0,0,1,0,0,0,1 @ F,0,0,1,0,0,0,1 @ F,0,0,1,0,0,0,1 @ F,0,0,1,0,0,0,1 @ F,0,0,1,0,0,0,1 @ F,0,0,1,0,0,0,1 @ F,0,0,1,0,0,0,1 @ F,0,0,1,0,0,0,1 @ F,0,0,1,0,0,0,1 @ F,0,0,1,0,0,0,1 @ F,0,0,1,0,0,0,1 @ F,0,0,1,0,0,0,1 @ F,0,0,1,0,0,0,1 @ F,0,0,1,0,0,0,1 @ F,0,0,1,0,0,0,1 @ F,0,0,1,0,0,0,1 @ F,0,0,1,0,0,0,1 @ F,0,0,1,0,0,0,1 @ F,0,0,1,0,0,0,1 @ F,0,0,1,0,0,0,1 @ F,0,0,1,0,0,0,1 @ F,0,0,1,0,0,0,1 @ F,0,0,1,0,0,0,1 @ F,0,0,1,0,0,0,1 @ F,0,0,1,0,0,0,1 @ F,0,0,1,0,0,0,1 @ F,0,0,1,0,0,0,1 @ F,0,0,1,0,0,0,1 @ F,0,0,1,0,0,0,1 @ F,0,0,1,0,0,0,1 @ F,0,0,1,0,0,0,1 @ F,0,0,1,0,0,0,1 @ F,0,0,1,0,0,0,1 @ F,0,0,1,0,0,0,1"
       radius="0"
       unit="px"
       method="auto"
       mode="F"
       chamfer_steps="1"
       flexible="false"
       use_knot_distance="true"
       apply_no_radius="true"
       apply_with_radius="true"
       only_selected="false"
       hide_knots="false" /><inkscape:path-effect
       effect="fillet_chamfer"
       id="path-effect12"
       is_visible="true"
       lpeversion="1"
       nodesatellites_param="F,0,0,1,0,0,0,1 @ F,0,0,1,0,0,0,1 @ F,0,0,1,0,0,0,1 @ F,0,0,1,0,0,0,1 @ F,0,0,1,0,0,0,1 @ F,0,0,1,0,0,0,1 @ F,0,0,1,0,0,0,1 @ F,0,0,1,0,0,0,1 @ F,0,0,1,0,0,0,1 @ F,0,0,1,0,0,0,1 @ F,0,0,1,0,0,0,1 @ F,0,0,1,0,0,0,1 @ F,0,0,1,0,0,0,1 @ F,0,0,1,0,0,0,1 @ F,0,0,1,0,0,0,1 @ F,0,0,1,0,0,0,1 @ F,0,0,1,0,0,0,1 @ F,0,0,1,0,0,0,1 @ F,0,0,1,0,0,0,1 @ F,0,0,1,0,0,0,1 @ F,0,0,1,0,0,0,1 @ F,0,0,1,0,0,0,1 @ F,0,0,1,0,0,0,1 @ F,0,0,1,0,0,0,1 @ F,0,0,1,0,0,0,1 @ F,0,0,1,0,0,0,1 @ F,0,0,1,0,0,0,1 @ F,0,0,1,0,0,0,1 @ F,0,0,1,0,0,0,1 @ F,0,0,1,0,0,0,1 @ F,0,0,1,0,0,0,1 @ F,0,0,1,0,0,0,1 @ F,0,0,1,0,0,0,1 @ F,0,0,1,0,0,0,1 @ F,0,0,1,0,0,0,1 @ F,0,0,1,0,0,0,1 @ F,0,0,1,0,0,0,1 @ F,0,0,1,0,0,0,1 @ F,0,0,1,0,0,0,1 @ F,0,0,1,0,0,0,1 @ F,0,0,1,0,0,0,1 @ F,0,0,1,0,0,0,1 @ F,0,0,1,0,0,0,1 @ F,0,0,1,0,0,0,1 @ F,0,0,1,0,0,0,1 @ F,0,0,1,0,0,0,1 @ F,0,0,1,0,0,0,1 @ F,0,0,1,0,0,0,1 @ F,0,0,1,0,0,0,1 @ F,0,0,1,0,3.6425039,0,1 @ F,0,0,1,0,0,0,1 @ F,0,0,1,0,0,0,1 @ F,0,0,1,0,0,0,1 @ F,0,0,1,0,0,0,1 @ F,0,0,1,0,0,0,1 @ F,0,0,1,0,0,0,1 @ F,0,0,1,0,0,0,1 @ F,0,0,1,0,0,0,1 @ F,0,0,1,0,0,0,1 @ F,0,0,1,0,0,0,1 @ F,0,0,1,0,0,0,1 @ F,0,0,1,0,0,0,1 @ F,0,0,1,0,0,0,1 @ F,0,0,1,0,0,0,1 @ F,0,0,1,0,0,0,1 @ F,0,0,1,0,0,0,1 @ F,0,0,1,0,0,0,1 @ F,0,0,1,0,0,0,1 @ F,0,0,1,0,0,0,1 @ F,0,0,1,0,0,0,1 @ F,0,0,1,0,0,0,1 @ F,0,0,1,0,0,0,1 @ F,0,0,1,0,0,0,1 @ F,0,0,1,0,0,0,1 @ F,0,0,1,0,0,0,1 @ F,0,0,1,0,0,0,1 @ F,0,0,1,0,0,0,1 @ F,0,0,1,0,0,0,1 @ F,0,0,1,0,0,0,1 @ F,0,0,1,0,0,0,1 @ F,0,0,1,0,0,0,1 @ F,0,0,1,0,0,0,1 @ F,0,0,1,0,0,0,1 @ F,0,0,1,0,0,0,1 @ F,0,0,1,0,0,0,1 @ F,0,0,1,0,0,0,1 @ F,0,0,1,0,0,0,1 @ F,0,0,1,0,0,0,1 @ F,0,0,1,0,0,0,1 @ F,0,0,1,0,0,0,1 @ F,0,0,1,0,0,0,1 @ F,0,0,1,0,0,0,1 @ F,0,0,1,0,0,0,1 @ F,0,0,1,0,0,0,1 @ F,0,0,1,0,0,0,1"
       radius="0"
       unit="px"
       method="auto"
       mode="F"
       chamfer_steps="1"
       flexible="false"
       use_knot_distance="true"
       apply_no_radius="true"
       apply_with_radius="true"
       only_selected="false"
       hide_knots="false" /><inkscape:path-effect
       effect="fillet_chamfer"
       id="path-effect11"
       is_visible="true"
       lpeversion="1"
       nodesatellites_param="F,0,0,1,0,0,0,1 @ F,0,0,1,0,0,0,1 @ F,0,0,1,0,0,0,1 @ F,0,0,1,0,0,0,1 @ F,0,0,1,0,0,0,1 @ F,0,0,1,0,0,0,1 @ F,0,0,1,0,0,0,1 @ F,0,0,1,0,0,0,1 @ F,0,0,1,0,0,0,1 @ F,0,0,1,0,0,0,1 @ F,0,0,1,0,0,0,1 @ F,0,0,1,0,0,0,1 @ F,0,0,1,0,0,0,1 @ F,0,0,1,0,0,0,1 @ F,0,0,1,0,0,0,1 @ F,0,0,1,0,0,0,1 @ F,0,0,1,0,0,0,1 @ F,0,0,1,0,0,0,1 @ F,0,0,1,0,0,0,1 @ F,0,0,1,0,0,0,1 @ F,0,0,1,0,0,0,1 @ F,0,0,1,0,0,0,1 @ F,0,0,1,0,0,0,1 @ F,0,0,1,0,0,0,1 @ F,0,0,1,0,0,0,1 @ F,0,0,1,0,0,0,1 @ F,0,0,1,0,0,0,1 @ F,0,0,1,0,0,0,1 @ F,0,0,1,0,0,0,1 @ F,0,0,1,0,0,0,1 @ F,0,0,1,0,0,0,1 @ F,0,0,1,0,0,0,1 @ F,0,0,1,0,0,0,1 @ F,0,0,1,0,0,0,1 @ F,0,0,1,0,0,0,1 @ F,0,0,1,0,0,0,1 @ F,0,0,1,0,0,0,1 @ F,0,0,1,0,0,0,1 @ F,0,0,1,0,0,0,1 @ F,0,0,1,0,0,0,1 @ F,0,0,1,0,0,0,1 @ F,0,0,1,0,0,0,1 @ F,0,0,1,0,0,0,1 @ F,0,0,1,0,0,0,1 @ F,0,0,1,0,0,0,1 @ F,0,0,1,0,0,0,1 @ F,0,0,1,0,0,0,1 @ F,0,0,1,0,0,0,1 @ F,0,0,1,0,0,0,1 @ F,0,0,1,0,0,0,1 @ F,0,0,1,0,0,0,1 @ F,0,0,1,0,0,0,1 @ F,0,0,1,0,0,0,1 @ F,0,0,1,0,0,0,1 @ F,0,0,1,0,0,0,1 @ F,0,0,1,0,0,0,1 @ F,0,0,1,0,0,0,1 @ F,0,0,1,0,0,0,1 @ F,0,0,1,0,0,0,1 @ F,0,0,1,0,0,0,1 @ F,0,0,1,0,0,0,1 @ F,0,0,1,0,0,0,1 @ F,0,0,1,0,0,0,1 @ F,0,0,1,0,0,0,1 @ F,0,0,1,0,0,0,1 @ F,0,0,1,0,0,0,1 @ F,0,0,1,0,0,0,1 @ F,0,0,1,0,0,0,1 @ F,0,0,1,0,0,0,1 @ F,0,0,1,0,0,0,1 @ F,0,0,1,0,0,0,1 @ F,0,0,1,0,0,0,1 @ F,0,0,1,0,0,0,1 @ F,0,0,1,0,0,0,1 @ F,0,0,1,0,0,0,1 @ F,0,0,1,0,0,0,1 @ F,0,0,1,0,0,0,1 @ F,0,0,1,0,0,0,1 @ F,0,0,1,0,0,0,1 @ F,0,0,1,0,0,0,1 @ F,0,0,1,0,0,0,1 @ F,0,0,1,0,0,0,1 @ F,0,0,1,0,0,0,1 @ F,0,0,1,0,0,0,1 @ F,0,0,1,0,0,0,1 @ F,0,0,1,0,0,0,1 @ F,0,0,1,0,0,0,1 @ F,0,0,1,0,0,0,1 @ F,0,0,1,0,0,0,1 @ F,0,0,1,0,0,0,1 @ F,0,0,1,0,0,0,1 @ F,0,0,1,0,0,0,1 @ F,0,0,1,0,0,0,1 @ F,0,0,1,0,0,0,1 @ F,0,0,1,0,0,0,1"
       radius="0"
       unit="px"
       method="auto"
       mode="F"
       chamfer_steps="1"
       flexible="false"
       use_knot_distance="true"
       apply_no_radius="true"
       apply_with_radius="true"
       only_selected="false"
       hide_knots="false" /></defs><sodipodi:namedview
     id="namedview1"
     pagecolor="#ffffff"
     bordercolor="#666666"
     borderopacity="1.0"
     inkscape:showpageshadow="2"
     inkscape:pageopacity="0.0"
     inkscape:pagecheckerboard="0"
     inkscape:deskcolor="#d1d1d1"
     inkscape:document-units="mm"
     inkscape:zoom="1.157213"
     inkscape:cx="245.8493"
     inkscape:cy="347.81842"
     inkscape:window-width="1920"
     inkscape:window-height="1011"
     inkscape:window-x="0"
     inkscape:window-y="32"
     inkscape:window-maximized="1"
     inkscape:current-layer="layer1"
     showguides="true"><sodipodi:guide
       position="130.09337,492.08961"
       orientation="1,0"
       id="guide3"
       inkscape:locked="false" /><sodipodi:guide
       position="65.094354,490.66276"
       orientation="1,0"
       id="guide4"
       inkscape:locked="false" /></sodipodi:namedview><metadata
     id="metadata13"><rdf:RDF><cc:Work
         rdf:about=""><dc:title>MSF Owl Clock PCB Outline</dc:title><dc:creator><cc:Agent><dc:title>Pete Restall &lt;pete@restall.net&gt;</dc:title></cc:Agent></dc:creator><cc:license
           rdf:resource="http://creativecommons.org/licenses/by-nc-sa/4.0/" /></cc:Work><cc:License
         rdf:about="http://creativecommons.org/licenses/by-nc-sa/4.0/"><cc:permits
           rdf:resource="http://creativecommons.org/ns#Reproduction" /><cc:permits
           rdf:resource="http://creativecommons.org/ns#Distribution" /><cc:requires
           rdf:resource="http://creativecommons.org/ns#Notice" /><cc:requires
           rdf:resource="http://creativecommons.org/ns#Attribution" /><cc:prohibits
           rdf:resource="http://creativecommons.org/ns#CommercialUse" /><cc:permits
           rdf:resource="http://creativecommons.org/ns#DerivativeWorks" /><cc:requires
           rdf:resource="http://creativecommons.org/ns#ShareAlike" /></cc:License></rdf:RDF></metadata><g
     inkscape:groupmode="layer"
     id="layer1"
     inkscape:label="Outline"><path
       style="fill:none;stroke:#000000;stroke-width:0.2;stroke-dasharray:none;stroke-opacity:1"
       d="m 65.047098,21.355032 c -6.346434,-0.07782 -12.462921,-0.854167 -19.135267,-2.515607 -0.463666,-0.115456 -1.010822,-0.251202 -1.215947,-0.301274 -0.522229,-0.127509 -2.056964,-0.56968 -2.354895,-0.678512 -0.136376,-0.04982 -0.582549,-0.187572 -0.99167,-0.306441 -3.248643,-0.943754 -8.264136,-2.84219 -11.684559,-4.421954 -0.400156,-0.18484 -0.744277,-0.335894 -0.764294,-0.335894 -0.198515,0 -6.912119,-3.3592584 -7.338054,-3.6716126 C 21.507861,9.0837218 21.15103,8.882803 20.769179,8.6772537 20.387325,8.4717044 19.829473,8.1590466 19.529462,7.9822053 17.247513,6.6370328 16.530325,6.2065829 15.264604,5.422155 13.566033,4.369485 11.613609,3.0881891 9.5719286,1.6869813 7.6605292,0.37501786 7.1858605,0.1 6.8330774,0.1 6.0635785,0.1 6.1800239,1.1688388 7.3581108,4.9105577 8.730889,9.2705748 8.8920199,9.8111415 9.3052777,11.456413 c 0.8515373,3.390052 1.2838173,6.399383 1.2934613,9.006168 l 0.0041,1.170471 -0.6697287,0.717785 c -4.7373077,5.080034 -7.8342669,10.744522 -8.99118062,16.444476 -0.50302796,2.478021 -0.58057107,3.265701 -0.58394484,5.936589 -0.003177,2.540013 0.0797811,3.496148 0.48317337,5.554699 1.08120369,5.516929 3.73008219,11.001574 7.71167559,15.968019 0.5466592,0.681863 1.0196944,1.262055 1.0510985,1.289327 0.031413,0.02728 0.2004718,0.216938 0.3756881,0.421162 l 0.3183256,0.371037 -1.02681,2.058789 c -2.9430369,5.898444 -5.4011574,12.19922 -6.7422251,17.283184 -1.0772367,4.083927 -1.56761301,6.534101 -1.98489118,9.918259 -0.33369321,2.706342 -0.37694203,3.329602 -0.42529648,6.149492 -0.04322352,2.51946 -0.02083298,3.21128 0.16071479,4.9811 0.40734807,3.97175 0.91846467,6.569 1.90840807,9.69759 0.4630179,1.46328 0.5487368,1.69198 1.3776955,3.67006 1.4156531,3.37798 3.8052777,7.2272 6.4337169,10.36423 1.0137255,1.20994 4.1840165,4.38223 5.4632315,5.46633 2.310263,1.95787 5.999534,4.59207 6.179468,4.41214 0.05398,-0.054 0.04628,-0.81952 -0.01965,-1.90996 -0.191685,-3.17161 -0.118385,-4.23031 0.309026,-4.45916 0.343618,-0.1839 0.617961,-0.0135 1.409218,0.87643 4.637783,5.21582 9.111898,8.44488 14.785144,10.67015 0.763703,0.29953 1.544884,0.5895 1.735811,0.6444 0.190924,0.0549 0.882753,0.25612 1.537374,0.44701 0.654593,0.19086 1.565571,0.4264 2.024683,0.52348 0.804893,0.17019 0.82688,0.18166 0.612365,0.33176 -1.0832,0.75794 -3.439194,3.05019 -4.525822,4.40335 -0.0889,0.11068 -0.137845,0.20355 -0.220658,0.31161 H 0.95215426 c -0.40290595,0 -0.7295255,0.32662 -0.7295255,0.72952 v 29.04632 l 129.74816124,0.002 v -19.9034 -8.85755 c 0,-0.56141 -0.45512,-1.01653 -1.01653,-1.01653 H 90.857927 c -0.08282,-0.10806 -0.131757,-0.20092 -0.220658,-0.31161 -1.086627,-1.35315 -3.442621,-3.6454 -4.525824,-4.40335 -0.214515,-0.1501 -0.192529,-0.16156 0.612366,-0.33176 0.459113,-0.0971 1.370091,-0.33261 2.024682,-0.52348 0.654623,-0.19089 1.346455,-0.39209 1.537376,-0.447 0.190927,-0.0549 0.97211,-0.34487 1.735812,-0.64441 5.673243,-2.22527 10.147359,-5.45433 14.785139,-10.67015 0.79126,-0.88988 1.0656,-1.06032 1.40922,-0.87643 0.42741,0.22885 0.50071,1.28755 0.30903,4.45916 -0.0659,1.09045 -0.0736,1.85597 -0.0197,1.90996 0.17994,0.17994 3.86921,-2.45426 6.17947,-4.41213 1.27922,-1.0841 4.44951,-4.2564 5.46324,-5.46633 2.62844,-3.13703 5.01806,-6.98626 6.43371,-10.36423 0.82896,-1.97809 0.91468,-2.20678 1.3777,-3.67006 0.98994,-3.12859 1.50106,-5.72585 1.90841,-9.6976 0.18153,-1.76981 0.20393,-2.46163 0.16071,-4.98109 -0.0484,-2.8199 -0.0916,-3.44316 -0.4253,-6.149497 -0.41728,-3.384158 -0.90766,-5.834332 -1.98489,-9.918259 -1.34107,-5.083964 -3.79919,-11.38474 -6.74222,-17.283184 l -1.02681,-2.058789 0.31832,-0.371037 c 0.17522,-0.204224 0.34428,-0.393887 0.37569,-0.421162 0.0314,-0.02727 0.50444,-0.607464 1.0511,-1.289328 3.98159,-4.966444 6.63047,-10.451089 7.71167,-15.968018 0.4034,-2.058551 0.48635,-3.014686 0.48318,-5.554699 -0.003,-2.670888 -0.0809,-3.458569 -0.58395,-5.936589 -1.15691,-5.699954 -4.25387,-11.364442 -8.99118,-16.444476 l -0.66973,-0.717785 0.004,-1.170471 c 0.01,-2.606785 0.44192,-5.616116 1.29346,-9.006168 0.41325,-1.6452715 0.57387,-2.1858382 1.94665,-6.5458553 1.17809,-3.7417189 1.29453,-4.81055771 0.52503,-4.81055771 -0.35278,0 -0.82745,0.27501786 -2.73885,1.58698121 -2.04168,1.4012079 -3.99411,2.6825038 -5.69268,3.7351738 -1.26572,0.7844279 -1.9829,1.2148778 -4.26485,2.5600502 -0.30001,0.1768414 -0.85787,0.4894992 -1.23972,0.6950485 -0.38185,0.2055493 -0.73868,0.4064681 -0.79323,0.4464837 -0.42594,0.3123542 -7.13954,3.6716126 -7.33806,3.6716126 -0.02,0 -0.36413,0.151054 -0.76429,0.335894 -3.420425,1.579764 -8.435916,3.4782 -11.68456,4.421954 -0.409119,0.118869 -0.855296,0.256617 -0.991672,0.306441 -0.297929,0.108832 -1.832664,0.551003 -2.354895,0.678512 -0.205124,0.05007 -0.752278,0.185818 -1.215946,0.301274 -6.672346,1.66144 -12.788833,2.437788 -19.135266,2.515607"
       id="owl-outline"
       sodipodi:nodetypes="cscsccscscccsccccccccssscccsccsccsscccssssssccscccssccsssscscscscssssscccsscccccccssscssscscssssc" /></g><g
     inkscape:groupmode="layer"
     id="layer2"
     inkscape:label="Components"><rect
       style="fill:none;stroke:#000000;stroke-width:0.2;stroke-dasharray:none"
       id="rect2"
       width="99.828972"
       height="11.828975"
       x="15.182305"
       y="162.13602"
       inkscape:label="ferrite-rod" /><path
       style="fill:none;stroke:#000000;stroke-width:0.200713;stroke-dasharray:none"
       id="path2-8"
       sodipodi:type="arc"
       sodipodi:cx="88.156387"
       sodipodi:cy="51.270535"
       sodipodi:rx="17.839642"
       sodipodi:ry="19.119637"
       sodipodi:start="0"
       sodipodi:end="6.2726236"
       sodipodi:arc-type="slice"
       d="M 105.99603,51.270535 A 17.839642,19.119637 0 0 1 88.203492,70.390104 17.839642,19.119637 0 0 1 70.316995,51.371502 17.839642,19.119637 0 0 1 88.015076,32.151498 17.839642,19.119637 0 0 1 105.99503,51.068602 l -17.838643,0.201933 z"
       inkscape:label="left-eye" /><path
       style="fill:none;stroke:#000000;stroke-width:0.200713;stroke-dasharray:none"
       id="path2"
       sodipodi:type="arc"
       sodipodi:cx="42.036392"
       sodipodi:cy="51.270535"
       sodipodi:rx="17.839642"
       sodipodi:ry="19.119637"
       sodipodi:start="0"
       sodipodi:end="6.2726236"
       sodipodi:arc-type="slice"
       d="M 59.876034,51.270535 A 17.839642,19.119637 0 0 1 42.083496,70.390104 17.839642,19.119637 0 0 1 24.196999,51.371502 17.839642,19.119637 0 0 1 41.895081,32.151498 17.839642,19.119637 0 0 1 59.875039,51.068602 l -17.838647,0.201933 z"
       inkscape:label="right-eye" /></g></svg>
