<?xml version="1.0" encoding="UTF-8" standalone="no"?>
<!-- Created with Inkscape (http://www.inkscape.org/) -->

<svg
   width="210mm"
   height="297mm"
   viewBox="0 0 210 297"
   version="1.1"
   id="svg1"
   sodipodi:docname="beak-path.svg"
   inkscape:version="1.3.2 (091e20ef0f, 2023-11-25)"
   xmlns:inkscape="http://www.inkscape.org/namespaces/inkscape"
   xmlns:sodipodi="http://sodipodi.sourceforge.net/DTD/sodipodi-0.dtd"
   xmlns="http://www.w3.org/2000/svg"
   xmlns:svg="http://www.w3.org/2000/svg">
  <sodipodi:namedview
     id="namedview1"
     pagecolor="#ffffff"
     bordercolor="#666666"
     borderopacity="1.0"
     inkscape:showpageshadow="2"
     inkscape:pageopacity="0.0"
     inkscape:pagecheckerboard="0"
     inkscape:deskcolor="#d1d1d1"
     inkscape:document-units="mm"
     inkscape:zoom="8.1134749"
     inkscape:cx="396.93227"
     inkscape:cy="561.3501"
     inkscape:window-width="1920"
     inkscape:window-height="1011"
     inkscape:window-x="0"
     inkscape:window-y="32"
     inkscape:window-maximized="1"
     inkscape:current-layer="layer1" />
  <defs
     id="defs1" />
  <g
     inkscape:label="Layer 1"
     inkscape:groupmode="layer"
     id="layer1">
    <path
       style="fill:none;stroke:#000000;stroke-width:0.957431;stroke-dasharray:none;stroke-opacity:1"
       d="m 104.75398,158.11541 c -3.35936,-3.68909 -8.253226,-11.81566 -8.256619,-13.71064 -0.0019,-1.07596 0.709532,-2.2847 2.125699,-3.61145 1.95695,-1.83338 4.37245,-2.91839 6.50807,-2.92331 0.95689,-0.002 1.73747,0.19455 2.8236,0.71174 2.95945,1.40921 5.43045,3.94562 5.57807,5.72573 0.14147,1.70598 -2.12505,6.77157 -5.00861,11.19407 -1.26003,1.93249 -2.51742,3.48641 -2.82113,3.48641 -0.085,0 -0.51207,-0.39265 -0.94908,-0.87255 z"
       id="path2"
       inkscape:export-filename="../../../../../../tmp/beak-2.svg"
       inkscape:export-xdpi="96"
       inkscape:export-ydpi="96"
       inkscape:label="outline" />
    <path
       style="fill:none;stroke:#000000;stroke-width:0.25;stroke-dasharray:none;stroke-opacity:1"
       d="m 98.153111,143.98591 c 0.7573,-1.21947 1.508395,-2.06521 2.606369,-2.93494 0.86284,-0.68353 1.55526,-1.1123 2.43348,-1.50704 0.30712,-0.13799 0.44291,-0.18153 0.46911,-0.1503 0.0312,0.0372 -0.13236,0.35917 0.0298,1.4823 0.0209,0.14496 0.29428,0.62442 0.27178,0.64365 -0.0228,0.0191 -0.1777,0.076 -0.34457,0.12601 -1.63292,0.49001 -3.912059,1.56066 -5.209818,2.44736 -0.264953,0.18107 -0.381417,0.24381 -0.403538,0.21747 -0.01716,-0.0203 0.04891,-0.16572 0.147541,-0.32456 z"
       id="path14-6"
       sodipodi:nodetypes="cccssccsccc"
       inkscape:label="shine" />
  </g>
</svg>
