<?xml version="1.0" encoding="UTF-8" standalone="no"?>
<!-- Created with Inkscape (http://www.inkscape.org/) -->

<svg
   width="64.539429mm"
   height="51.552738mm"
   version="1.1"
   viewBox="0 0 64.539424 51.552738"
   xml:space="preserve"
   id="svg1"
   sodipodi:docname="owl-pcb-outline.svg"
   inkscape:version="1.3.2 (091e20ef0f, 2023-11-25)"
   xmlns:inkscape="http://www.inkscape.org/namespaces/inkscape"
   xmlns:sodipodi="http://sodipodi.sourceforge.net/DTD/sodipodi-0.dtd"
   xmlns="http://www.w3.org/2000/svg"
   xmlns:svg="http://www.w3.org/2000/svg"
   xmlns:rdf="http://www.w3.org/1999/02/22-rdf-syntax-ns#"
   xmlns:cc="http://creativecommons.org/ns#"
   xmlns:dc="http://purl.org/dc/elements/1.1/"><title
     id="title13">MSF Owl Clock PCB Outline</title><defs
     id="defs1" /><sodipodi:namedview
     id="namedview1"
     pagecolor="#ffffff"
     bordercolor="#666666"
     borderopacity="1.0"
     inkscape:showpageshadow="2"
     inkscape:pageopacity="0.0"
     inkscape:pagecheckerboard="0"
     inkscape:deskcolor="#d1d1d1"
     inkscape:document-units="mm"
     inkscape:zoom="1"
     inkscape:cx="236.5"
     inkscape:cy="358.5"
     inkscape:window-width="1920"
     inkscape:window-height="1011"
     inkscape:window-x="0"
     inkscape:window-y="32"
     inkscape:window-maximized="1"
     inkscape:current-layer="layer2"
     showguides="true"><sodipodi:guide
       position="95.523957,583.10963"
       orientation="1,0"
       id="guide3"
       inkscape:locked="false" /><sodipodi:guide
       position="30.430573,253.03571"
       orientation="1,0"
       id="guide4"
       inkscape:locked="false" /></sodipodi:namedview><metadata
     id="metadata13"><rdf:RDF><cc:Work
         rdf:about=""><dc:title>MSF Owl Clock PCB Outline</dc:title><dc:creator><cc:Agent><dc:title>Pete Restall &lt;pete@restall.net&gt;</dc:title></cc:Agent></dc:creator><cc:license
           rdf:resource="http://creativecommons.org/licenses/by-nc-sa/4.0/" /></cc:Work><cc:License
         rdf:about="http://creativecommons.org/licenses/by-nc-sa/4.0/"><cc:permits
           rdf:resource="http://creativecommons.org/ns#Reproduction" /><cc:permits
           rdf:resource="http://creativecommons.org/ns#Distribution" /><cc:requires
           rdf:resource="http://creativecommons.org/ns#Notice" /><cc:requires
           rdf:resource="http://creativecommons.org/ns#Attribution" /><cc:prohibits
           rdf:resource="http://creativecommons.org/ns#CommercialUse" /><cc:permits
           rdf:resource="http://creativecommons.org/ns#DerivativeWorks" /><cc:requires
           rdf:resource="http://creativecommons.org/ns#ShareAlike" /></cc:License></rdf:RDF></metadata><g
     inkscape:groupmode="layer"
     id="layer2"
     inkscape:label="Components"
     transform="translate(-34.569415,-91.020022)"><path
       id="path4-04"
       style="fill:none;stroke:#000000;stroke-width:0.315275px;stroke-linecap:butt;stroke-linejoin:miter;stroke-opacity:1"
       d="m 36.275978,111.04045 c 3.655008,1.72116 5.549428,-2.25557 5.549428,-2.25557" /><path
       id="path4-72"
       style="fill:none;stroke:#000000;stroke-width:0.315275px;stroke-linecap:butt;stroke-linejoin:miter;stroke-opacity:1"
       d="m 43.311763,100.21682 c 4.228034,2.86145 6.42566,-1.751762 6.42566,-1.751762" /><path
       id="path4-6106"
       style="fill:none;stroke:#000000;stroke-width:0.315275px;stroke-linecap:butt;stroke-linejoin:miter;stroke-opacity:1"
       d="m 39.543976,104.45902 c 4.246163,2.90049 6.453401,-1.7329 6.453401,-1.7329"
       sodipodi:nodetypes="cc" /><path
       style="fill:none;stroke:#000000;stroke-width:0.315275px;stroke-linecap:butt;stroke-linejoin:miter;stroke-opacity:1"
       d="m 46.962119,103.03595 c 5.458119,5.90075 8.310822,-0.0876 8.310822,-0.0876"
       id="path4" /><path
       style="fill:none;stroke:#000000;stroke-width:0.315275px;stroke-linecap:butt;stroke-linejoin:miter;stroke-opacity:1"
       d="m 54.919168,107.07243 c 5.458119,5.90075 8.310822,-0.0876 8.310822,-0.0876"
       id="path4-5" /><path
       style="fill:none;stroke:#000000;stroke-width:0.315275px;stroke-linecap:butt;stroke-linejoin:miter;stroke-opacity:1"
       d="m 43.352436,107.47152 c 5.458119,5.90075 8.310822,-0.0876 8.310822,-0.0876"
       id="path4-2" /><path
       style="fill:none;stroke:#000000;stroke-width:0.315275px;stroke-linecap:butt;stroke-linejoin:miter;stroke-opacity:1"
       d="m 49.203529,110.72332 c 5.458119,5.90075 8.310822,-0.0876 8.310822,-0.0876"
       id="path4-7" /><path
       style="fill:none;stroke:#000000;stroke-width:0.315275px;stroke-linecap:butt;stroke-linejoin:miter;stroke-opacity:1"
       d="m 40.152397,112.56371 c 5.458119,5.90075 8.310822,-0.0876 8.310822,-0.0876"
       id="path4-6" /><path
       style="fill:none;stroke:#000000;stroke-width:0.315275px;stroke-linecap:butt;stroke-linejoin:miter;stroke-opacity:1"
       d="m 55.944464,113.5776 c 5.458119,5.90075 8.310822,-0.0876 8.310822,-0.0876"
       id="path4-61" /><path
       style="fill:none;stroke:#000000;stroke-width:0.315275px;stroke-linecap:butt;stroke-linejoin:miter;stroke-opacity:1"
       d="m 47.589056,115.56826 c 5.458119,5.90075 8.310822,-0.0876 8.310822,-0.0876"
       id="path4-20" /><path
       style="fill:none;stroke:#000000;stroke-width:0.315275px;stroke-linecap:butt;stroke-linejoin:miter;stroke-opacity:1"
       d="m 37.338018,116.95954 c 5.458119,5.90075 8.310822,-0.0876 8.310822,-0.0876"
       id="path4-59" /><path
       style="fill:none;stroke:#000000;stroke-width:0.315275px;stroke-linecap:butt;stroke-linejoin:miter;stroke-opacity:1"
       d="m 44.135584,119.96418 c 5.458119,5.90075 8.310822,-0.0876 8.310822,-0.0876"
       id="path4-9" /><path
       style="fill:none;stroke:#000000;stroke-width:0.315275px;stroke-linecap:butt;stroke-linejoin:miter;stroke-opacity:1"
       d="m 54.71805,118.87464 c 5.458119,5.90075 8.310822,-0.0876 8.310822,-0.0876"
       id="path4-1" /><path
       style="fill:none;stroke:#000000;stroke-width:0.315275px;stroke-linecap:butt;stroke-linejoin:miter;stroke-opacity:1"
       d="m 51.066206,98.1268 c 5.458119,5.90075 8.310822,-0.0876 8.310822,-0.0876"
       id="path4-19" /><path
       style="fill:none;stroke:#000000;stroke-width:0.315275px;stroke-linecap:butt;stroke-linejoin:miter;stroke-opacity:1"
       d="m 56.191006,101.53619 c 5.458119,5.90076 8.310822,-0.0876 8.310822,-0.0876"
       id="path4-4" /><path
       style="fill:none;stroke:#000000;stroke-width:0.315275px;stroke-linecap:butt;stroke-linejoin:miter;stroke-opacity:1"
       d="m 56.158328,94.563476 c 5.458119,5.900754 8.310822,-0.0876 8.310822,-0.0876"
       id="path4-610" /><path
       style="fill:none;stroke:#000000;stroke-width:0.315275px;stroke-linecap:butt;stroke-linejoin:miter;stroke-opacity:1"
       d="m 62.482782,97.885878 c 5.458119,5.900752 8.310822,-0.0876 8.310822,-0.0876"
       id="path4-610-8" /><path
       style="fill:none;stroke:#000000;stroke-width:0.315275px;stroke-linecap:butt;stroke-linejoin:miter;stroke-opacity:1"
       d="m 62.625223,104.75797 c 5.458119,5.90075 8.310822,-0.0876 8.310822,-0.0876"
       id="path4-610-9" /><path
       style="fill:none;stroke:#000000;stroke-width:0.315275px;stroke-linecap:butt;stroke-linejoin:miter;stroke-opacity:1"
       d="m 62.397184,110.04812 c 5.458119,5.90075 8.310822,-0.0876 8.310822,-0.0876"
       id="path4-610-5" /><path
       style="fill:none;stroke:#000000;stroke-width:0.315275px;stroke-linecap:butt;stroke-linejoin:miter;stroke-opacity:1"
       d="m 62.524744,117.06396 c 5.458119,5.90075 8.310822,-0.0876 8.310822,-0.0876"
       id="path4-610-59" /><path
       style="fill:none;stroke:#000000;stroke-width:0.315275px;stroke-linecap:butt;stroke-linejoin:miter;stroke-opacity:1"
       d="m 62.584318,122.05602 c 5.458119,5.90075 8.310822,-0.0876 8.310822,-0.0876"
       id="path4-610-1" /><path
       style="fill:none;stroke:#000000;stroke-width:0.315275px;stroke-linecap:butt;stroke-linejoin:miter;stroke-opacity:1"
       d="m 62.305063,129.54098 c 5.458119,5.90075 8.310822,-0.0876 8.310822,-0.0876"
       id="path4-610-4" /><path
       style="fill:none;stroke:#000000;stroke-width:0.315275px;stroke-linecap:butt;stroke-linejoin:miter;stroke-opacity:1"
       d="m 63.008356,136.33522 c 5.458119,5.90075 8.310822,-0.0876 8.310822,-0.0876"
       id="path4-610-7" /><path
       style="fill:none;stroke:#000000;stroke-width:0.315275px;stroke-linecap:butt;stroke-linejoin:miter;stroke-opacity:1"
       d="m 37.868028,122.9417 c 5.458119,5.90075 8.310822,-0.0876 8.310822,-0.0876"
       id="path4-0" /><path
       style="fill:none;stroke:#000000;stroke-width:0.315275px;stroke-linecap:butt;stroke-linejoin:miter;stroke-opacity:1"
       d="m 50.263969,123.11961 c 5.458119,5.90075 8.310822,-0.0876 8.310822,-0.0876"
       id="path4-54" /><path
       style="fill:none;stroke:#000000;stroke-width:0.315275px;stroke-linecap:butt;stroke-linejoin:miter;stroke-opacity:1"
       d="m 56.337468,126.15826 c 5.458119,5.90075 8.310822,-0.0876 8.310822,-0.0876"
       id="path4-69" /><path
       style="fill:none;stroke:#000000;stroke-width:0.315275px;stroke-linecap:butt;stroke-linejoin:miter;stroke-opacity:1"
       d="m 44.06381,125.97538 c 5.458119,5.90075 8.310822,-0.0876 8.310822,-0.0876"
       id="path4-52" /><path
       style="fill:none;stroke:#000000;stroke-width:0.315275px;stroke-linecap:butt;stroke-linejoin:miter;stroke-opacity:1"
       d="m 39.61032,129.49926 c 5.458119,5.90075 8.310822,-0.0876 8.310822,-0.0876"
       id="path4-44" /><path
       style="fill:none;stroke:#000000;stroke-width:0.315275px;stroke-linecap:butt;stroke-linejoin:miter;stroke-opacity:1"
       d="m 50.591283,129.52453 c 5.458119,5.90075 8.310822,-0.0876 8.310822,-0.0876"
       id="path4-8" /><path
       style="fill:none;stroke:#000000;stroke-width:0.315275px;stroke-linecap:butt;stroke-linejoin:miter;stroke-opacity:1"
       d="m 45.037992,133.22295 c 5.458119,5.90075 8.310822,-0.0876 8.310822,-0.0876"
       id="path4-43" /><path
       style="fill:none;stroke:#000000;stroke-width:0.315275px;stroke-linecap:butt;stroke-linejoin:miter;stroke-opacity:1"
       d="m 56.622907,132.76861 c 5.458119,5.90075 8.310822,-0.0876 8.310822,-0.0876"
       id="path4-206" /><path
       style="fill:none;stroke:#000000;stroke-width:0.315275px;stroke-linecap:butt;stroke-linejoin:miter;stroke-opacity:1"
       d="m 52.474436,136.14564 c 5.458119,5.90075 8.310822,-0.0876 8.310822,-0.0876"
       id="path4-66" /><path
       id="path4-04-4"
       style="fill:none;stroke:#000000;stroke-width:0.315275px;stroke-linecap:butt;stroke-linejoin:miter;stroke-opacity:1"
       d="m 97.248109,110.92793 c -3.65501,1.72116 -5.54943,-2.25557 -5.54943,-2.25557" /><path
       id="path4-72-9"
       style="fill:none;stroke:#000000;stroke-width:0.315275px;stroke-linecap:butt;stroke-linejoin:miter;stroke-opacity:1"
       d="M 90.212319,100.1043 C 85.984286,102.96575 83.78666,98.352536 83.78666,98.352536" /><path
       id="path4-6106-0"
       style="fill:none;stroke:#000000;stroke-width:0.315275px;stroke-linecap:butt;stroke-linejoin:miter;stroke-opacity:1"
       d="m 93.980109,104.3465 c -4.24617,2.90049 -6.453403,-1.7329 -6.453403,-1.7329"
       sodipodi:nodetypes="cc" /><path
       style="fill:none;stroke:#000000;stroke-width:0.315275px;stroke-linecap:butt;stroke-linejoin:miter;stroke-opacity:1"
       d="m 86.561964,102.92343 c -5.458119,5.90075 -8.310822,-0.0876 -8.310822,-0.0876"
       id="path4-91" /><path
       style="fill:none;stroke:#000000;stroke-width:0.315275px;stroke-linecap:butt;stroke-linejoin:miter;stroke-opacity:1"
       d="m 78.604915,106.95991 c -5.458118,5.90075 -8.310818,-0.0876 -8.310818,-0.0876"
       id="path4-5-7" /><path
       style="fill:none;stroke:#000000;stroke-width:0.315275px;stroke-linecap:butt;stroke-linejoin:miter;stroke-opacity:1"
       d="m 90.171649,107.359 c -5.458121,5.90075 -8.310824,-0.0876 -8.310824,-0.0876"
       id="path4-2-7" /><path
       style="fill:none;stroke:#000000;stroke-width:0.315275px;stroke-linecap:butt;stroke-linejoin:miter;stroke-opacity:1"
       d="m 84.320554,110.6108 c -5.458119,5.90075 -8.310827,-0.0876 -8.310827,-0.0876"
       id="path4-7-1" /><path
       style="fill:none;stroke:#000000;stroke-width:0.315275px;stroke-linecap:butt;stroke-linejoin:miter;stroke-opacity:1"
       d="m 93.371689,112.45119 c -5.458122,5.90075 -8.310825,-0.0876 -8.310825,-0.0876"
       id="path4-6-1" /><path
       style="fill:none;stroke:#000000;stroke-width:0.315275px;stroke-linecap:butt;stroke-linejoin:miter;stroke-opacity:1"
       d="m 77.579619,113.46508 c -5.458122,5.90075 -8.310822,-0.0876 -8.310822,-0.0876"
       id="path4-61-5" /><path
       style="fill:none;stroke:#000000;stroke-width:0.315275px;stroke-linecap:butt;stroke-linejoin:miter;stroke-opacity:1"
       d="m 85.935027,115.45574 c -5.458119,5.90075 -8.310822,-0.0876 -8.310822,-0.0876"
       id="path4-20-9" /><path
       style="fill:none;stroke:#000000;stroke-width:0.315275px;stroke-linecap:butt;stroke-linejoin:miter;stroke-opacity:1"
       d="m 96.186069,116.84702 c -5.45812,5.90075 -8.310826,-0.0876 -8.310826,-0.0876"
       id="path4-59-7" /><path
       style="fill:none;stroke:#000000;stroke-width:0.315275px;stroke-linecap:butt;stroke-linejoin:miter;stroke-opacity:1"
       d="m 89.388499,119.85166 c -5.458119,5.90075 -8.310822,-0.0876 -8.310822,-0.0876"
       id="path4-9-7" /><path
       style="fill:none;stroke:#000000;stroke-width:0.315275px;stroke-linecap:butt;stroke-linejoin:miter;stroke-opacity:1"
       d="m 78.806033,118.76212 c -5.458116,5.90075 -8.310826,-0.0876 -8.310826,-0.0876"
       id="path4-1-6" /><path
       style="fill:none;stroke:#000000;stroke-width:0.315275px;stroke-linecap:butt;stroke-linejoin:miter;stroke-opacity:1"
       d="m 82.457877,98.014278 c -5.458119,5.900752 -8.31082,-0.0876 -8.31082,-0.0876"
       id="path4-19-7" /><path
       style="fill:none;stroke:#000000;stroke-width:0.315275px;stroke-linecap:butt;stroke-linejoin:miter;stroke-opacity:1"
       d="m 77.333077,101.42367 c -5.45812,5.90076 -8.31082,-0.0876 -8.31082,-0.0876"
       id="path4-4-3" /><path
       style="fill:none;stroke:#000000;stroke-width:0.315275px;stroke-linecap:butt;stroke-linejoin:miter;stroke-opacity:1"
       d="m 77.365755,94.450954 c -5.458118,5.900756 -8.310818,-0.0876 -8.310818,-0.0876"
       id="path4-610-6" /><path
       style="fill:none;stroke:#000000;stroke-width:0.315275px;stroke-linecap:butt;stroke-linejoin:miter;stroke-opacity:1"
       d="m 95.656059,122.82918 c -5.45812,5.90075 -8.310826,-0.0876 -8.310826,-0.0876"
       id="path4-0-5" /><path
       style="fill:none;stroke:#000000;stroke-width:0.315275px;stroke-linecap:butt;stroke-linejoin:miter;stroke-opacity:1"
       d="m 83.260114,123.00709 c -5.458119,5.90075 -8.310827,-0.0876 -8.310827,-0.0876"
       id="path4-54-6" /><path
       style="fill:none;stroke:#000000;stroke-width:0.315275px;stroke-linecap:butt;stroke-linejoin:miter;stroke-opacity:1"
       d="m 77.186615,126.04574 c -5.458118,5.90075 -8.310818,-0.0876 -8.310818,-0.0876"
       id="path4-69-3" /><path
       style="fill:none;stroke:#000000;stroke-width:0.315275px;stroke-linecap:butt;stroke-linejoin:miter;stroke-opacity:1"
       d="m 89.460269,125.86286 c -5.458115,5.90075 -8.310818,-0.0876 -8.310818,-0.0876"
       id="path4-52-9" /><path
       style="fill:none;stroke:#000000;stroke-width:0.315275px;stroke-linecap:butt;stroke-linejoin:miter;stroke-opacity:1"
       d="m 93.913759,129.38674 c -5.458115,5.90075 -8.310818,-0.0876 -8.310818,-0.0876"
       id="path4-44-4" /><path
       style="fill:none;stroke:#000000;stroke-width:0.315275px;stroke-linecap:butt;stroke-linejoin:miter;stroke-opacity:1"
       d="m 82.9328,129.41201 c -5.458119,5.90075 -8.310823,-0.0876 -8.310823,-0.0876"
       id="path4-8-8" /><path
       style="fill:none;stroke:#000000;stroke-width:0.315275px;stroke-linecap:butt;stroke-linejoin:miter;stroke-opacity:1"
       d="m 88.486091,133.11043 c -5.458119,5.90075 -8.310822,-0.0876 -8.310822,-0.0876"
       id="path4-43-1" /><path
       style="fill:none;stroke:#000000;stroke-width:0.315275px;stroke-linecap:butt;stroke-linejoin:miter;stroke-opacity:1"
       d="m 76.901177,132.65609 c -5.45812,5.90075 -8.31082,-0.0876 -8.31082,-0.0876"
       id="path4-206-2" /><path
       style="fill:none;stroke:#000000;stroke-width:0.315275px;stroke-linecap:butt;stroke-linejoin:miter;stroke-opacity:1"
       d="m 81.049647,136.03312 c -5.45812,5.90075 -8.31082,-0.0876 -8.31082,-0.0876"
       id="path4-66-9" /><ellipse
       style="fill:none;stroke:#000000;stroke-width:1.56592;stroke-dasharray:none"
       id="ellipse5"
       cx="66.839127"
       cy="116.79639"
       rx="31.486753"
       ry="24.993406" /></g></svg>
