<?xml version="1.0" encoding="UTF-8" standalone="no"?>
<!-- Created with Inkscape (http://www.inkscape.org/) -->

<svg
   width="30.448151mm"
   height="10.276359mm"
   version="1.1"
   viewBox="0 0 30.448148 10.276359"
   xml:space="preserve"
   id="svg1"
   sodipodi:docname="ear-left-path.svg"
   inkscape:version="1.3.2 (091e20ef0f, 2023-11-25)"
   xmlns:inkscape="http://www.inkscape.org/namespaces/inkscape"
   xmlns:sodipodi="http://sodipodi.sourceforge.net/DTD/sodipodi-0.dtd"
   xmlns="http://www.w3.org/2000/svg"
   xmlns:svg="http://www.w3.org/2000/svg"
   xmlns:rdf="http://www.w3.org/1999/02/22-rdf-syntax-ns#"
   xmlns:cc="http://creativecommons.org/ns#"
   xmlns:dc="http://purl.org/dc/elements/1.1/"><title
     id="title13">MSF Owl Clock PCB Outline</title><defs
     id="defs1" /><sodipodi:namedview
     id="namedview1"
     pagecolor="#ffffff"
     bordercolor="#666666"
     borderopacity="1.0"
     inkscape:showpageshadow="2"
     inkscape:pageopacity="0.0"
     inkscape:pagecheckerboard="0"
     inkscape:deskcolor="#d1d1d1"
     inkscape:document-units="mm"
     inkscape:zoom="1"
     inkscape:cx="236.5"
     inkscape:cy="358.5"
     inkscape:window-width="1920"
     inkscape:window-height="1011"
     inkscape:window-x="0"
     inkscape:window-y="32"
     inkscape:window-maximized="1"
     inkscape:current-layer="layer2"
     showguides="true"><sodipodi:guide
       position="111.354,597.81556"
       orientation="1,0"
       id="guide3"
       inkscape:locked="false" /><sodipodi:guide
       position="46.260617,267.74164"
       orientation="1,0"
       id="guide4"
       inkscape:locked="false" /></sodipodi:namedview><metadata
     id="metadata13"><rdf:RDF><cc:Work
         rdf:about=""><dc:title>MSF Owl Clock PCB Outline</dc:title><dc:creator><cc:Agent><dc:title>Pete Restall &lt;pete@restall.net&gt;</dc:title></cc:Agent></dc:creator><cc:license
           rdf:resource="http://creativecommons.org/licenses/by-nc-sa/4.0/" /></cc:Work><cc:License
         rdf:about="http://creativecommons.org/licenses/by-nc-sa/4.0/"><cc:permits
           rdf:resource="http://creativecommons.org/ns#Reproduction" /><cc:permits
           rdf:resource="http://creativecommons.org/ns#Distribution" /><cc:requires
           rdf:resource="http://creativecommons.org/ns#Notice" /><cc:requires
           rdf:resource="http://creativecommons.org/ns#Attribution" /><cc:prohibits
           rdf:resource="http://creativecommons.org/ns#CommercialUse" /><cc:permits
           rdf:resource="http://creativecommons.org/ns#DerivativeWorks" /><cc:requires
           rdf:resource="http://creativecommons.org/ns#ShareAlike" /></cc:License></rdf:RDF></metadata><g
     inkscape:groupmode="layer"
     id="layer2"
     inkscape:label="Components"
     transform="translate(-18.73937,-105.72595)"><path
       d="m 18.73937,111.97009 v -6.24414 h 0.634998 v 6.24414 z m 1.269996,0 v -6.24414 h 0.317499 v 6.24414 z m 0.634998,0 v -6.24414 h 0.317499 v 6.24414 z m -0.83608,3.14324 h 0.539748 v -2.15899 h -0.507998 v -0.22225 h 0.793747 v 2.38124 h 0.529165 v 0.23284 h -1.354662 z m 2.423574,-3.14324 v -6.24414 h 0.317499 v 6.24414 z m 1.269996,0 v -6.24414 h 1.269996 v 6.24414 z m 1.587495,0 v -6.24414 h 0.317499 v 6.24414 z m -1.111246,3.40783 q -0.243416,0 -0.433915,-0.11642 -0.179916,-0.11642 -0.285749,-0.32808 -0.116417,-0.21167 -0.116417,-0.48684 0,-0.27516 0.116417,-0.48683 0.105833,-0.21166 0.285749,-0.32808 0.190499,-0.127 0.433915,-0.127 0.243416,0 0.423332,0.127 0.190499,0.11642 0.296332,0.32808 0.105833,0.21167 0.105833,0.48683 0,0.27517 -0.105833,0.48684 -0.105833,0.21166 -0.296332,0.32808 -0.179916,0.11642 -0.423332,0.11642 z m 0,-0.23284 q 0.148166,0 0.275166,-0.0952 0.116416,-0.0847 0.190499,-0.24341 0.0635,-0.16934 0.0635,-0.37042 0,-0.30691 -0.148166,-0.49741 -0.148166,-0.1905 -0.380999,-0.1905 -0.232833,0 -0.380999,0.1905 -0.148166,0.1905 -0.148166,0.49741 0,0.20108 0.0635,0.37042 0.07408,0.15875 0.190499,0.24341 0.116416,0.0952 0.275166,0.0952 z m 1.746244,-3.17499 v -6.24414 h 0.317499 v 6.24414 z m 0.634998,0 v -6.24414 h 0.317499 v 6.24414 z m 0.952497,0 v -6.24414 h 1.269996 v 6.24414 z m -0.592665,1.57691 h 0.285749 v 0.35984 q 0.0635,-0.20109 0.211666,-0.29634 0.148166,-0.10583 0.338665,-0.10583 0.201083,0 0.380999,0.10583 0.169333,0.10584 0.264583,0.3175 0.105833,0.20109 0.105833,0.508 0,0.29633 -0.105833,0.51858 -0.105833,0.22225 -0.275166,0.32809 -0.179916,0.10583 -0.380999,0.10583 -0.158749,0 -0.296332,-0.0741 -0.148166,-0.0741 -0.232833,-0.20109 v 0.889 h -0.296332 z m 0.783164,1.59808 q 0.211666,0 0.359832,-0.16933 0.148166,-0.15875 0.148166,-0.52917 0,-0.33866 -0.126999,-0.51858 -0.127,-0.17991 -0.370416,-0.17991 -0.222249,0 -0.359832,0.1905 -0.148166,0.1905 -0.148166,0.57149 0.01058,0.30692 0.137583,0.46567 0.137583,0.16933 0.359832,0.16933 z m 1.714494,-3.17499 v -6.24414 h 0.317499 v 6.24414 z m 0.952497,0 v -6.24414 h 0.634998 v 6.24414 z m 1.904994,0 v -6.24414 h 0.317499 v 6.24414 z m -1.809744,0.762 h 0.317499 v 0.0212 q -0.03175,0.0318 -0.03175,0.0529 -0.01058,0.0318 -0.01058,0.0953 v 0.96308 q 0.105833,-0.15875 0.264583,-0.26458 0.158749,-0.0952 0.328082,-0.0952 0.253999,0 0.402166,0.17992 0.148166,0.17991 0.148166,0.5715 v 1.09008 h -0.275166 v -1.0795 q 0,-0.27517 -0.09525,-0.39158 -0.09525,-0.127 -0.243416,-0.127 -0.126999,0 -0.243415,0.0741 -0.127,0.0635 -0.201083,0.20108 -0.08467,0.127 -0.08467,0.28575 v 1.03717 h -0.275165 z m 2.444741,-0.762 v -6.24414 h 0.317499 v 6.24414 z m 0.952497,0 v -6.24414 h 1.269996 v 6.24414 z m 1.587495,0 v -6.24414 h 0.317499 v 6.24414 z m -0.03175,3.20674 q -0.253999,0.20109 -0.571498,0.20109 -0.296333,0 -0.423332,-0.17992 -0.127,-0.1905 -0.127,-0.59267 0,-0.0741 0.01058,-0.23283 l 0.04233,-0.59266 H 33.746486 V 113.547 h 0.412749 l 0.03175,-0.47624 0.306916,-0.0529 h 0.04233 v 0.0212 q -0.02117,0.0318 -0.03175,0.0635 -0.02117,0.0318 -0.02117,0.0847 l -0.04233,0.35983 h 0.592665 v 0.23284 h -0.613832 l -0.03175,0.61383 q -0.01058,0.15875 -0.01058,0.20108 0,0.3175 0.07408,0.43392 0.07408,0.10583 0.232833,0.10583 0.116416,0 0.222249,-0.0423 0.09525,-0.0423 0.22225,-0.13759 z m 0.984246,-3.20674 v -6.24414 h 1.269996 v 6.24414 z m 1.904994,0 v -6.24414 h 0.317499 v 6.24414 z m 0.634998,0 v -6.24414 h 0.317499 v 6.24414 z m -1.714495,1.57691 h 0.243416 l 0.296332,1.44992 0.306916,-1.28058 h 0.169333 l 0.380999,1.26999 q 0.116416,-0.73024 0.137583,-0.96308 0.03175,-0.23283 0.03175,-0.41275 v -0.0635 h 0.264582 q -0.116416,0.91017 -0.296332,1.79917 h -0.275166 l -0.328082,-1.16417 -0.317499,1.16417 h -0.254 z m 2.666992,-1.57691 v -6.24414 h 0.317499 v 6.24414 z m 0.952497,0 v -6.24414 h 0.317499 v 6.24414 z m 0.634998,0 v -6.24414 h 0.634998 v 6.24414 z m 0.137583,1.53458 q 0.380998,0 0.582081,0.20108 0.201083,0.20109 0.201083,0.68792 v 0.9525 H 41.895626 V 115.071 q -0.158749,0.3175 -0.613831,0.3175 -0.296333,0 -0.465666,-0.13758 -0.169332,-0.13759 -0.169332,-0.35984 0,-0.1905 0.126999,-0.32808 0.116417,-0.13758 0.328083,-0.22225 0.201082,-0.0741 0.455081,-0.0741 0.22225,0 0.402166,0.0212 -0.02117,-0.29634 -0.15875,-0.42334 -0.137583,-0.127 -0.402165,-0.127 -0.137583,0 -0.253999,0.0529 -0.127,0.0529 -0.232833,0.14817 l -0.137583,-0.17992 q 0.253999,-0.254 0.645582,-0.254 z m -0.105833,1.67216 q 0.296332,0 0.465665,-0.17991 0.169333,-0.16934 0.179916,-0.48684 -0.179916,-0.0318 -0.380999,-0.0318 -0.296332,0 -0.476248,0.10584 -0.169333,0.0952 -0.169333,0.29633 0,0.29633 0.380999,0.29633 z m 1.873242,-3.20674 v -6.24414 h 0.317499 v 6.24414 z m 0.952497,0 v -6.24414 h 0.317499 v 6.24414 z m 0.952497,0 v -6.24414 h 1.269996 v 6.24414 z m 0.179916,1.53458 q 0.285749,0 0.476248,0.20108 l -0.126999,0.21167 -0.01058,0.0423 -0.03175,-0.0212 q -0.01058,-0.0423 -0.02117,-0.0635 -0.02117,-0.0318 -0.07408,-0.0635 -0.09525,-0.0635 -0.232833,-0.0635 -0.137583,0 -0.264582,0.0741 -0.127,0.0635 -0.201083,0.21167 -0.08467,0.14816 -0.08467,0.35983 v 0.9525 H 44.414449 V 113.547 h 0.296333 l -0.01058,0.32809 q 0.07408,-0.16934 0.232833,-0.27517 0.15875,-0.0952 0.338666,-0.0952 z m 1.407579,-1.53458 v -6.24414 h 0.317499 v 6.24414 z m 0.634997,0 v -6.24414 h 0.634998 v 6.24414 z m 1.269996,0 v -6.24414 h 0.317499 v 6.24414 z m -0.07408,3.41841 q -0.402165,0 -0.634998,-0.24342 -0.243416,-0.24341 -0.243416,-0.68791 0,-0.29633 0.116417,-0.51858 0.105833,-0.21167 0.296332,-0.3175 0.179916,-0.11642 0.412749,-0.11642 0.328082,0 0.529165,0.21167 0.201083,0.22225 0.201083,0.64558 0,0.0423 0,0.127 h -1.28058 q 0.01058,0.32808 0.179916,0.49741 0.169333,0.16934 0.433916,0.16934 0.285749,0 0.465665,-0.20109 l 0.158749,0.15875 q -0.232832,0.27517 -0.634998,0.27517 z m 0.391582,-1.12183 q 0,-0.254 -0.126999,-0.40217 -0.127,-0.14816 -0.338666,-0.14816 -0.190499,0 -0.338665,0.13758 -0.148167,0.13758 -0.179916,0.41275 z"
       id="text1"
       style="font-size:10.5833px;line-height:1.25;font-family:'Libre Barcode 128 Text';-inkscape-font-specification:'Libre Barcode 128 Text';letter-spacing:0px;word-spacing:0px;stroke-width:0.264583"
       aria-label="lophtware" /></g></svg>
